<svg width="473" height="174" viewBox="0 0 473 174" fill="none" xmlns="http://www.w3.org/2000/svg">
<path d="M6.74805 2.51172C7.21394 2.51145 9.14231 2.66773 11.8887 2.9043C14.7358 3.14954 18.6629 3.5003 23.3096 3.92285C32.6038 4.76803 44.7914 5.90167 57.0156 7.05371C79.8545 9.20609 103.023 11.4419 107.481 11.9756L108.118 12.0596L108.682 12.1523C109.25 12.2516 109.828 12.3736 110.344 12.5527C111.102 12.816 111.932 13.2695 112.548 14.1445C113.115 14.9504 113.309 15.85 113.402 16.5879C113.473 17.1471 113.503 17.7876 113.52 18.4805L113.532 19.1895V19.1904C113.558 21.0903 113.811 23.9303 114.109 25.8672L114.239 26.6367L114.276 26.8389L118.21 24.5391L119.093 24.0283C128.288 18.7664 139.773 13.9728 149.721 11.2646C157.755 9.07666 168.784 8.52269 181.11 9.36719C193.479 10.2146 207.327 12.4837 221.077 16.0586C230.939 18.6228 246.452 24.5157 270.418 34.752C278.679 38.2815 287.605 41.9313 290.269 42.8779C293.181 43.913 304.168 48.9817 314.625 54.085L333.203 63.1523L345.519 63.1445L346.954 63.1328C354.737 63.0268 371.316 62.186 385.226 61.1699C400.089 60.0841 420.421 58.8985 430.424 58.5361C439.044 58.2235 443.785 58.0723 446.901 58.2852C449.854 58.4869 451.485 59.0289 453.438 59.9268L454.299 60.333C464.112 65.0575 470.344 75.0641 470.344 86.0322C470.344 98.4689 463.064 108.525 450.984 113.179C447.216 114.63 428.141 120.893 408.659 127.083C389.175 133.274 359.298 143.571 342.297 149.953C325.247 156.354 304.567 163.858 296.336 166.629C285.348 170.329 279.873 172.511 269.617 171.003C259.768 169.555 245.247 164.68 215.714 155.013L168.182 139.452L146.074 140.031C139.471 140.204 133.358 140.483 128.542 140.812C123.619 141.149 120.3 141.525 119.099 141.836H119.098C117.89 142.148 117.091 142.366 116.518 142.571C116.146 142.704 115.968 142.8 115.894 142.846C115.887 142.866 115.877 142.893 115.868 142.929C115.792 143.219 115.734 143.676 115.659 144.576V144.577C115.536 146.045 115.338 147.655 114.456 148.899C113.438 150.335 111.917 150.785 110.686 151.045C108.069 151.598 26.3087 164.316 12.6133 166.307H12.6123C10.8431 166.564 9.15405 166.743 7.8457 166.822C7.1994 166.861 6.59584 166.878 6.10254 166.86C5.86329 166.852 5.58019 166.833 5.30273 166.784C5.16521 166.76 4.9668 166.718 4.74902 166.641C4.57533 166.579 4.1449 166.412 3.74512 166.016L3.74219 166.013C3.28482 165.558 3.13559 165.043 3.12695 165.017C3.07843 164.871 3.05185 164.75 3.04004 164.69C3.01481 164.564 3.00132 164.45 2.99414 164.386C2.97834 164.243 2.96722 164.08 2.95801 163.923C2.93894 163.597 2.92089 163.147 2.9043 162.594C2.87091 161.48 2.83882 159.868 2.80859 157.819C2.74808 153.719 2.69419 147.828 2.64844 140.588C2.55692 126.106 2.5 106.203 2.5 84.375C2.5 46.9331 2.52415 27.056 2.75586 16.5449C2.87078 11.3321 3.03801 8.2747 3.30762 6.50195C3.43393 5.67149 3.62592 4.78158 4.05664 4.06348C4.30387 3.65137 4.67941 3.20945 5.24121 2.89648C5.80719 2.5812 6.35505 2.51224 6.74609 2.51172H6.74805ZM174.01 16.7666C165.245 16.488 157.9 16.9829 153.639 18.1758C140.387 21.8867 128.6 27.1355 118.55 33.7705L114.197 36.6445L114.705 85.7881L114.82 95.9385C114.942 105.794 115.083 114.656 115.225 121.584C115.319 126.204 115.413 129.956 115.501 132.565C115.523 133.217 115.544 133.793 115.564 134.291C116.676 134.152 118.1 133.921 119.62 133.612H119.621C124.01 132.721 134.184 132.286 147.97 132.312C158.11 132.33 163.741 132.375 168.018 132.755C172.393 133.144 175.352 133.884 180.123 135.201L182.812 135.955C196.629 139.887 215.978 146.224 240.33 154.79C251.898 158.86 260.022 161.39 266.157 162.732C272.27 164.07 276.248 164.19 279.574 163.562C282.401 163.027 287.889 161.36 297.793 157.899C307.635 154.461 321.687 149.307 341.543 141.882C360.191 134.908 377.831 128.454 380.669 127.574L386.727 125.685C401.1 121.177 416.929 116.047 429.847 111.746C437.229 109.288 443.651 107.105 448.302 105.466C450.63 104.646 452.498 103.966 453.816 103.461C454.479 103.207 454.979 103.006 455.32 102.857C455.389 102.828 455.446 102.798 455.494 102.776C455.503 102.766 455.514 102.757 455.523 102.746C455.63 102.621 455.763 102.454 455.921 102.243C456.238 101.82 456.618 101.269 457.039 100.622C457.88 99.3289 458.834 97.7226 459.688 96.1309C461.121 93.4573 461.76 92.0467 462.068 90.7051C462.371 89.3861 462.391 87.9728 462.214 85.207C461.743 77.8549 458.284 72.0855 452.124 68.3076C449.756 66.8553 448.792 66.3441 447.299 66.0742C445.813 65.8057 443.801 65.7786 439.836 65.8457L438.013 65.8789C432.278 65.9947 411.573 67.2195 391.981 68.6074C372.419 69.9943 350.797 71.1357 343.95 71.1357C340.874 71.1357 338.605 71.1356 336.924 71.1699C336.192 71.1848 335.605 71.2087 335.134 71.2354C336.535 75.6935 337.396 78.803 337.773 81.3818C338.2 84.2996 338.007 86.4997 337.438 89.1367H337.438C335.662 97.3697 331.677 104.081 326.036 108.579C320.383 113.087 313.205 115.258 305.293 114.626C301.536 114.326 297.323 113.268 290.912 110.896C284.505 108.526 275.76 104.789 262.916 99.043C253.843 94.985 243.346 90.5568 239.592 89.1963L239.591 89.1953C234.276 87.2687 227.323 84.2442 221.706 81.5537C218.897 80.2083 216.381 78.9264 214.549 77.8906C213.642 77.3781 212.845 76.8937 212.252 76.4707C211.964 76.2655 211.647 76.0207 211.376 75.75C211.242 75.6163 211.057 75.4142 210.891 75.1523C210.766 74.9572 210.522 74.5298 210.463 73.9385L210.449 73.6758L210.455 73.4551C210.479 72.9348 210.591 72.376 210.836 71.8574C211.021 71.4652 211.774 70.1125 213.451 70.1123L213.661 70.1201C213.856 70.1358 214.002 70.1691 214.046 70.1787C214.149 70.2012 214.242 70.2268 214.312 70.2471C214.455 70.2883 214.61 70.34 214.762 70.3926C215.071 70.4998 215.475 70.6497 215.95 70.833C216.907 71.2018 218.237 71.7353 219.865 72.4004C223.126 73.7324 227.632 75.6132 232.845 77.8174C243.272 82.2264 256.558 87.9373 268.44 93.1484C296.532 105.468 300.918 106.894 307.428 106.894C313.685 106.894 318.028 105.148 322.526 100.831C325.33 98.1404 327.12 95.7618 328.234 93.2764C329.344 90.8036 329.859 88.0594 329.874 84.5303C329.907 76.9065 327.234 71.3205 321.448 66.7725L321.229 66.6064C320.037 65.7348 317.458 64.2529 314.019 62.4932C310.426 60.6553 306.093 58.613 301.889 56.8115C261.756 39.6158 254.678 36.6325 243.521 32.2061C226.712 25.5387 217.16 22.7092 201.658 19.7881C192.538 18.0702 182.7 17.0429 174.01 16.7666ZM10.0518 62.9189C9.64782 93.1806 9.64819 127.601 10.0479 139.41C10.4076 150.033 10.6012 155.259 10.9443 157.867C10.9779 158.122 11.0119 158.336 11.0439 158.517C11.2494 158.494 11.4922 158.469 11.7715 158.435C12.6371 158.329 13.816 158.173 15.2686 157.973C18.1715 157.572 22.1323 156.998 26.7959 156.306C36.1218 154.922 48.2343 153.07 60.2578 151.198C72.2813 149.326 84.211 147.435 93.1729 145.971C97.655 145.238 101.387 144.614 104.016 144.153C105.069 143.969 105.936 143.809 106.599 143.684C106.606 143.614 106.617 143.542 106.624 143.466C106.737 142.326 106.841 140.667 106.933 138.521C107.116 134.238 107.245 128.152 107.314 120.696C107.454 105.792 107.355 85.4932 106.983 63.3662C106.635 42.5746 106.419 31.511 106.081 25.5234C105.91 22.4893 105.714 20.9529 105.514 20.1553C105.512 20.1496 105.51 20.1442 105.509 20.1387C105.437 20.1259 105.359 20.112 105.274 20.0977C104.633 19.9892 103.717 19.8548 102.545 19.6982C100.206 19.3858 96.9239 18.9942 92.9326 18.5498C84.9543 17.6615 74.1896 16.5679 62.5674 15.4844C39.3041 13.3156 17.5133 11.2739 14.1504 10.9482L10.749 10.6191L10.0518 62.9189ZM73.3066 109.876C82.5525 109.876 87.4607 116.906 87.7207 123.74C87.8504 127.148 86.8538 130.666 84.5762 133.398C82.2584 136.179 78.7531 137.975 74.2559 138.093C69.9078 138.206 66.1254 136.958 63.4365 134.241C60.7601 131.537 59.4863 127.699 59.4863 123.261C59.4863 121.438 59.6499 119.835 60.3682 118.249C61.0667 116.707 62.1895 115.408 63.623 113.982C65.0869 112.527 66.3979 111.386 68.0098 110.698C69.6414 110.002 71.33 109.876 73.3066 109.876ZM78.2959 120.036C76.3736 118.125 74.1606 117.527 72.3135 117.827C70.4861 118.125 68.7608 119.337 67.8008 121.607C67.2432 122.926 67.1655 124.063 67.458 125.177C67.7653 126.346 68.5377 127.701 70.0449 129.301C70.8917 130.199 71.7465 130.587 72.6826 130.657C73.6918 130.733 75.0524 130.456 76.8594 129.527L77.2764 129.3C79.2928 128.139 80.2256 126.632 80.4385 125.237C80.6657 123.747 80.1484 121.878 78.2959 120.036Z" fill="#282828" stroke="black" stroke-width="5"/>
<path d="M6.74805 2.50977C7.21394 2.5095 9.14231 2.66578 11.8887 2.90234C14.7358 3.14759 18.6629 3.49835 23.3096 3.9209C32.6038 4.76608 44.7914 5.89972 57.0156 7.05176C79.8545 9.20414 103.023 11.4399 107.481 11.9736L108.118 12.0576L108.682 12.1504C109.25 12.2497 109.828 12.3716 110.344 12.5508C111.102 12.814 111.932 13.2676 112.548 14.1426C113.115 14.9485 113.309 15.8481 113.402 16.5859C113.473 17.1452 113.503 17.7856 113.52 18.4785L113.532 19.1875V19.1885C113.558 21.0883 113.811 23.9283 114.109 25.8652L114.239 26.6348L114.276 26.8369L118.21 24.5371L119.093 24.0264C128.288 18.7644 139.773 13.9708 149.721 11.2627C157.755 9.0747 168.784 8.52074 181.11 9.36523C193.479 10.2127 207.327 12.4818 221.077 16.0566C230.939 18.6209 246.452 24.5137 270.418 34.75C278.679 38.2795 287.605 41.9293 290.269 42.876C293.181 43.9111 304.168 48.9798 314.625 54.083L333.203 63.1504L345.519 63.1426L346.954 63.1309C354.737 63.0248 371.316 62.1841 385.226 61.168C400.089 60.0822 420.421 58.8965 430.424 58.5342C439.044 58.2216 443.785 58.0703 446.901 58.2832C449.854 58.4849 451.485 59.027 453.438 59.9248L454.299 60.3311C464.112 65.0556 470.344 75.0621 470.344 86.0303C470.344 98.4669 463.064 108.524 450.984 113.177C447.216 114.628 428.141 120.891 408.659 127.081C389.175 133.272 359.298 143.569 342.297 149.951C325.247 156.352 304.567 163.856 296.336 166.627C285.348 170.327 279.873 172.509 269.617 171.001C259.768 169.553 245.247 164.678 215.714 155.011L168.182 139.45L146.074 140.029C139.471 140.202 133.358 140.481 128.542 140.811C123.619 141.147 120.3 141.523 119.099 141.834H119.098C117.89 142.146 117.091 142.364 116.518 142.569C116.146 142.702 115.968 142.798 115.894 142.844C115.887 142.864 115.877 142.891 115.868 142.927C115.792 143.217 115.734 143.674 115.659 144.574V144.575C115.536 146.043 115.338 147.653 114.456 148.897C113.438 150.333 111.917 150.783 110.686 151.043C108.069 151.596 26.3087 164.314 12.6133 166.305H12.6123C10.8431 166.562 9.15405 166.741 7.8457 166.82C7.1994 166.859 6.59584 166.876 6.10254 166.858C5.86329 166.85 5.58019 166.831 5.30273 166.782C5.16521 166.758 4.9668 166.716 4.74902 166.639C4.57533 166.577 4.1449 166.41 3.74512 166.014L3.74219 166.011C3.28482 165.556 3.13559 165.041 3.12695 165.015C3.07843 164.869 3.05185 164.748 3.04004 164.688C3.01481 164.562 3.00132 164.449 2.99414 164.384C2.97834 164.241 2.96722 164.078 2.95801 163.921C2.93894 163.595 2.92089 163.145 2.9043 162.592C2.87091 161.478 2.83882 159.866 2.80859 157.817C2.74808 153.717 2.69419 147.826 2.64844 140.586C2.55692 126.104 2.5 106.201 2.5 84.373C2.5 46.9312 2.52415 27.054 2.75586 16.543C2.87078 11.3302 3.03801 8.27275 3.30762 6.5C3.43393 5.66954 3.62592 4.77963 4.05664 4.06152C4.30387 3.64942 4.67941 3.2075 5.24121 2.89453C5.80719 2.57925 6.35505 2.51029 6.74609 2.50977H6.74805ZM174.01 16.7646C165.245 16.486 157.9 16.981 153.639 18.1738C140.387 21.8847 128.6 27.1335 118.55 33.7686L114.197 36.6426L114.705 85.7861L114.82 95.9365C114.942 105.792 115.083 114.654 115.225 121.582C115.319 126.202 115.413 129.954 115.501 132.563C115.523 133.215 115.544 133.791 115.564 134.289C116.676 134.15 118.1 133.919 119.62 133.61H119.621C124.01 132.719 134.184 132.284 147.97 132.31C158.11 132.328 163.741 132.373 168.018 132.753C172.393 133.142 175.352 133.883 180.123 135.199L182.812 135.953C196.629 139.885 215.978 146.222 240.33 154.788C251.898 158.858 260.022 161.388 266.157 162.73C272.27 164.068 276.248 164.188 279.574 163.56C282.401 163.025 287.889 161.358 297.793 157.897C307.635 154.459 321.687 149.306 341.543 141.88C360.191 134.906 377.831 128.452 380.669 127.572L386.727 125.683C401.1 121.175 416.929 116.045 429.847 111.744C437.229 109.286 443.651 107.103 448.302 105.464C450.63 104.644 452.498 103.964 453.816 103.459C454.479 103.205 454.979 103.004 455.32 102.855C455.389 102.826 455.446 102.796 455.494 102.774C455.503 102.764 455.514 102.755 455.523 102.744C455.63 102.619 455.763 102.453 455.921 102.241C456.238 101.818 456.618 101.267 457.039 100.62C457.88 99.3269 458.834 97.7206 459.688 96.1289C461.121 93.4554 461.76 92.0448 462.068 90.7031C462.371 89.3841 462.391 87.9709 462.214 85.2051C461.743 77.8529 458.284 72.0836 452.124 68.3057C449.756 66.8534 448.792 66.3422 447.299 66.0723C445.813 65.8037 443.801 65.7767 439.836 65.8438L438.013 65.877C432.278 65.9927 411.573 67.2176 391.981 68.6055C372.419 69.9923 350.797 71.1338 343.95 71.1338C340.874 71.1338 338.605 71.1337 336.924 71.168C336.192 71.1829 335.605 71.2068 335.134 71.2334C336.535 75.6916 337.396 78.801 337.773 81.3799C338.2 84.2976 338.007 86.4977 337.438 89.1348H337.438C335.662 97.3677 331.677 104.079 326.036 108.577C320.383 113.085 313.205 115.256 305.293 114.624C301.536 114.324 297.323 113.266 290.912 110.895C284.505 108.524 275.76 104.787 262.916 99.041C253.843 94.9831 243.346 90.5548 239.592 89.1943L239.591 89.1934C234.276 87.2667 227.323 84.2423 221.706 81.5518C218.897 80.2064 216.381 78.9244 214.549 77.8887C213.642 77.3761 212.845 76.8918 212.252 76.4688C211.964 76.2636 211.647 76.0188 211.376 75.748C211.242 75.6143 211.057 75.4122 210.891 75.1504C210.766 74.9553 210.522 74.5278 210.463 73.9365L210.449 73.6738L210.455 73.4531C210.479 72.9328 210.591 72.3741 210.836 71.8555C211.021 71.4633 211.774 70.1106 213.451 70.1104L213.661 70.1182C213.856 70.1338 214.002 70.1672 214.046 70.1768C214.149 70.1992 214.242 70.2248 214.312 70.2451C214.455 70.2864 214.61 70.338 214.762 70.3906C215.071 70.4979 215.475 70.6478 215.95 70.8311C216.907 71.1998 218.237 71.7333 219.865 72.3984C223.126 73.7305 227.632 75.6113 232.845 77.8154C243.272 82.2244 256.558 87.9353 268.44 93.1465C296.532 105.466 300.918 106.892 307.428 106.892C313.685 106.892 318.028 105.146 322.526 100.829C325.33 98.1385 327.12 95.7599 328.234 93.2744C329.344 90.8016 329.859 88.0575 329.874 84.5283C329.907 76.9045 327.234 71.3186 321.448 66.7705L321.229 66.6045C320.037 65.7329 317.458 64.2509 314.019 62.4912C310.426 60.6533 306.093 58.611 301.889 56.8096C261.756 39.6138 254.678 36.6305 243.521 32.2041C226.712 25.5368 217.16 22.7072 201.658 19.7861C192.538 18.0682 182.7 17.0409 174.01 16.7646ZM10.0518 62.917C9.64782 93.1786 9.64819 127.599 10.0479 139.408C10.4076 150.031 10.6012 155.257 10.9443 157.865C10.9779 158.12 11.0119 158.334 11.0439 158.515C11.2494 158.492 11.4922 158.467 11.7715 158.433C12.6371 158.327 13.816 158.171 15.2686 157.971C18.1715 157.57 22.1323 156.996 26.7959 156.304C36.1218 154.92 48.2343 153.069 60.2578 151.196C72.2813 149.324 84.211 147.433 93.1729 145.969C97.655 145.237 101.387 144.612 104.016 144.151C105.069 143.967 105.936 143.808 106.599 143.682C106.606 143.612 106.617 143.54 106.624 143.464C106.737 142.324 106.841 140.665 106.933 138.519C107.116 134.236 107.245 128.15 107.314 120.694C107.454 105.79 107.355 85.4912 106.983 63.3643C106.635 42.5726 106.419 31.5091 106.081 25.5215C105.91 22.4873 105.714 20.951 105.514 20.1533C105.512 20.1477 105.51 20.1422 105.509 20.1367C105.437 20.1239 105.359 20.11 105.274 20.0957C104.633 19.9873 103.717 19.8529 102.545 19.6963C100.206 19.3839 96.9239 18.9922 92.9326 18.5479C84.9543 17.6596 74.1896 16.566 62.5674 15.4824C39.3041 13.3136 17.5133 11.2719 14.1504 10.9463L10.749 10.6172L10.0518 62.917ZM73.3066 109.874C82.5525 109.874 87.4607 116.904 87.7207 123.738C87.8504 127.146 86.8538 130.664 84.5762 133.396C82.2584 136.177 78.7531 137.973 74.2559 138.091C69.9078 138.204 66.1254 136.956 63.4365 134.239C60.7601 131.535 59.4863 127.697 59.4863 123.259C59.4863 121.436 59.6499 119.833 60.3682 118.247C61.0667 116.705 62.1895 115.406 63.623 113.98C65.0869 112.525 66.3979 111.384 68.0098 110.696C69.6414 110 71.33 109.874 73.3066 109.874ZM78.2959 120.034C76.3736 118.123 74.1606 117.525 72.3135 117.825C70.4861 118.123 68.7608 119.335 67.8008 121.605C67.2432 122.924 67.1655 124.061 67.458 125.175C67.7653 126.344 68.5377 127.699 70.0449 129.299C70.8917 130.197 71.7465 130.585 72.6826 130.655C73.6918 130.731 75.0524 130.454 76.8594 129.525L77.2764 129.298C79.2928 128.137 80.2256 126.63 80.4385 125.235C80.6657 123.745 80.1484 121.876 78.2959 120.034Z" fill="#282828" stroke="black" stroke-width="5"/>
<path d="M6.74805 2.50781C7.21394 2.50754 9.14231 2.66383 11.8887 2.90039C14.7358 3.14563 18.6629 3.4964 23.3096 3.91895C32.6038 4.76413 44.7914 5.89777 57.0156 7.0498C79.8545 9.20218 103.023 11.438 107.481 11.9717L108.118 12.0557L108.682 12.1484C109.25 12.2477 109.828 12.3697 110.344 12.5488C111.102 12.8121 111.932 13.2656 112.548 14.1406C113.115 14.9465 113.309 15.8461 113.402 16.584C113.473 17.1432 113.503 17.7837 113.52 18.4766L113.532 19.1855V19.1865C113.558 21.0864 113.811 23.9264 114.109 25.8633L114.239 26.6328L114.276 26.835L118.21 24.5352L119.093 24.0244C128.288 18.7625 139.773 13.9689 149.721 11.2607C157.755 9.07275 168.784 8.51879 181.11 9.36328C193.479 10.2107 207.327 12.4798 221.077 16.0547C230.939 18.6189 246.452 24.5117 270.418 34.748C278.679 38.2776 287.605 41.9274 290.269 42.874C293.181 43.9091 304.168 48.9778 314.625 54.0811L333.203 63.1484L345.519 63.1406L346.954 63.1289C354.737 63.0229 371.316 62.1821 385.226 61.166C400.089 60.0802 420.421 58.8946 430.424 58.5322C439.044 58.2196 443.785 58.0683 446.901 58.2812C449.854 58.4829 451.485 59.025 453.438 59.9229L454.299 60.3291C464.112 65.0536 470.344 75.0602 470.344 86.0283C470.344 98.465 463.064 108.522 450.984 113.175C447.216 114.626 428.141 120.889 408.659 127.079C389.175 133.27 359.298 143.567 342.297 149.949C325.247 156.35 304.567 163.854 296.336 166.625C285.348 170.325 279.873 172.507 269.617 170.999C259.768 169.551 245.247 164.676 215.714 155.009L168.182 139.448L146.074 140.027C139.471 140.2 133.358 140.479 128.542 140.809C123.619 141.145 120.3 141.521 119.099 141.832H119.098C117.89 142.144 117.091 142.362 116.518 142.567C116.146 142.7 115.968 142.796 115.894 142.842C115.887 142.862 115.877 142.889 115.868 142.925C115.792 143.215 115.734 143.672 115.659 144.572V144.573C115.536 146.041 115.338 147.651 114.456 148.896C113.438 150.331 111.917 150.781 110.686 151.041C108.069 151.594 26.3087 164.312 12.6133 166.303H12.6123C10.8431 166.56 9.15405 166.74 7.8457 166.818C7.1994 166.857 6.59584 166.874 6.10254 166.856C5.86329 166.848 5.58019 166.829 5.30273 166.78C5.16521 166.756 4.9668 166.714 4.74902 166.637C4.57533 166.575 4.1449 166.408 3.74512 166.012L3.74219 166.009C3.28482 165.554 3.13559 165.039 3.12695 165.013C3.07843 164.867 3.05185 164.746 3.04004 164.687C3.01481 164.56 3.00132 164.447 2.99414 164.382C2.97834 164.239 2.96722 164.076 2.95801 163.919C2.93894 163.593 2.92089 163.143 2.9043 162.59C2.87091 161.476 2.83882 159.864 2.80859 157.815C2.74808 153.715 2.69419 147.824 2.64844 140.584C2.55692 126.102 2.5 106.199 2.5 84.3711C2.5 46.9292 2.52415 27.052 2.75586 16.541C2.87078 11.3282 3.03801 8.2708 3.30762 6.49805C3.43393 5.66758 3.62592 4.77767 4.05664 4.05957C4.30387 3.64747 4.67941 3.20554 5.24121 2.89258C5.80719 2.5773 6.35505 2.50834 6.74609 2.50781H6.74805ZM174.01 16.7627C165.245 16.4841 157.9 16.979 153.639 18.1719C140.387 21.8828 128.6 27.1316 118.55 33.7666L114.197 36.6406L114.705 85.7842L114.82 95.9346C114.942 105.79 115.083 114.652 115.225 121.58C115.319 126.2 115.413 129.952 115.501 132.562C115.523 133.213 115.544 133.789 115.564 134.287C116.676 134.148 118.1 133.917 119.62 133.608H119.621C124.01 132.717 134.184 132.282 147.97 132.308C158.11 132.326 163.741 132.371 168.018 132.751C172.393 133.14 175.352 133.881 180.123 135.197L182.812 135.951C196.629 139.883 215.978 146.22 240.33 154.786C251.898 158.856 260.022 161.386 266.157 162.729C272.27 164.066 276.248 164.186 279.574 163.558C282.401 163.023 287.889 161.356 297.793 157.896C307.635 154.457 321.687 149.304 341.543 141.878C360.191 134.904 377.831 128.45 380.669 127.57L386.727 125.681C401.1 121.173 416.929 116.043 429.847 111.742C437.229 109.284 443.651 107.101 448.302 105.462C450.63 104.642 452.498 103.963 453.816 103.457C454.479 103.203 454.979 103.002 455.32 102.854C455.389 102.824 455.446 102.795 455.494 102.772C455.503 102.762 455.514 102.753 455.523 102.742C455.63 102.617 455.763 102.451 455.921 102.239C456.238 101.816 456.618 101.265 457.039 100.618C457.88 99.325 458.834 97.7187 459.688 96.127C461.121 93.4534 461.76 92.0428 462.068 90.7012C462.371 89.3821 462.391 87.9689 462.214 85.2031C461.743 77.851 458.284 72.0816 452.124 68.3037C449.756 66.8514 448.792 66.3402 447.299 66.0703C445.813 65.8018 443.801 65.7747 439.836 65.8418L438.013 65.875C432.278 65.9908 411.573 67.2156 391.981 68.6035C372.419 69.9904 350.797 71.1318 343.95 71.1318C340.874 71.1318 338.605 71.1317 336.924 71.166C336.192 71.1809 335.605 71.2048 335.134 71.2314C336.535 75.6896 337.396 78.799 337.773 81.3779C338.2 84.2956 338.007 86.4958 337.438 89.1328H337.438C335.662 97.3658 331.677 104.077 326.036 108.575C320.383 113.083 313.205 115.254 305.293 114.622C301.536 114.322 297.323 113.264 290.912 110.893C284.505 108.522 275.76 104.785 262.916 99.0391C253.843 94.9811 243.346 90.5529 239.592 89.1924L239.591 89.1914C234.276 87.2648 227.323 84.2403 221.706 81.5498C218.897 80.2044 216.381 78.9224 214.549 77.8867C213.642 77.3742 212.845 76.8898 212.252 76.4668C211.964 76.2616 211.647 76.0168 211.376 75.7461C211.242 75.6124 211.057 75.4103 210.891 75.1484C210.766 74.9533 210.522 74.5259 210.463 73.9346L210.449 73.6719L210.455 73.4512C210.479 72.9309 210.591 72.3721 210.836 71.8535C211.021 71.4613 211.774 70.1086 213.451 70.1084L213.661 70.1162C213.856 70.1319 214.002 70.1652 214.046 70.1748C214.149 70.1973 214.242 70.2229 214.312 70.2432C214.455 70.2844 214.61 70.3361 214.762 70.3887C215.071 70.4959 215.475 70.6458 215.95 70.8291C216.907 71.1979 218.237 71.7314 219.865 72.3965C223.126 73.7285 227.632 75.6093 232.845 77.8135C243.272 82.2225 256.558 87.9333 268.44 93.1445C296.532 105.464 300.918 106.89 307.428 106.89C313.685 106.89 318.028 105.145 322.526 100.827C325.33 98.1365 327.12 95.7579 328.234 93.2725C329.344 90.7997 329.859 88.0555 329.874 84.5264C329.907 76.9026 327.234 71.3166 321.448 66.7686L321.229 66.6025C320.037 65.7309 317.458 64.249 314.019 62.4893C310.426 60.6514 306.093 58.6091 301.889 56.8076C261.756 39.6119 254.678 36.6285 243.521 32.2021C226.712 25.5348 217.16 22.7053 201.658 19.7842C192.538 18.0663 182.7 17.039 174.01 16.7627ZM10.0518 62.915C9.64782 93.1766 9.64819 127.597 10.0479 139.406C10.4076 150.029 10.6012 155.255 10.9443 157.863C10.9779 158.118 11.0119 158.332 11.0439 158.513C11.2494 158.49 11.4922 158.465 11.7715 158.431C12.6371 158.325 13.816 158.169 15.2686 157.969C18.1715 157.568 22.1323 156.994 26.7959 156.302C36.1218 154.918 48.2343 153.067 60.2578 151.194C72.2813 149.322 84.211 147.431 93.1729 145.967C97.655 145.235 101.387 144.61 104.016 144.149C105.069 143.965 105.936 143.806 106.599 143.68C106.606 143.61 106.617 143.538 106.624 143.462C106.737 142.322 106.841 140.664 106.933 138.517C107.116 134.234 107.245 128.148 107.314 120.692C107.454 105.789 107.355 85.4893 106.983 63.3623C106.635 42.5707 106.419 31.5071 106.081 25.5195C105.91 22.4854 105.714 20.949 105.514 20.1514C105.512 20.1457 105.51 20.1403 105.509 20.1348C105.437 20.122 105.359 20.1081 105.274 20.0938C104.633 19.9853 103.717 19.8509 102.545 19.6943C100.206 19.3819 96.9239 18.9903 92.9326 18.5459C84.9543 17.6576 74.1896 16.564 62.5674 15.4805C39.3041 13.3116 17.5133 11.27 14.1504 10.9443L10.749 10.6152L10.0518 62.915ZM73.3066 109.872C82.5525 109.872 87.4607 116.902 87.7207 123.736C87.8504 127.144 86.8538 130.662 84.5762 133.395C82.2584 136.175 78.7531 137.972 74.2559 138.089C69.9078 138.202 66.1254 136.954 63.4365 134.237C60.7601 131.533 59.4863 127.695 59.4863 123.257C59.4863 121.434 59.6499 119.831 60.3682 118.245C61.0667 116.703 62.1895 115.404 63.623 113.979C65.0869 112.523 66.3979 111.382 68.0098 110.694C69.6414 109.998 71.33 109.872 73.3066 109.872ZM78.2959 120.032C76.3736 118.121 74.1606 117.523 72.3135 117.823C70.4861 118.121 68.7608 119.333 67.8008 121.604C67.2432 122.922 67.1655 124.059 67.458 125.173C67.7653 126.342 68.5377 127.697 70.0449 129.297C70.8917 130.195 71.7465 130.583 72.6826 130.653C73.6918 130.729 75.0524 130.452 76.8594 129.523L77.2764 129.296C79.2928 128.135 80.2256 126.628 80.4385 125.233C80.6657 123.743 80.1484 121.874 78.2959 120.032Z" fill="#282828" stroke="black" stroke-width="5"/>
<path d="M6.74805 2.50586C7.21394 2.50559 9.14231 2.66187 11.8887 2.89844C14.7358 3.14368 18.6629 3.49444 23.3096 3.91699C32.6038 4.76218 44.7914 5.89581 57.0156 7.04785C79.8545 9.20023 103.023 11.436 107.481 11.9697L108.118 12.0537L108.682 12.1465C109.25 12.2458 109.828 12.3677 110.344 12.5469C111.102 12.8101 111.932 13.2637 112.548 14.1387C113.115 14.9446 113.309 15.8442 113.402 16.582C113.473 17.1413 113.503 17.7817 113.52 18.4746L113.532 19.1836V19.1846C113.558 21.0844 113.811 23.9244 114.109 25.8613L114.239 26.6309L114.276 26.833L118.21 24.5332L119.093 24.0225C128.288 18.7605 139.773 13.9669 149.721 11.2588C157.755 9.0708 168.784 8.51684 181.11 9.36133C193.479 10.2088 207.327 12.4779 221.077 16.0527C230.939 18.617 246.452 24.5098 270.418 34.7461C278.679 38.2756 287.605 41.9254 290.269 42.8721C293.181 43.9072 304.168 48.9759 314.625 54.0791L333.203 63.1465L345.519 63.1387L346.954 63.127C354.737 63.0209 371.316 62.1801 385.226 61.1641C400.089 60.0783 420.421 58.8926 430.424 58.5303C439.044 58.2177 443.785 58.0664 446.901 58.2793C449.854 58.481 451.485 59.0231 453.438 59.9209L454.299 60.3271C464.112 65.0517 470.344 75.0582 470.344 86.0264C470.344 98.463 463.064 108.52 450.984 113.173C447.216 114.625 428.141 120.887 408.659 127.077C389.175 133.268 359.298 143.565 342.297 149.947C325.247 156.348 304.567 163.852 296.336 166.623C285.348 170.323 279.873 172.505 269.617 170.997C259.768 169.549 245.247 164.674 215.714 155.007L168.182 139.446L146.074 140.025C139.471 140.198 133.358 140.477 128.542 140.807C123.619 141.143 120.3 141.519 119.099 141.83H119.098C117.89 142.142 117.091 142.36 116.518 142.565C116.146 142.698 115.968 142.794 115.894 142.84C115.887 142.86 115.877 142.887 115.868 142.923C115.792 143.213 115.734 143.67 115.659 144.57V144.571C115.536 146.039 115.338 147.649 114.456 148.894C113.438 150.329 111.917 150.779 110.686 151.039C108.069 151.592 26.3087 164.31 12.6133 166.301H12.6123C10.8431 166.558 9.15405 166.738 7.8457 166.816C7.1994 166.855 6.59584 166.872 6.10254 166.854C5.86329 166.846 5.58019 166.827 5.30273 166.778C5.16521 166.754 4.9668 166.712 4.74902 166.635C4.57533 166.573 4.1449 166.406 3.74512 166.01L3.74219 166.007C3.28482 165.552 3.13559 165.037 3.12695 165.011C3.07843 164.865 3.05185 164.744 3.04004 164.685C3.01481 164.558 3.00132 164.445 2.99414 164.38C2.97834 164.237 2.96722 164.074 2.95801 163.917C2.93894 163.592 2.92089 163.141 2.9043 162.588C2.87091 161.474 2.83882 159.862 2.80859 157.813C2.74808 153.713 2.69419 147.822 2.64844 140.582C2.55692 126.1 2.5 106.197 2.5 84.3691C2.5 46.9273 2.52415 27.0501 2.75586 16.5391C2.87078 11.3263 3.03801 8.26884 3.30762 6.49609C3.43393 5.66563 3.62592 4.77572 4.05664 4.05762C4.30387 3.64551 4.67941 3.20359 5.24121 2.89062C5.80719 2.57534 6.35505 2.50638 6.74609 2.50586H6.74805ZM174.01 16.7607C165.245 16.4821 157.9 16.977 153.639 18.1699C140.387 21.8808 128.6 27.1296 118.55 33.7646L114.197 36.6387L114.705 85.7822L114.82 95.9326C114.942 105.788 115.083 114.65 115.225 121.578C115.319 126.198 115.413 129.95 115.501 132.56C115.523 133.211 115.544 133.787 115.564 134.285C116.676 134.146 118.1 133.915 119.62 133.606H119.621C124.01 132.715 134.184 132.28 147.97 132.306C158.11 132.324 163.741 132.369 168.018 132.749C172.393 133.138 175.352 133.879 180.123 135.195L182.812 135.949C196.629 139.881 215.978 146.218 240.33 154.784C251.898 158.854 260.022 161.384 266.157 162.727C272.27 164.064 276.248 164.184 279.574 163.556C282.401 163.021 287.889 161.354 297.793 157.894C307.635 154.455 321.687 149.302 341.543 141.876C360.191 134.902 377.831 128.448 380.669 127.568L386.727 125.679C401.1 121.171 416.929 116.041 429.847 111.74C437.229 109.282 443.651 107.099 448.302 105.46C450.63 104.64 452.498 103.961 453.816 103.455C454.479 103.201 454.979 103 455.32 102.852C455.389 102.822 455.446 102.793 455.494 102.771C455.503 102.761 455.514 102.751 455.523 102.74C455.63 102.616 455.763 102.449 455.921 102.237C456.238 101.814 456.618 101.263 457.039 100.616C457.88 99.323 458.834 97.7167 459.688 96.125C461.121 93.4515 461.76 92.0409 462.068 90.6992C462.371 89.3802 462.391 87.967 462.214 85.2012C461.743 77.849 458.284 72.0797 452.124 68.3018C449.756 66.8495 448.792 66.3383 447.299 66.0684C445.813 65.7998 443.801 65.7727 439.836 65.8398L438.013 65.873C432.278 65.9888 411.573 67.2137 391.981 68.6016C372.419 69.9884 350.797 71.1299 343.95 71.1299C340.874 71.1299 338.605 71.1298 336.924 71.1641C336.192 71.179 335.605 71.2029 335.134 71.2295C336.535 75.6877 337.396 78.7971 337.773 81.376C338.2 84.2937 338.007 86.4938 337.438 89.1309H337.438C335.662 97.3638 331.677 104.075 326.036 108.573C320.383 113.081 313.205 115.252 305.293 114.62C301.536 114.32 297.323 113.262 290.912 110.891C284.505 108.52 275.76 104.783 262.916 99.0371C253.843 94.9792 243.346 90.5509 239.592 89.1904L239.591 89.1895C234.276 87.2628 227.323 84.2384 221.706 81.5479C218.897 80.2025 216.381 78.9205 214.549 77.8848C213.642 77.3722 212.845 76.8879 212.252 76.4648C211.964 76.2597 211.647 76.0149 211.376 75.7441C211.242 75.6104 211.057 75.4083 210.891 75.1465C210.766 74.9514 210.522 74.5239 210.463 73.9326L210.449 73.6699L210.455 73.4492C210.479 72.9289 210.591 72.3702 210.836 71.8516C211.021 71.4594 211.774 70.1067 213.451 70.1064L213.661 70.1143C213.856 70.1299 214.002 70.1632 214.046 70.1729C214.149 70.1953 214.242 70.2209 214.312 70.2412C214.455 70.2825 214.61 70.3341 214.762 70.3867C215.071 70.494 215.475 70.6438 215.95 70.8271C216.907 71.1959 218.237 71.7294 219.865 72.3945C223.126 73.7266 227.632 75.6074 232.845 77.8115C243.272 82.2205 256.558 87.9314 268.44 93.1426C296.532 105.462 300.918 106.888 307.428 106.888C313.685 106.888 318.028 105.143 322.526 100.825C325.33 98.1346 327.12 95.7559 328.234 93.2705C329.344 90.7977 329.859 88.0536 329.874 84.5244C329.907 76.9006 327.234 71.3147 321.448 66.7666L321.229 66.6006C320.037 65.729 317.458 64.247 314.019 62.4873C310.426 60.6494 306.093 58.6071 301.889 56.8057C261.756 39.6099 254.678 36.6266 243.521 32.2002C226.712 25.5328 217.16 22.7033 201.658 19.7822C192.538 18.0643 182.7 17.037 174.01 16.7607ZM10.0518 62.9131C9.64782 93.1747 9.64819 127.595 10.0479 139.404C10.4076 150.027 10.6012 155.253 10.9443 157.861C10.9779 158.116 11.0119 158.331 11.0439 158.511C11.2494 158.488 11.4922 158.463 11.7715 158.429C12.6371 158.323 13.816 158.167 15.2686 157.967C18.1715 157.566 22.1323 156.992 26.7959 156.3C36.1218 154.916 48.2343 153.065 60.2578 151.192C72.2813 149.32 84.211 147.429 93.1729 145.965C97.655 145.233 101.387 144.608 104.016 144.147C105.069 143.963 105.936 143.804 106.599 143.678C106.606 143.608 106.617 143.536 106.624 143.46C106.737 142.32 106.841 140.662 106.933 138.515C107.116 134.232 107.245 128.146 107.314 120.69C107.454 105.787 107.355 85.4873 106.983 63.3604C106.635 42.5687 106.419 31.5052 106.081 25.5176C105.91 22.4834 105.714 20.9471 105.514 20.1494C105.512 20.1438 105.51 20.1383 105.509 20.1328C105.437 20.12 105.359 20.1061 105.274 20.0918C104.633 19.9833 103.717 19.849 102.545 19.6924C100.206 19.38 96.9239 18.9883 92.9326 18.5439C84.9543 17.6557 74.1896 16.5621 62.5674 15.4785C39.3041 13.3097 17.5133 11.268 14.1504 10.9424L10.749 10.6133L10.0518 62.9131ZM73.3066 109.87C82.5525 109.87 87.4607 116.9 87.7207 123.734C87.8504 127.142 86.8538 130.66 84.5762 133.393C82.2584 136.173 78.7531 137.97 74.2559 138.087C69.9078 138.2 66.1254 136.952 63.4365 134.235C60.7601 131.531 59.4863 127.693 59.4863 123.255C59.4863 121.432 59.6499 119.829 60.3682 118.243C61.0667 116.701 62.1895 115.402 63.623 113.977C65.0869 112.521 66.3979 111.38 68.0098 110.692C69.6414 109.996 71.33 109.87 73.3066 109.87ZM78.2959 120.03C76.3736 118.119 74.1606 117.521 72.3135 117.821C70.4861 118.119 68.7608 119.331 67.8008 121.602C67.2432 122.92 67.1655 124.057 67.458 125.171C67.7653 126.34 68.5377 127.695 70.0449 129.295C70.8917 130.193 71.7465 130.581 72.6826 130.651C73.6918 130.727 75.0524 130.45 76.8594 129.521L77.2764 129.294C79.2928 128.133 80.2256 126.626 80.4385 125.231C80.6657 123.741 80.1484 121.872 78.2959 120.03Z" fill="#282828" stroke="black" stroke-width="5"/>
<path d="M6.74805 2.50391C7.21394 2.50364 9.14231 2.65992 11.8887 2.89648C14.7358 3.14173 18.6629 3.49249 23.3096 3.91504C32.6038 4.76022 44.7914 5.89386 57.0156 7.0459C79.8545 9.19828 103.023 11.4341 107.481 11.9678L108.118 12.0518L108.682 12.1445C109.25 12.2438 109.828 12.3658 110.344 12.5449C111.102 12.8082 111.932 13.2617 112.548 14.1367C113.115 14.9426 113.309 15.8422 113.402 16.5801C113.473 17.1393 113.503 17.7798 113.52 18.4727L113.532 19.1816V19.1826C113.558 21.0825 113.811 23.9225 114.109 25.8594L114.239 26.6289L114.276 26.8311L118.21 24.5312L119.093 24.0205C128.288 18.7585 139.773 13.965 149.721 11.2568C157.755 9.06884 168.784 8.51488 181.11 9.35938C193.479 10.2068 207.327 12.4759 221.077 16.0508C230.939 18.615 246.452 24.5078 270.418 34.7441C278.679 38.2737 287.605 41.9235 290.269 42.8701C293.181 43.9052 304.168 48.9739 314.625 54.0771L333.203 63.1445L345.519 63.1367L346.954 63.125C354.737 63.019 371.316 62.1782 385.226 61.1621C400.089 60.0763 420.421 58.8907 430.424 58.5283C439.044 58.2157 443.785 58.0644 446.901 58.2773C449.854 58.479 451.485 59.0211 453.438 59.9189L454.299 60.3252C464.112 65.0497 470.344 75.0563 470.344 86.0244C470.344 98.4611 463.064 108.518 450.984 113.171C447.216 114.623 428.141 120.885 408.659 127.075C389.175 133.266 359.298 143.563 342.297 149.945C325.247 156.346 304.567 163.85 296.336 166.621C285.348 170.321 279.873 172.503 269.617 170.995C259.768 169.547 245.247 164.672 215.714 155.005L168.182 139.444L146.074 140.023C139.471 140.196 133.358 140.475 128.542 140.805C123.619 141.141 120.3 141.517 119.099 141.828H119.098C117.89 142.14 117.091 142.358 116.518 142.563C116.146 142.696 115.968 142.793 115.894 142.838C115.887 142.858 115.877 142.885 115.868 142.921C115.792 143.211 115.734 143.668 115.659 144.568V144.569C115.536 146.037 115.338 147.647 114.456 148.892C113.438 150.327 111.917 150.777 110.686 151.037C108.069 151.59 26.3087 164.308 12.6133 166.299H12.6123C10.8431 166.556 9.15405 166.736 7.8457 166.814C7.1994 166.853 6.59584 166.871 6.10254 166.853C5.86329 166.844 5.58019 166.825 5.30273 166.776C5.16521 166.752 4.9668 166.71 4.74902 166.633C4.57533 166.571 4.1449 166.404 3.74512 166.008L3.74219 166.005C3.28482 165.55 3.13559 165.035 3.12695 165.009C3.07843 164.863 3.05185 164.742 3.04004 164.683C3.01481 164.556 3.00132 164.443 2.99414 164.378C2.97834 164.235 2.96722 164.072 2.95801 163.915C2.93894 163.59 2.92089 163.139 2.9043 162.586C2.87091 161.472 2.83882 159.86 2.80859 157.812C2.74808 153.711 2.69419 147.82 2.64844 140.58C2.55692 126.098 2.5 106.195 2.5 84.3672C2.5 46.9253 2.52415 27.0481 2.75586 16.5371C2.87078 11.3243 3.03801 8.26689 3.30762 6.49414C3.43393 5.66368 3.62592 4.77377 4.05664 4.05566C4.30387 3.64356 4.67941 3.20164 5.24121 2.88867C5.80719 2.57339 6.35505 2.50443 6.74609 2.50391H6.74805ZM174.01 16.7588C165.245 16.4802 157.9 16.9751 153.639 18.168C140.387 21.8789 128.6 27.1277 118.55 33.7627L114.197 36.6367L114.705 85.7803L114.82 95.9307C114.942 105.786 115.083 114.648 115.225 121.576C115.319 126.196 115.413 129.948 115.501 132.558C115.523 133.209 115.544 133.785 115.564 134.283C116.676 134.144 118.1 133.913 119.62 133.604H119.621C124.01 132.713 134.184 132.278 147.97 132.304C158.11 132.323 163.741 132.367 168.018 132.747C172.393 133.136 175.352 133.877 180.123 135.193L182.812 135.947C196.629 139.879 215.978 146.216 240.33 154.782C251.898 158.852 260.022 161.382 266.157 162.725C272.27 164.062 276.248 164.182 279.574 163.554C282.401 163.019 287.889 161.352 297.793 157.892C307.635 154.453 321.687 149.3 341.543 141.874C360.191 134.9 377.831 128.446 380.669 127.566L386.727 125.677C401.1 121.169 416.929 116.039 429.847 111.738C437.229 109.28 443.651 107.097 448.302 105.458C450.63 104.638 452.498 103.959 453.816 103.453C454.479 103.199 454.979 102.998 455.32 102.85C455.389 102.82 455.446 102.791 455.494 102.769C455.503 102.759 455.514 102.749 455.523 102.738C455.63 102.614 455.763 102.447 455.921 102.235C456.238 101.812 456.618 101.261 457.039 100.614C457.88 99.3211 458.834 97.7148 459.688 96.123C461.121 93.4495 461.76 92.0389 462.068 90.6973C462.371 89.3782 462.391 87.965 462.214 85.1992C461.743 77.8471 458.284 72.0777 452.124 68.2998C449.756 66.8475 448.792 66.3363 447.299 66.0664C445.813 65.7979 443.801 65.7708 439.836 65.8379L438.013 65.8711C432.278 65.9869 411.573 67.2117 391.981 68.5996C372.419 69.9865 350.797 71.1279 343.95 71.1279C340.874 71.1279 338.605 71.1278 336.924 71.1621C336.192 71.177 335.605 71.2009 335.134 71.2275C336.535 75.6857 337.396 78.7951 337.773 81.374C338.2 84.2917 338.007 86.4918 337.438 89.1289H337.438C335.662 97.3619 331.677 104.073 326.036 108.571C320.383 113.079 313.205 115.25 305.293 114.618C301.536 114.318 297.323 113.26 290.912 110.889C284.505 108.518 275.76 104.781 262.916 99.0352C253.843 94.9772 243.346 90.549 239.592 89.1885L239.591 89.1875C234.276 87.2608 227.323 84.2364 221.706 81.5459C218.897 80.2005 216.381 78.9185 214.549 77.8828C213.642 77.3703 212.845 76.8859 212.252 76.4629C211.964 76.2577 211.647 76.0129 211.376 75.7422C211.242 75.6085 211.057 75.4064 210.891 75.1445C210.766 74.9494 210.522 74.522 210.463 73.9307L210.449 73.668L210.455 73.4473C210.479 72.927 210.591 72.3682 210.836 71.8496C211.021 71.4574 211.774 70.1047 213.451 70.1045L213.661 70.1123C213.856 70.128 214.002 70.1613 214.046 70.1709C214.149 70.1934 214.242 70.219 214.312 70.2393C214.455 70.2805 214.61 70.3322 214.762 70.3848C215.071 70.492 215.475 70.6419 215.95 70.8252C216.907 71.194 218.237 71.7275 219.865 72.3926C223.126 73.7246 227.632 75.6054 232.845 77.8096C243.272 82.2186 256.558 87.9294 268.44 93.1406C296.532 105.46 300.918 106.886 307.428 106.886C313.685 106.886 318.028 105.141 322.526 100.823C325.33 98.1326 327.12 95.754 328.234 93.2686C329.344 90.7958 329.859 88.0516 329.874 84.5225C329.907 76.8987 327.234 71.3127 321.448 66.7646L321.229 66.5986C320.037 65.727 317.458 64.2451 314.019 62.4854C310.426 60.6475 306.093 58.6052 301.889 56.8037C261.756 39.608 254.678 36.6246 243.521 32.1982C226.712 25.5309 217.16 22.7014 201.658 19.7803C192.538 18.0624 182.7 17.0351 174.01 16.7588ZM10.0518 62.9111C9.64782 93.1727 9.64819 127.593 10.0479 139.402C10.4076 150.025 10.6012 155.252 10.9443 157.859C10.9779 158.114 11.0119 158.329 11.0439 158.509C11.2494 158.486 11.4922 158.461 11.7715 158.427C12.6371 158.321 13.816 158.165 15.2686 157.965C18.1715 157.564 22.1323 156.99 26.7959 156.298C36.1218 154.914 48.2343 153.063 60.2578 151.19C72.2813 149.318 84.211 147.427 93.1729 145.963C97.655 145.231 101.387 144.606 104.016 144.146C105.069 143.961 105.936 143.802 106.599 143.676C106.606 143.606 106.617 143.534 106.624 143.458C106.737 142.319 106.841 140.66 106.933 138.513C107.116 134.23 107.245 128.144 107.314 120.688C107.454 105.785 107.355 85.4854 106.983 63.3584C106.635 42.5668 106.419 31.5032 106.081 25.5156C105.91 22.4815 105.714 20.9451 105.514 20.1475C105.512 20.1418 105.51 20.1364 105.509 20.1309C105.437 20.1181 105.359 20.1041 105.274 20.0898C104.633 19.9814 103.717 19.847 102.545 19.6904C100.206 19.378 96.9239 18.9864 92.9326 18.542C84.9543 17.6537 74.1896 16.5601 62.5674 15.4766C39.3041 13.3077 17.5133 11.2661 14.1504 10.9404L10.749 10.6113L10.0518 62.9111ZM73.3066 109.868C82.5525 109.868 87.4607 116.898 87.7207 123.732C87.8504 127.14 86.8538 130.658 84.5762 133.391C82.2584 136.171 78.7531 137.968 74.2559 138.085C69.9078 138.198 66.1254 136.95 63.4365 134.233C60.7601 131.529 59.4863 127.691 59.4863 123.253C59.4863 121.43 59.6499 119.827 60.3682 118.241C61.0667 116.699 62.1895 115.4 63.623 113.975C65.0869 112.519 66.3979 111.378 68.0098 110.69C69.6414 109.994 71.33 109.868 73.3066 109.868ZM78.2959 120.028C76.3736 118.117 74.1606 117.519 72.3135 117.819C70.4861 118.117 68.7608 119.329 67.8008 121.6C67.2432 122.918 67.1655 124.055 67.458 125.169C67.7653 126.338 68.5377 127.693 70.0449 129.293C70.8917 130.192 71.7465 130.579 72.6826 130.649C73.6918 130.725 75.0524 130.449 76.8594 129.52L77.2764 129.292C79.2928 128.132 80.2256 126.624 80.4385 125.229C80.6657 123.739 80.1484 121.87 78.2959 120.028Z" fill="#282828" stroke="black" stroke-width="5"/>
<path d="M6.74805 2.50195C7.21394 2.50168 9.14231 2.65797 11.8887 2.89453C14.7358 3.13977 18.6629 3.49054 23.3096 3.91309C32.6038 4.75827 44.7914 5.89191 57.0156 7.04395C79.8545 9.19632 103.023 11.4321 107.481 11.9658L108.118 12.0498L108.682 12.1426C109.25 12.2418 109.828 12.3638 110.344 12.543C111.102 12.8062 111.932 13.2598 112.548 14.1348C113.115 14.9407 113.309 15.8403 113.402 16.5781C113.473 17.1374 113.503 17.7778 113.52 18.4707L113.532 19.1797V19.1807C113.558 21.0805 113.811 23.9205 114.109 25.8574L114.239 26.627L114.276 26.8291L118.21 24.5293L119.093 24.0186C128.288 18.7566 139.773 13.963 149.721 11.2549C157.755 9.06689 168.784 8.51293 181.11 9.35742C193.479 10.2049 207.327 12.474 221.077 16.0488C230.939 18.6131 246.452 24.5059 270.418 34.7422C278.679 38.2717 287.605 41.9215 290.269 42.8682C293.181 43.9033 304.168 48.972 314.625 54.0752L333.203 63.1426L345.519 63.1348L346.954 63.123C354.737 63.017 371.316 62.1762 385.226 61.1602C400.089 60.0743 420.421 58.8887 430.424 58.5264C439.044 58.2138 443.785 58.0625 446.901 58.2754C449.854 58.4771 451.485 59.0192 453.438 59.917L454.299 60.3232C464.112 65.0478 470.344 75.0543 470.344 86.0225C470.344 98.4591 463.064 108.516 450.984 113.169C447.216 114.621 428.141 120.883 408.659 127.073C389.175 133.264 359.298 143.561 342.297 149.943C325.247 156.344 304.567 163.848 296.336 166.619C285.348 170.319 279.873 172.501 269.617 170.993C259.768 169.545 245.247 164.67 215.714 155.003L168.182 139.442L146.074 140.021C139.471 140.194 133.358 140.473 128.542 140.803C123.619 141.139 120.3 141.516 119.099 141.826H119.098C117.89 142.138 117.091 142.356 116.518 142.562C116.146 142.695 115.968 142.791 115.894 142.836C115.887 142.856 115.877 142.883 115.868 142.919C115.792 143.209 115.734 143.666 115.659 144.566V144.567C115.536 146.035 115.338 147.645 114.456 148.89C113.438 150.325 111.917 150.775 110.686 151.035C108.069 151.588 26.3087 164.306 12.6133 166.297H12.6123C10.8431 166.554 9.15405 166.734 7.8457 166.812C7.1994 166.851 6.59584 166.869 6.10254 166.851C5.86329 166.842 5.58019 166.823 5.30273 166.774C5.16521 166.75 4.9668 166.708 4.74902 166.631C4.57533 166.569 4.1449 166.402 3.74512 166.006L3.74219 166.003C3.28482 165.548 3.13559 165.033 3.12695 165.007C3.07843 164.861 3.05185 164.74 3.04004 164.681C3.01481 164.554 3.00132 164.441 2.99414 164.376C2.97834 164.233 2.96722 164.07 2.95801 163.913C2.93894 163.588 2.92089 163.137 2.9043 162.584C2.87091 161.47 2.83882 159.858 2.80859 157.81C2.74808 153.709 2.69419 147.818 2.64844 140.578C2.55692 126.096 2.5 106.194 2.5 84.3652C2.5 46.9234 2.52415 27.0462 2.75586 16.5352C2.87078 11.3224 3.03801 8.26494 3.30762 6.49219C3.43393 5.66172 3.62592 4.77181 4.05664 4.05371C4.30387 3.64161 4.67941 3.19968 5.24121 2.88672C5.80719 2.57144 6.35505 2.50248 6.74609 2.50195H6.74805ZM174.01 16.7568C165.245 16.4782 157.9 16.9731 153.639 18.166C140.387 21.8769 128.6 27.1257 118.55 33.7607L114.197 36.6348L114.705 85.7783L114.82 95.9287C114.942 105.784 115.083 114.646 115.225 121.574C115.319 126.194 115.413 129.946 115.501 132.556C115.523 133.207 115.544 133.783 115.564 134.281C116.676 134.142 118.1 133.911 119.62 133.603H119.621C124.01 132.711 134.184 132.276 147.97 132.302C158.11 132.321 163.741 132.365 168.018 132.745C172.393 133.134 175.352 133.875 180.123 135.191L182.812 135.945C196.629 139.877 215.978 146.214 240.33 154.78C251.898 158.85 260.022 161.38 266.157 162.723C272.27 164.06 276.248 164.18 279.574 163.552C282.401 163.017 287.889 161.35 297.793 157.89C307.635 154.451 321.687 149.298 341.543 141.872C360.191 134.898 377.831 128.444 380.669 127.564L386.727 125.675C401.1 121.167 416.929 116.037 429.847 111.736C437.229 109.278 443.651 107.095 448.302 105.456C450.63 104.636 452.498 103.957 453.816 103.451C454.479 103.197 454.979 102.996 455.32 102.848C455.389 102.818 455.446 102.789 455.494 102.767C455.503 102.757 455.514 102.747 455.523 102.736C455.63 102.612 455.763 102.445 455.921 102.233C456.238 101.81 456.618 101.259 457.039 100.612C457.88 99.3191 458.834 97.7128 459.688 96.1211C461.121 93.4476 461.76 92.037 462.068 90.6953C462.371 89.3763 462.391 87.9631 462.214 85.1973C461.743 77.8451 458.284 72.0758 452.124 68.2979C449.756 66.8455 448.792 66.3343 447.299 66.0645C445.813 65.7959 443.801 65.7688 439.836 65.8359L438.013 65.8691C432.278 65.9849 411.573 67.2098 391.981 68.5977C372.419 69.9845 350.797 71.126 343.95 71.126C340.874 71.126 338.605 71.1259 336.924 71.1602C336.192 71.1751 335.605 71.199 335.134 71.2256C336.535 75.6838 337.396 78.7932 337.773 81.3721C338.2 84.2898 338.007 86.4899 337.438 89.127H337.438C335.662 97.3599 331.677 104.071 326.036 108.569C320.383 113.077 313.205 115.248 305.293 114.616C301.536 114.316 297.323 113.259 290.912 110.887C284.505 108.516 275.76 104.779 262.916 99.0332C253.843 94.9752 243.346 90.547 239.592 89.1865L239.591 89.1855C234.276 87.2589 227.323 84.2345 221.706 81.5439C218.897 80.1986 216.381 78.9166 214.549 77.8809C213.642 77.3683 212.845 76.884 212.252 76.4609C211.964 76.2558 211.647 76.011 211.376 75.7402C211.242 75.6065 211.057 75.4044 210.891 75.1426C210.766 74.9474 210.522 74.52 210.463 73.9287L210.449 73.666L210.455 73.4453C210.479 72.925 210.591 72.3663 210.836 71.8477C211.021 71.4555 211.774 70.1028 213.451 70.1025L213.661 70.1104C213.856 70.126 214.002 70.1593 214.046 70.1689C214.149 70.1914 214.242 70.217 214.312 70.2373C214.455 70.2786 214.61 70.3302 214.762 70.3828C215.071 70.4901 215.475 70.6399 215.95 70.8232C216.907 71.192 218.237 71.7255 219.865 72.3906C223.126 73.7227 227.632 75.6035 232.845 77.8076C243.272 82.2166 256.558 87.9275 268.44 93.1387C296.532 105.458 300.918 106.884 307.428 106.884C313.685 106.884 318.028 105.139 322.526 100.821C325.33 98.1307 327.12 95.752 328.234 93.2666C329.344 90.7938 329.859 88.0497 329.874 84.5205C329.907 76.8967 327.234 71.3108 321.448 66.7627L321.229 66.5967C320.037 65.7251 317.458 64.2431 314.019 62.4834C310.426 60.6455 306.093 58.6032 301.889 56.8018C261.756 39.606 254.678 36.6227 243.521 32.1963C226.712 25.5289 217.16 22.6994 201.658 19.7783C192.538 18.0604 182.7 17.0331 174.01 16.7568ZM10.0518 62.9092C9.64782 93.1708 9.64819 127.591 10.0479 139.4C10.4076 150.023 10.6012 155.25 10.9443 157.857C10.9779 158.112 11.0119 158.327 11.0439 158.507C11.2494 158.484 11.4922 158.459 11.7715 158.425C12.6371 158.319 13.816 158.163 15.2686 157.963C18.1715 157.562 22.1323 156.988 26.7959 156.296C36.1218 154.912 48.2343 153.061 60.2578 151.188C72.2813 149.316 84.211 147.425 93.1729 145.961C97.655 145.229 101.387 144.604 104.016 144.144C105.069 143.959 105.936 143.8 106.599 143.674C106.606 143.604 106.617 143.532 106.624 143.456C106.737 142.317 106.841 140.658 106.933 138.511C107.116 134.228 107.245 128.142 107.314 120.687C107.454 105.783 107.355 85.4834 106.983 63.3564C106.635 42.5648 106.419 31.5013 106.081 25.5137C105.91 22.4795 105.714 20.9432 105.514 20.1455C105.512 20.1398 105.51 20.1344 105.509 20.1289C105.437 20.1161 105.359 20.1022 105.274 20.0879C104.633 19.9794 103.717 19.8451 102.545 19.6885C100.206 19.3761 96.9239 18.9844 92.9326 18.54C84.9543 17.6518 74.1896 16.5581 62.5674 15.4746C39.3041 13.3058 17.5133 11.2641 14.1504 10.9385L10.749 10.6094L10.0518 62.9092ZM73.3066 109.866C82.5525 109.866 87.4607 116.896 87.7207 123.73C87.8504 127.138 86.8538 130.656 84.5762 133.389C82.2584 136.169 78.7531 137.966 74.2559 138.083C69.9078 138.196 66.1254 136.949 63.4365 134.231C60.7601 131.527 59.4863 127.689 59.4863 123.251C59.4863 121.428 59.6499 119.825 60.3682 118.239C61.0667 116.697 62.1895 115.398 63.623 113.973C65.0869 112.517 66.3979 111.376 68.0098 110.688C69.6414 109.992 71.33 109.866 73.3066 109.866ZM78.2959 120.026C76.3736 118.115 74.1606 117.517 72.3135 117.817C70.4861 118.115 68.7608 119.328 67.8008 121.598C67.2432 122.916 67.1655 124.053 67.458 125.167C67.7653 126.336 68.5377 127.691 70.0449 129.291C70.8917 130.19 71.7465 130.577 72.6826 130.647C73.6918 130.723 75.0524 130.447 76.8594 129.518L77.2764 129.29C79.2928 128.13 80.2256 126.622 80.4385 125.228C80.6657 123.737 80.1484 121.868 78.2959 120.026Z" fill="#282828" stroke="black" stroke-width="5"/>
<path d="M6.74805 2.5C7.21394 2.49973 9.14231 2.65602 11.8887 2.89258C14.7358 3.13782 18.6629 3.48859 23.3096 3.91113C32.6038 4.75632 44.7914 5.88995 57.0156 7.04199C79.8545 9.19437 103.023 11.4302 107.481 11.9639L108.118 12.0479L108.682 12.1406C109.25 12.2399 109.828 12.3619 110.344 12.541C111.102 12.8043 111.932 13.2578 112.548 14.1328C113.115 14.9387 113.309 15.8383 113.402 16.5762C113.473 17.1354 113.503 17.7759 113.52 18.4688L113.532 19.1777V19.1787C113.558 21.0786 113.811 23.9186 114.109 25.8555L114.239 26.625L114.276 26.8271L118.21 24.5273L119.093 24.0166C128.288 18.7546 139.773 13.9611 149.721 11.2529C157.755 9.06494 168.784 8.51098 181.11 9.35547C193.479 10.2029 207.327 12.472 221.077 16.0469C230.939 18.6111 246.452 24.5039 270.418 34.7402C278.679 38.2698 287.605 41.9195 290.269 42.8662C293.181 43.9013 304.168 48.97 314.625 54.0732L333.203 63.1406L345.519 63.1328L346.954 63.1211C354.737 63.0151 371.316 62.1743 385.226 61.1582C400.089 60.0724 420.421 58.8868 430.424 58.5244C439.044 58.2118 443.785 58.0605 446.901 58.2734C449.854 58.4751 451.485 59.0172 453.438 59.915L454.299 60.3213C464.112 65.0458 470.344 75.0524 470.344 86.0205C470.344 98.4572 463.064 108.514 450.984 113.167C447.216 114.619 428.141 120.881 408.659 127.071C389.175 133.262 359.298 143.559 342.297 149.941C325.247 156.342 304.567 163.846 296.336 166.617C285.348 170.317 279.873 172.499 269.617 170.991C259.768 169.543 245.247 164.668 215.714 155.001L168.182 139.44L146.074 140.02C139.471 140.192 133.358 140.471 128.542 140.801C123.619 141.137 120.3 141.514 119.099 141.824H119.098C117.89 142.136 117.091 142.354 116.518 142.56C116.146 142.693 115.968 142.789 115.894 142.834C115.887 142.854 115.877 142.881 115.868 142.917C115.792 143.207 115.734 143.664 115.659 144.564V144.565C115.536 146.033 115.338 147.643 114.456 148.888C113.438 150.323 111.917 150.773 110.686 151.033C108.069 151.586 26.3087 164.304 12.6133 166.295H12.6123C10.8431 166.552 9.15405 166.732 7.8457 166.811C7.1994 166.849 6.59584 166.867 6.10254 166.849C5.86329 166.84 5.58019 166.821 5.30273 166.772C5.16521 166.748 4.9668 166.707 4.74902 166.629C4.57533 166.567 4.1449 166.4 3.74512 166.004L3.74219 166.001C3.28482 165.546 3.13559 165.031 3.12695 165.005C3.07843 164.859 3.05185 164.738 3.04004 164.679C3.01481 164.552 3.00132 164.439 2.99414 164.374C2.97834 164.231 2.96722 164.068 2.95801 163.911C2.93894 163.586 2.92089 163.135 2.9043 162.582C2.87091 161.468 2.83882 159.856 2.80859 157.808C2.74808 153.707 2.69419 147.816 2.64844 140.576C2.55692 126.094 2.5 106.192 2.5 84.3633C2.5 46.9214 2.52415 27.0442 2.75586 16.5332C2.87078 11.3204 3.03801 8.26298 3.30762 6.49023C3.43393 5.65977 3.62592 4.76986 4.05664 4.05176C4.30387 3.63965 4.67941 3.19773 5.24121 2.88477C5.80719 2.56949 6.35505 2.50053 6.74609 2.5H6.74805ZM174.01 16.7549C165.245 16.4763 157.9 16.9712 153.639 18.1641C140.387 21.8749 128.6 27.1238 118.55 33.7588L114.197 36.6328L114.705 85.7764L114.82 95.9268C114.942 105.782 115.083 114.644 115.225 121.572C115.319 126.192 115.413 129.944 115.501 132.554C115.523 133.205 115.544 133.781 115.564 134.279C116.676 134.14 118.1 133.91 119.62 133.601H119.621C124.01 132.71 134.184 132.274 147.97 132.3C158.11 132.319 163.741 132.363 168.018 132.743C172.393 133.132 175.352 133.873 180.123 135.189L182.812 135.943C196.629 139.875 215.978 146.212 240.33 154.778C251.898 158.848 260.022 161.378 266.157 162.721C272.27 164.058 276.248 164.178 279.574 163.55C282.401 163.016 287.889 161.348 297.793 157.888C307.635 154.449 321.687 149.296 341.543 141.87C360.191 134.896 377.831 128.442 380.669 127.562L386.727 125.673C401.1 121.165 416.929 116.035 429.847 111.734C437.229 109.277 443.651 107.093 448.302 105.454C450.63 104.634 452.498 103.955 453.816 103.449C454.479 103.195 454.979 102.994 455.32 102.846C455.389 102.816 455.446 102.787 455.494 102.765C455.503 102.755 455.514 102.746 455.523 102.734C455.63 102.61 455.763 102.443 455.921 102.231C456.238 101.808 456.618 101.257 457.039 100.61C457.88 99.3172 458.834 97.7109 459.688 96.1191C461.121 93.4456 461.76 92.035 462.068 90.6934C462.371 89.3743 462.391 87.9611 462.214 85.1953C461.743 77.8432 458.284 72.0738 452.124 68.2959C449.756 66.8436 448.792 66.3324 447.299 66.0625C445.813 65.794 443.801 65.7669 439.836 65.834L438.013 65.8672C432.278 65.983 411.573 67.2078 391.981 68.5957C372.419 69.9826 350.797 71.124 343.95 71.124C340.874 71.124 338.605 71.1239 336.924 71.1582C336.192 71.1731 335.605 71.197 335.134 71.2236C336.535 75.6818 337.396 78.7912 337.773 81.3701C338.2 84.2878 338.007 86.4879 337.438 89.125H337.438C335.662 97.358 331.677 104.069 326.036 108.567C320.383 113.075 313.205 115.246 305.293 114.614C301.536 114.314 297.323 113.257 290.912 110.885C284.505 108.514 275.76 104.777 262.916 99.0312C253.843 94.9733 243.346 90.5451 239.592 89.1846L239.591 89.1836C234.276 87.2569 227.323 84.2325 221.706 81.542C218.897 80.1966 216.381 78.9146 214.549 77.8789C213.642 77.3663 212.845 76.882 212.252 76.459C211.964 76.2538 211.647 76.009 211.376 75.7383C211.242 75.6046 211.057 75.4025 210.891 75.1406C210.766 74.9455 210.522 74.518 210.463 73.9268L210.449 73.6641L210.455 73.4434C210.479 72.9231 210.591 72.3643 210.836 71.8457C211.021 71.4535 211.774 70.1008 213.451 70.1006L213.661 70.1084C213.856 70.1241 214.002 70.1574 214.046 70.167C214.149 70.1895 214.242 70.215 214.312 70.2354C214.455 70.2766 214.61 70.3282 214.762 70.3809C215.071 70.4881 215.475 70.638 215.95 70.8213C216.907 71.1901 218.237 71.7236 219.865 72.3887C223.126 73.7207 227.632 75.6015 232.845 77.8057C243.272 82.2147 256.558 87.9255 268.44 93.1367C296.532 105.457 300.918 106.882 307.428 106.882C313.685 106.882 318.028 105.137 322.526 100.819C325.33 98.1287 327.12 95.7501 328.234 93.2646C329.344 90.7919 329.859 88.0477 329.874 84.5186C329.907 76.8948 327.234 71.3088 321.448 66.7607L321.229 66.5947C320.037 65.7231 317.458 64.2412 314.019 62.4814C310.426 60.6436 306.093 58.6013 301.889 56.7998C261.756 39.604 254.678 36.6207 243.521 32.1943C226.712 25.527 217.16 22.6974 201.658 19.7764C192.538 18.0585 182.7 17.0312 174.01 16.7549ZM10.0518 62.9072C9.64782 93.1688 9.64819 127.589 10.0479 139.398C10.4076 150.021 10.6012 155.248 10.9443 157.855C10.9779 158.11 11.0119 158.325 11.0439 158.505C11.2494 158.482 11.4922 158.457 11.7715 158.423C12.6371 158.317 13.816 158.161 15.2686 157.961C18.1715 157.56 22.1323 156.986 26.7959 156.294C36.1218 154.91 48.2343 153.059 60.2578 151.187C72.2813 149.314 84.211 147.423 93.1729 145.959C97.655 145.227 101.387 144.602 104.016 144.142C105.069 143.957 105.936 143.798 106.599 143.672C106.606 143.602 106.617 143.53 106.624 143.454C106.737 142.315 106.841 140.656 106.933 138.509C107.116 134.226 107.245 128.14 107.314 120.685C107.454 105.781 107.355 85.4815 106.983 63.3545C106.635 42.5629 106.419 31.4993 106.081 25.5117C105.91 22.4776 105.714 20.9412 105.514 20.1436C105.512 20.1379 105.51 20.1325 105.509 20.127C105.437 20.1142 105.359 20.1002 105.274 20.0859C104.633 19.9775 103.717 19.8431 102.545 19.6865C100.206 19.3741 96.9239 18.9825 92.9326 18.5381C84.9543 17.6498 74.1896 16.5562 62.5674 15.4727C39.3041 13.3038 17.5133 11.2621 14.1504 10.9365L10.749 10.6074L10.0518 62.9072ZM73.3066 109.864C82.5525 109.864 87.4607 116.894 87.7207 123.729C87.8504 127.136 86.8538 130.654 84.5762 133.387C82.2584 136.168 78.7531 137.964 74.2559 138.081C69.9078 138.194 66.1254 136.947 63.4365 134.229C60.7601 131.525 59.4863 127.687 59.4863 123.249C59.4863 121.426 59.6499 119.823 60.3682 118.237C61.0667 116.695 62.1895 115.396 63.623 113.971C65.0869 112.515 66.3979 111.374 68.0098 110.687C69.6414 109.99 71.33 109.864 73.3066 109.864ZM78.2959 120.024C76.3736 118.113 74.1606 117.515 72.3135 117.815C70.4861 118.113 68.7608 119.326 67.8008 121.596C67.2432 122.914 67.1655 124.052 67.458 125.165C67.7653 126.334 68.5377 127.689 70.0449 129.289C70.8917 130.188 71.7465 130.575 72.6826 130.646C73.6918 130.721 75.0524 130.445 76.8594 129.516L77.2764 129.288C79.2928 128.128 80.2256 126.62 80.4385 125.226C80.6657 123.736 80.1484 121.866 78.2959 120.024Z" fill="#282828" stroke="black" stroke-width="5"/>
<path d="M111.917 138.941C112.121 139.072 112.308 139.153 112.44 139.202C112.439 139.203 112.439 139.204 112.438 139.205C112.223 139.406 112.038 139.619 111.875 139.84C111.889 139.549 111.904 139.249 111.917 138.941ZM330.646 67.4551C330.385 67.6961 330.15 67.9923 329.973 68.3613C329.453 67.6557 328.891 66.9703 328.287 66.3037L330.646 67.4551Z" fill="#282828"/>
<path d="M111.917 138.941C112.121 139.072 112.308 139.153 112.44 139.202C112.439 139.203 112.439 139.204 112.438 139.205C112.223 139.406 112.038 139.619 111.875 139.84C111.889 139.549 111.904 139.249 111.917 138.941ZM330.646 67.4551C330.385 67.6961 330.15 67.9923 329.973 68.3613C329.453 67.6557 328.891 66.9703 328.287 66.3037L330.646 67.4551Z" stroke="black" stroke-width="5"/>
<path d="M111.917 138.941C112.121 139.072 112.308 139.153 112.44 139.202C112.439 139.203 112.439 139.204 112.438 139.205C112.223 139.406 112.038 139.619 111.875 139.84C111.889 139.549 111.904 139.249 111.917 138.941ZM330.646 67.4551C330.385 67.6961 330.15 67.9923 329.973 68.3613C329.453 67.6557 328.891 66.9703 328.287 66.3037L330.646 67.4551Z" stroke="black" stroke-opacity="0.2" stroke-width="5"/>
</svg>
