<?xml version="1.0" encoding="UTF-8"?>
<!DOCTYPE svg PUBLIC "-//W3C//DTD SVG 1.1//EN" "http://www.w3.org/Graphics/SVG/1.1/DTD/svg11.dtd">
<!-- Creator: CorelDRAW 2018 -->
<svg xmlns="http://www.w3.org/2000/svg" xml:space="preserve" width="697px" height="119px" version="1.1" shape-rendering="geometricPrecision" text-rendering="geometricPrecision" image-rendering="optimizeQuality" fill-rule="evenodd" clip-rule="evenodd"
viewBox="0 0 697 119"
 xmlns:xlink="http://www.w3.org/1999/xlink">
 <g id="Layer_x0020_1">
  <metadata id="CorelCorpID_0Corel-Layer"/>
  <g id="_1141817824">
   <circle fill="black" cx="59.7" cy="59.5" r="59.75"/>
   <path fill="#6A6E71" fill-rule="nonzero" d="M150.26 60.44c3.28,-0.68 6.17,-2.97 6.17,-6.85 0,-4.25 -3.65,-6.17 -8.66,-6.17l-7.61 0 -3.89 27.61 7.61 0c9.06,0 11.95,-3.97 11.95,-8.82 0,-3.89 -2.73,-5.25 -5.57,-5.77zm-2.37 -10.02c2.49,0 4.69,0.6 4.69,3.29 0,3.81 -2.92,5.41 -6.25,5.41l-4.05 0 1.2 -8.7 4.41 0zm-3.85 21.56l-3.56 0 1.4 -9.94 4.57 0c3,0 5.45,0.93 5.45,4.09 0,3.33 -1.64,5.85 -7.86,5.85z"/>
   <path id="1" fill="#6A6E71" fill-rule="nonzero" d="M165.9 75.51c2.92,0 5.01,-1.68 6.97,-4.37l-0.28 3.89 3.13 0 2.96 -21.12 -3.64 0 -1.93 13.74c-1.64,2.45 -3.76,4.97 -6.41,4.97 -1.84,0 -2.6,-1 -2.2,-3.88l2.08 -14.83 -3.64 0 -2.12 14.99c-0.6,4.12 1.36,6.61 5.08,6.61z"/>
   <path id="2" fill="#6A6E71" fill-rule="nonzero" d="M194.3 47.94c1,0 2.2,0.16 3.45,1l1.4 -2.45c-1.57,-0.96 -2.93,-1.52 -4.97,-1.52 -4.17,0 -6.69,2.41 -7.17,5.93l-0.45 3.01 -3.72 0 -0.4 2.84 3.72 0 -2.4 17.12c-0.64,4.52 -2.41,5.65 -5.29,6.93l1.04 2.76c4.69,-2 7.05,-3.72 7.9,-9.69l2.4 -17.12 4.69 0 0.8 -2.84 -5.09 0 0.4 -2.81c0.28,-2.04 1.32,-3.16 3.69,-3.16z"/>
   <path id="3" fill="#6A6E71" fill-rule="nonzero" d="M207.48 47.94c1,0 2.21,0.16 3.45,1l1.4 -2.45c-1.56,-0.96 -2.92,-1.52 -4.97,-1.52 -4.17,0 -6.69,2.41 -7.17,5.93l-0.44 3.01 -3.73 0 -0.4 2.84 3.73 0 -2.41 17.12c-0.64,4.52 -2.4,5.65 -5.29,6.93l1.05 2.76c4.68,-2 7.05,-3.72 7.89,-9.69l2.41 -17.12 4.68 0 0.8 -2.84 -5.08 0 0.4 -2.81c0.28,-2.04 1.32,-3.16 3.68,-3.16z"/>
   <path id="4" fill="#6A6E71" fill-rule="nonzero" d="M220.23 53.43c-8.22,0 -11.26,8.21 -11.26,13.98 0,4.85 2.4,8.1 6.73,8.1 2.48,0 4.65,-1.4 6.29,-3.53 0.28,2.29 1.6,3.25 3.73,3.53l1.04 -2.52c-1.32,-0.53 -1.48,-1.29 -1.28,-2.77l2.16 -14.99c-2.4,-1.16 -4.69,-1.8 -7.41,-1.8zm0.08 2.92c1.4,0 2.32,0.2 3.44,0.68l-1.64 11.67c-1.64,2.2 -3.28,3.88 -5.65,3.88 -2.24,0 -3.57,-1.6 -3.57,-5.13 0,-4.73 2.05,-11.1 7.42,-11.1z"/>
   <path id="5" fill="#6A6E71" fill-rule="nonzero" d="M239.75 44.97l-3.69 0.44 -3.51 24.89c-0.49,3.49 0.99,5.21 3.79,5.21 0.92,0 1.84,-0.2 2.92,-0.68l-0.76 -2.65c-0.48,0.16 -0.96,0.28 -1.44,0.28 -0.88,0 -1.08,-0.44 -0.96,-1.56l3.65 -25.93z"/>
   <path id="6" fill="#6A6E71" fill-rule="nonzero" d="M251.29 75.51c8.29,0 10.9,-8.26 10.9,-13.35 0,-5.37 -2.81,-8.73 -8.06,-8.73 -8.25,0 -10.94,8.13 -10.94,13.34 0,5.37 2.85,8.74 8.1,8.74zm0.12 -2.97c-2.85,0 -4.37,-1.68 -4.37,-5.37 0,-4.04 1.48,-10.78 6.97,-10.78 2.81,0 4.33,1.69 4.33,5.37 0,4.05 -1.44,10.78 -6.93,10.78z"/>
   <path id="7" fill="#6A6E71" fill-rule="nonzero" d="M288.12 47.42l-7.1 0 -3.88 27.61 3.76 0 1.41 -10.14 3.56 0c8.82,0 11.86,-5.05 11.86,-10.18 0,-4.97 -3.6,-7.29 -9.61,-7.29zm-2.17 14.46l-3.2 0 1.6 -11.5 3.48 0c3.61,0 5.9,1.08 5.9,4.33 0,3.57 -1.53,7.17 -7.78,7.17z"/>
   <path id="8" fill="#6A6E71" fill-rule="nonzero" d="M312.16 53.43c-2.92,0 -5.21,1.8 -6.97,4.45l1.84 -12.83 -3.68 0.4 -4.17 29.58 3.64 0 1.73 -12.67c1.68,-3 4.05,-5.85 6.85,-5.85 1.52,0 2.52,0.8 2.12,3.77l-2.08 14.75 3.64 0 2.11 -14.95c0.56,-4.09 -1.35,-6.65 -5.03,-6.65z"/>
   <path id="9" fill="#6A6E71" fill-rule="nonzero" d="M328.11 48.78c1.57,0 2.77,-1.16 2.77,-2.73 0,-1.28 -0.92,-2.28 -2.37,-2.28 -1.56,0 -2.76,1.16 -2.76,2.72 0,1.29 0.92,2.29 2.36,2.29zm0.96 5.13l-3.64 0 -2.97 21.12 3.65 0 2.96 -21.12z"/>
   <path id="10" fill="#6A6E71" fill-rule="nonzero" d="M341.34 44.97l-3.69 0.44 -3.51 24.89c-0.48,3.49 0.99,5.21 3.79,5.21 0.92,0 1.85,-0.2 2.93,-0.68l-0.76 -2.65c-0.49,0.16 -0.97,0.28 -1.45,0.28 -0.88,0 -1.08,-0.44 -0.96,-1.56l3.65 -25.93z"/>
   <path id="11" fill="#6A6E71" fill-rule="nonzero" d="M358.17 53.43c-2.93,0 -5.21,1.8 -6.97,4.45l1.84 -12.83 -3.69 0.4 -4.17 29.58 3.65 0 1.73 -12.67c1.68,-3 4.04,-5.85 6.85,-5.85 1.52,0 2.52,0.8 2.12,3.77l-2.08 14.75 3.64 0 2.11 -14.95c0.56,-4.09 -1.36,-6.65 -5.03,-6.65z"/>
   <path id="12" fill="#6A6E71" fill-rule="nonzero" d="M379.45 53.43c-8.22,0 -11.26,8.21 -11.26,13.98 0,4.85 2.4,8.1 6.73,8.1 2.49,0 4.65,-1.4 6.29,-3.53 0.28,2.29 1.61,3.25 3.73,3.53l1.04 -2.52c-1.32,-0.53 -1.48,-1.29 -1.28,-2.77l2.16 -14.99c-2.4,-1.16 -4.69,-1.8 -7.41,-1.8zm0.08 2.92c1.4,0 2.32,0.2 3.45,0.68l-1.65 11.67c-1.64,2.2 -3.28,3.88 -5.65,3.88 -2.24,0 -3.56,-1.6 -3.56,-5.13 0,-4.73 2.04,-11.1 7.41,-11.1z"/>
   <path id="13" fill="#6A6E71" fill-rule="nonzero" d="M403.25 53.43c-2.32,0 -4.52,1.52 -6.13,4.81l0.24 -4.33 -3.12 0 -2.97 21.12 3.65 0 1.6 -11.18c1.48,-4.29 3.33,-6.78 6.05,-6.78 0.68,0 1.13,0.04 1.73,0.21l1.08 -3.57c-0.64,-0.16 -1.36,-0.28 -2.13,-0.28z"/>
   <path id="14" fill="#6A6E71" fill-rule="nonzero" d="M430.74 53.43c-2.64,0 -4.85,1.52 -6.93,4.29 -0.36,-2.81 -2.33,-4.29 -4.61,-4.29 -2.81,0 -4.97,1.8 -6.89,4.53l0.32 -4.05 -3.13 0 -2.97 21.12 3.65 0 1.73 -12.67c1.68,-3 3.72,-5.85 5.97,-5.85 1.48,0 2.64,0.6 2.2,3.77l-2.08 14.75 3.64 0 1.81 -12.75c1.68,-2.96 3.72,-5.77 5.97,-5.77 1.48,0 2.64,0.6 2.2,3.77l-2.08 14.75 3.64 0 2.12 -15.03c0.56,-4.01 -1.4,-6.57 -4.56,-6.57z"/>
   <path id="15" fill="#6A6E71" fill-rule="nonzero" d="M448.42 75.51c8.3,0 10.9,-8.26 10.9,-13.35 0,-5.37 -2.8,-8.73 -8.05,-8.73 -8.26,0 -10.95,8.13 -10.95,13.34 0,5.37 2.85,8.74 8.1,8.74zm0.12 -2.97c-2.84,0 -4.37,-1.68 -4.37,-5.37 0,-4.04 1.49,-10.78 6.98,-10.78 2.8,0 4.32,1.69 4.32,5.37 0,4.05 -1.44,10.78 -6.93,10.78z"/>
   <path id="16" fill="#6A6E71" fill-rule="nonzero" d="M476.8 53.43c-3.05,0 -5.38,1.84 -7.34,4.61l0.32 -4.13 -3.12 0 -2.97 21.12 3.65 0 1.76 -12.67c1.68,-3 4.01,-5.85 6.69,-5.85 1.61,0 2.64,0.8 2.25,3.77l-2.09 14.75 3.64 0 2.07 -14.83c0.6,-4.21 -1.36,-6.77 -4.86,-6.77z"/>
   <path id="17" fill="#6A6E71" fill-rule="nonzero" d="M492.58 48.78c1.57,0 2.77,-1.16 2.77,-2.73 0,-1.28 -0.92,-2.28 -2.36,-2.28 -1.57,0 -2.77,1.16 -2.77,2.72 0,1.29 0.92,2.29 2.36,2.29zm0.97 5.13l-3.65 0 -2.97 21.12 3.65 0 2.97 -21.12z"/>
   <path id="18" fill="#6A6E71" fill-rule="nonzero" d="M508.62 53.43c-7.82,0 -10.71,7.93 -10.71,13.46 0,5.41 2.89,8.62 7.9,8.62 2.32,0 4.53,-0.72 6.61,-2.2l-1.48 -2.57c-1.68,1.04 -3.05,1.64 -4.89,1.64 -2.68,0 -4.29,-1.52 -4.29,-5.21 0,-4.36 1.56,-10.7 6.9,-10.7 1.64,0 2.84,0.44 4.12,1.57l1.97 -2.29c-1.73,-1.64 -3.77,-2.32 -6.13,-2.32z"/>
   <path id="19" fill="#6A6E71" fill-rule="nonzero" d="M541.24 46.93c-10.22,0 -13.67,10.42 -13.67,17.48 0,7.21 3.89,11.1 9.9,11.1 10.18,0 13.62,-10.06 13.62,-17.35 0,-7.3 -3.84,-11.23 -9.85,-11.23zm-0.16 3.13c3.84,0 6.09,2.29 6.09,7.82 0,5.61 -2.01,14.5 -9.58,14.5 -3.69,0 -6.09,-2.16 -6.09,-7.85 0,-5.65 2.08,-14.47 9.58,-14.47z"/>
   <path id="20" fill="#6A6E71" fill-rule="nonzero" d="M566.88 53.43c-2.32,0 -4.52,1.52 -6.13,4.81l0.24 -4.33 -3.12 0 -2.97 21.12 3.65 0 1.6 -11.18c1.48,-4.29 3.33,-6.78 6.05,-6.78 0.68,0 1.13,0.04 1.73,0.21l1.08 -3.57c-0.64,-0.16 -1.36,-0.28 -2.13,-0.28z"/>
   <path id="21" fill="#6A6E71" fill-rule="nonzero" d="M579.47 53.43c-7.82,0 -10.7,7.93 -10.7,13.46 0,5.41 2.88,8.62 7.89,8.62 2.33,0 4.53,-0.72 6.62,-2.2l-1.49 -2.57c-1.68,1.04 -3.04,1.64 -4.89,1.64 -2.68,0 -4.28,-1.52 -4.28,-5.21 0,-4.36 1.56,-10.7 6.89,-10.7 1.64,0 2.84,0.44 4.13,1.57l1.96 -2.29c-1.72,-1.64 -3.77,-2.32 -6.13,-2.32z"/>
   <path id="22" fill="#6A6E71" fill-rule="nonzero" d="M600.87 53.43c-2.93,0 -5.21,1.8 -6.97,4.45l1.84 -12.83 -3.69 0.4 -4.17 29.58 3.65 0 1.73 -12.67c1.68,-3 4.04,-5.85 6.85,-5.85 1.52,0 2.52,0.8 2.12,3.77l-2.08 14.75 3.64 0 2.11 -14.95c0.56,-4.09 -1.36,-6.65 -5.03,-6.65z"/>
   <path id="23" fill="#6A6E71" fill-rule="nonzero" d="M628.52 58.8c0,-2.81 -2.2,-5.37 -6.69,-5.37 -8.02,0 -10.86,7.73 -10.86,13.5 0,5.33 2.88,8.58 8.05,8.58 2.81,0 5.29,-0.92 7.58,-2.57l-1.56 -2.48c-1.93,1.36 -3.69,1.96 -5.66,1.96 -2.68,0 -4.48,-1.4 -4.56,-5.25 7.37,-0.8 13.7,-2.44 13.7,-8.37zm-13.5 5.57c0.52,-3.85 2.36,-8.02 6.77,-8.02 2.28,0 2.89,1.57 2.89,2.57 0,3.61 -3.61,4.77 -9.66,5.45z"/>
   <path id="24" fill="#6A6E71" fill-rule="nonzero" d="M640.14 53.43c-5.49,0 -7.97,3.2 -7.97,6.01 0,2.88 1.6,4.53 5.65,5.77 3.37,1.04 4.45,1.76 4.45,3.89 0,1.4 -1.04,3.44 -4.77,3.44 -2.37,0 -4.33,-0.88 -5.89,-2.2l-2.09 2.12c1.65,1.61 4.13,3.05 7.82,3.05 4.41,0 8.78,-2.08 8.78,-6.77 0,-3.33 -2.01,-5.09 -5.98,-6.34 -2.84,-0.88 -4.24,-1.52 -4.24,-3.2 0,-1.77 1.64,-2.85 4.2,-2.85 1.85,0 3.61,0.64 5.17,1.89l1.81 -2.21c-1.81,-1.6 -4.01,-2.6 -6.94,-2.6z"/>
   <path id="25" fill="#6A6E71" fill-rule="nonzero" d="M656.78 56.75l4.56 0 0.81 -2.84 -4.97 0 0.72 -5.21 -2.89 0.32 -1.31 4.89 -3.8 0 -0.4 2.84 3.63 0 -1.75 12.63c-0.56,3.93 1.36,6.13 4.99,6.13 1.61,0 3.17,-0.44 4.69,-1.4l-1.2 -2.57c-1.12,0.56 -2,0.88 -3.04,0.88 -1.57,0 -2.13,-0.84 -1.81,-2.96l1.77 -12.71z"/>
   <path id="26" fill="#6A6E71" fill-rule="nonzero" d="M676.57 53.43c-2.32,0 -4.53,1.52 -6.13,4.81l0.24 -4.33 -3.12 0 -2.97 21.12 3.65 0 1.6 -11.18c1.48,-4.29 3.33,-6.78 6.05,-6.78 0.68,0 1.12,0.04 1.73,0.21l1.08 -3.57c-0.64,-0.16 -1.37,-0.28 -2.13,-0.28z"/>
   <path id="27" fill="#6A6E71" fill-rule="nonzero" d="M689.64 53.43c-8.22,0 -11.26,8.21 -11.26,13.98 0,4.85 2.4,8.1 6.73,8.1 2.48,0 4.65,-1.4 6.29,-3.53 0.28,2.29 1.6,3.25 3.73,3.53l1.04 -2.52c-1.32,-0.53 -1.48,-1.29 -1.28,-2.77l2.16 -14.99c-2.4,-1.16 -4.69,-1.8 -7.41,-1.8zm0.08 2.92c1.4,0 2.32,0.2 3.44,0.68l-1.64 11.67c-1.64,2.2 -3.28,3.88 -5.65,3.88 -2.24,0 -3.57,-1.6 -3.57,-5.13 0,-4.73 2.05,-11.1 7.42,-11.1z"/>
   <g>
    <path fill="#FEFEFE" fill-rule="nonzero" d="M70.38 67.9c-4.79,0 -8.68,-3.89 -8.68,-8.68 0,-4.78 3.89,-8.67 8.68,-8.67 4.78,0 8.67,3.89 8.67,8.67 0,4.79 -3.89,8.68 -8.67,8.68zm-23.07 -11.19l-4.62 0c-0.28,0 -0.55,-0.23 -0.55,-0.55l0 -5.05c0,-0.32 0.27,-0.54 0.55,-0.54l4.57 0c2.48,0 4.02,1.09 4.02,3.06 0,1.79 -1.54,3.08 -3.97,3.08zm-23.4 11.24l-4.95 0c-0.27,0 -0.5,-0.22 -0.5,-0.5l0 -5.07c0,-0.32 0.23,-0.55 0.5,-0.55l5.13 0c3.03,0 3.67,1.5 3.67,3.08 0,1.57 -1.42,3.04 -3.85,3.04zm-5.45 -16.93c0.05,-0.23 0.23,-0.45 0.5,-0.45l3.03 0c1.97,0 3.2,1.03 3.2,2.43 0,1.55 -1.19,2.33 -2.93,2.42l-3.3 0c-0.27,0 -0.5,-0.27 -0.5,-0.54l0 -3.86zm51.92 -8.03c-4.78,0 -9.09,2.08 -12.06,5.38 -1.65,-3.15 -4.79,-5.31 -8.31,-5.31l-14.38 0c-0.45,0 -0.77,0.36 -0.77,0.78l0 17.72c-0.78,-1.73 -2.11,-3.19 -3.76,-4.12 -0.41,-0.23 -0.5,-0.69 -0.18,-1.1 1,-1.24 1.64,-2.71 1.64,-4.35l0 -0.37c0,-4.44 -3.52,-8.56 -9.02,-8.56l-11.63 0c-0.5,0 -0.78,0.41 -0.78,0.78l0 30.77c0,0.41 0.33,0.78 0.78,0.78l14.2 0c4.04,-0.14 7.34,-2.61 8.75,-6.17l0 5.39c0,0.46 0.32,0.78 0.77,0.78l5.73 0c0.46,0 0.78,-0.32 0.78,-0.78l0 -9.94c0,-0.27 0.27,-0.5 0.55,-0.5l6.86 0c1.86,0 3.55,-0.48 5.01,-1.33 1.65,7.22 8.11,12.62 15.82,12.62 8.95,0 16.23,-7.29 16.23,-16.24 0,-8.95 -7.28,-16.23 -16.23,-16.23z"/>
    <path fill="#98CB57" fill-rule="nonzero" d="M68.82 59.83c-0.32,-0.85 0.11,-1.8 0.96,-2.12 0.85,-0.31 1.8,0.12 2.12,0.97 0.32,0.85 -0.11,1.79 -0.96,2.11 -0.85,0.32 -1.8,-0.11 -2.12,-0.96z"/>
    <path fill="#98CB57" fill-rule="nonzero" d="M101.98 50.29c-0.7,0.57 -1.74,0.47 -2.31,-0.24 -0.57,-0.7 -0.46,-1.74 0.24,-2.31 0.7,-0.57 1.74,-0.47 2.31,0.24 0.57,0.7 0.47,1.74 -0.24,2.31z"/>
    <path fill="#98CB57" fill-rule="nonzero" d="M93.72 65.62c-0.9,0.14 -1.74,-0.47 -1.89,-1.36 -0.14,-0.9 0.47,-1.74 1.37,-1.89 0.89,-0.14 1.74,0.47 1.88,1.37 0.14,0.89 -0.47,1.73 -1.36,1.88z"/>
    <path fill="#98CB57" fill-rule="nonzero" d="M93.17 51.23c-0.66,0.63 -1.7,0.61 -2.32,-0.05 -0.63,-0.66 -0.61,-1.7 0.05,-2.32 0.66,-0.63 1.7,-0.61 2.32,0.05 0.63,0.66 0.61,1.7 -0.05,2.32z"/>
    <path fill="#98CB57" fill-rule="nonzero" d="M85.04 40.07c-0.21,0.89 -1.1,1.43 -1.98,1.23 -0.88,-0.21 -1.43,-1.09 -1.22,-1.98 0.2,-0.88 1.09,-1.43 1.97,-1.22 0.88,0.2 1.43,1.09 1.23,1.97z"/>
    <path fill="#98CB57" fill-rule="nonzero" d="M91.28 42.89c-0.88,-0.24 -1.39,-1.14 -1.15,-2.02 0.24,-0.88 1.14,-1.39 2.01,-1.15 0.88,0.24 1.4,1.14 1.16,2.01 -0.24,0.88 -1.14,1.4 -2.02,1.16z"/>
    <path fill="#98CB57" fill-rule="nonzero" d="M74.22 85.61c0.64,-0.64 1.68,-0.64 2.32,0.01 0.65,0.64 0.64,1.68 0,2.32 -0.64,0.64 -1.68,0.64 -2.32,0 -0.64,-0.65 -0.64,-1.69 0,-2.33z"/>
    <path fill="#98CB57" fill-rule="nonzero" d="M93.55 88.46c-0.8,-0.43 -1.09,-1.43 -0.66,-2.23 0.44,-0.79 1.43,-1.09 2.23,-0.65 0.8,0.43 1.09,1.43 0.66,2.23 -0.44,0.79 -1.43,1.09 -2.23,0.65z"/>
    <path fill="#98CB57" fill-rule="nonzero" d="M105.55 71.56c-0.9,0.06 -1.68,-0.62 -1.74,-1.53 -0.06,-0.9 0.62,-1.69 1.53,-1.75 0.9,-0.06 1.69,0.63 1.75,1.54 0.06,0.9 -0.63,1.68 -1.54,1.74z"/>
    <path fill="#98CB57" fill-rule="nonzero" d="M87.49 26.2c-0.07,0.91 -0.86,1.58 -1.77,1.51 -0.9,-0.07 -1.58,-0.86 -1.51,-1.77 0.07,-0.9 0.86,-1.58 1.77,-1.51 0.9,0.08 1.58,0.87 1.51,1.77z"/>
    <path fill="#98CB57" fill-rule="nonzero" d="M71.95 77.69c0.32,0.85 -0.11,1.8 -0.96,2.12 -0.85,0.31 -1.8,-0.12 -2.12,-0.97 -0.32,-0.85 0.12,-1.79 0.97,-2.11 0.85,-0.32 1.79,0.11 2.11,0.96z"/>
    <path fill="#98CB57" fill-rule="nonzero" d="M83.08 72.73c0.78,0.47 1.03,1.48 0.57,2.26 -0.47,0.77 -1.48,1.03 -2.26,0.56 -0.78,-0.47 -1.03,-1.48 -0.56,-2.26 0.47,-0.77 1.48,-1.03 2.25,-0.56z"/>
    <path fill="#326AB2" fill-rule="nonzero" d="M101.07 71.06c-0.91,0.03 -1.67,-0.67 -1.71,-1.58 -0.03,-0.91 0.67,-1.67 1.58,-1.71 0.9,-0.03 1.67,0.67 1.7,1.58 0.04,0.91 -0.66,1.67 -1.57,1.71z"/>
    <path fill="#326AB2" fill-rule="nonzero" d="M103.2 60.8c-0.85,0.32 -1.8,-0.11 -2.12,-0.96 -0.32,-0.85 0.11,-1.79 0.96,-2.12 0.85,-0.31 1.8,0.11 2.12,0.96 0.32,0.85 -0.11,1.8 -0.96,2.12z"/>
    <path fill="#326AB2" fill-rule="nonzero" d="M97.71 41.05c-0.5,0.76 -1.52,0.98 -2.28,0.48 -0.76,-0.49 -0.97,-1.51 -0.48,-2.27 0.49,-0.76 1.51,-0.98 2.27,-0.48 0.76,0.49 0.98,1.51 0.49,2.27z"/>
    <path fill="#326AB2" fill-rule="nonzero" d="M82.11 28.59c0.03,0.9 -0.67,1.67 -1.58,1.71 -0.91,0.03 -1.67,-0.67 -1.71,-1.58 -0.03,-0.91 0.67,-1.67 1.58,-1.71 0.91,-0.03 1.67,0.67 1.71,1.58z"/>
    <path fill="#326AB2" fill-rule="nonzero" d="M74.23 91.95c-0.45,-0.79 -0.18,-1.79 0.6,-2.25 0.79,-0.45 1.8,-0.18 2.25,0.61 0.45,0.78 0.18,1.79 -0.61,2.24 -0.78,0.45 -1.79,0.18 -2.24,-0.6z"/>
    <path fill="#326AB2" fill-rule="nonzero" d="M89.57 74c-0.88,-0.21 -1.43,-1.09 -1.22,-1.98 0.21,-0.88 1.09,-1.43 1.97,-1.22 0.89,0.21 1.43,1.09 1.22,1.98 -0.2,0.88 -1.09,1.43 -1.97,1.22z"/>
    <path fill="#326AB2" fill-rule="nonzero" d="M94.5 60.84c-0.85,0.32 -1.8,-0.11 -2.11,-0.96 -0.32,-0.85 0.11,-1.8 0.95,-2.12 0.85,-0.32 1.8,0.11 2.12,0.96 0.32,0.85 -0.11,1.8 -0.96,2.12z"/>
    <path fill="#326AB2" fill-rule="nonzero" d="M81.08 37.61c-0.03,0.91 -0.8,1.62 -1.7,1.58 -0.91,-0.03 -1.62,-0.79 -1.58,-1.7 0.03,-0.91 0.79,-1.62 1.7,-1.58 0.91,0.03 1.61,0.8 1.58,1.7z"/>
    <path fill="#326AB2" fill-rule="nonzero" d="M71.89 35.16c0.32,0.85 -0.11,1.79 -0.96,2.11 -0.85,0.32 -1.79,-0.11 -2.11,-0.95 -0.32,-0.85 0.1,-1.8 0.95,-2.12 0.85,-0.32 1.8,0.11 2.12,0.96z"/>
    <path fill="#326AB2" fill-rule="nonzero" d="M95.59 50.9c-0.74,-0.52 -0.92,-1.54 -0.4,-2.29 0.52,-0.74 1.55,-0.92 2.29,-0.4 0.74,0.52 0.92,1.54 0.4,2.29 -0.52,0.74 -1.54,0.92 -2.29,0.4z"/>
    <path fill="#326AB2" fill-rule="nonzero" d="M90.12 77.1c0.08,-0.91 0.88,-1.57 1.79,-1.48 0.9,0.08 1.56,0.88 1.48,1.79 -0.09,0.9 -0.89,1.56 -1.79,1.48 -0.91,-0.09 -1.57,-0.89 -1.48,-1.79z"/>
    <path fill="#326AB2" fill-rule="nonzero" d="M80.82 43.87c0.29,-0.86 1.22,-1.33 2.08,-1.04 0.86,0.29 1.33,1.22 1.04,2.08 -0.29,0.86 -1.22,1.33 -2.08,1.04 -0.86,-0.29 -1.33,-1.22 -1.04,-2.08z"/>
    <path fill="#326AB2" fill-rule="nonzero" d="M90.12 77.1c0.08,-0.91 0.88,-1.57 1.79,-1.48 0.9,0.08 1.56,0.88 1.48,1.79 -0.09,0.9 -0.89,1.56 -1.79,1.48 -0.91,-0.09 -1.57,-0.89 -1.48,-1.79z"/>
    <path fill="#F68D41" fill-rule="nonzero" d="M82.66 80.14c-0.74,-0.53 -0.92,-1.55 -0.4,-2.29 0.53,-0.75 1.55,-0.92 2.29,-0.4 0.74,0.52 0.92,1.55 0.4,2.29 -0.52,0.74 -1.55,0.92 -2.29,0.4z"/>
    <path fill="#F68D41" fill-rule="nonzero" d="M96.67 55.45c-0.64,-0.65 -0.64,-1.69 0.01,-2.33 0.64,-0.64 1.68,-0.63 2.32,0.01 0.64,0.64 0.64,1.68 0,2.32 -0.65,0.64 -1.69,0.64 -2.33,0z"/>
    <path fill="#F68D41" fill-rule="nonzero" d="M88.19 39.57c-0.91,-0.08 -1.57,-0.89 -1.48,-1.79 0.09,-0.9 0.89,-1.56 1.79,-1.48 0.91,0.09 1.57,0.89 1.48,1.8 -0.09,0.9 -0.89,1.56 -1.79,1.47z"/>
    <path fill="#F68D41" fill-rule="nonzero" d="M76.06 33.32c-0.83,0.38 -1.8,0.01 -2.17,-0.82 -0.38,-0.83 -0.01,-1.8 0.82,-2.17 0.83,-0.38 1.8,-0.01 2.17,0.82 0.38,0.83 0.01,1.8 -0.82,2.17z"/>
    <path fill="#F68D41" fill-rule="nonzero" d="M69.41 85.87c0.75,-0.51 1.77,-0.32 2.28,0.42 0.52,0.75 0.33,1.77 -0.42,2.29 -0.75,0.51 -1.77,0.33 -2.28,-0.42 -0.52,-0.75 -0.33,-1.77 0.42,-2.29z"/>
    <path fill="#F68D41" fill-rule="nonzero" d="M88.73 61.98c0.9,-0.12 1.73,0.52 1.84,1.42 0.12,0.9 -0.52,1.72 -1.42,1.84 -0.9,0.11 -1.72,-0.53 -1.84,-1.42 -0.11,-0.91 0.52,-1.73 1.42,-1.84z"/>
    <path fill="#F68D41" fill-rule="nonzero" d="M83.91 46.51c0.47,-0.78 1.48,-1.03 2.26,-0.56 0.77,0.47 1.02,1.47 0.56,2.25 -0.47,0.78 -1.48,1.03 -2.26,0.57 -0.77,-0.47 -1.03,-1.48 -0.56,-2.26z"/>
    <path fill="#F68D41" fill-rule="nonzero" d="M73.16 40.87c-0.11,-0.9 0.52,-1.72 1.42,-1.84 0.9,-0.11 1.72,0.52 1.84,1.42 0.12,0.9 -0.52,1.73 -1.42,1.84 -0.9,0.12 -1.72,-0.52 -1.84,-1.42z"/>
    <path fill="#F68D41" fill-rule="nonzero" d="M76.09 76.86c0.5,0.76 0.3,1.78 -0.46,2.28 -0.76,0.51 -1.78,0.3 -2.28,-0.45 -0.5,-0.76 -0.3,-1.78 0.46,-2.28 0.75,-0.51 1.77,-0.3 2.28,0.45z"/>
    <path fill="#32C1DB" fill-rule="nonzero" d="M92.56 83.54c-0.82,-0.37 -1.19,-1.34 -0.82,-2.17 0.37,-0.83 1.35,-1.19 2.17,-0.82 0.83,0.37 1.2,1.34 0.83,2.17 -0.38,0.83 -1.35,1.2 -2.18,0.82z"/>
    <path fill="#32C1DB" fill-rule="nonzero" d="M96.01 79.86c-0.87,-0.24 -1.38,-1.15 -1.14,-2.02 0.24,-0.88 1.15,-1.39 2.02,-1.15 0.88,0.24 1.39,1.15 1.15,2.02 -0.25,0.88 -1.15,1.39 -2.03,1.15z"/>
    <path fill="#32C1DB" fill-rule="nonzero" d="M102.54 66.08c-0.89,0.18 -1.76,-0.4 -1.94,-1.29 -0.18,-0.89 0.4,-1.75 1.29,-1.93 0.88,-0.18 1.75,0.39 1.93,1.28 0.18,0.89 -0.39,1.76 -1.28,1.94z"/>
    <path fill="#32C1DB" fill-rule="nonzero" d="M103.01 55.42c-0.79,0.46 -1.8,0.19 -2.25,-0.6 -0.45,-0.79 -0.18,-1.79 0.61,-2.24 0.78,-0.46 1.79,-0.19 2.24,0.6 0.45,0.79 0.18,1.79 -0.6,2.24z"/>
    <path fill="#32C1DB" fill-rule="nonzero" d="M100.2 45.47c-0.61,0.68 -1.65,0.74 -2.33,0.13 -0.67,-0.6 -0.73,-1.64 -0.12,-2.32 0.6,-0.67 1.64,-0.73 2.32,-0.13 0.67,0.61 0.73,1.65 0.13,2.32z"/>
    <path fill="#32C1DB" fill-rule="nonzero" d="M94.59 37.08c-0.38,0.83 -1.35,1.19 -2.18,0.82 -0.82,-0.37 -1.19,-1.34 -0.82,-2.17 0.37,-0.83 1.34,-1.2 2.17,-0.82 0.83,0.37 1.2,1.34 0.83,2.17z"/>
    <path fill="#32C1DB" fill-rule="nonzero" d="M90.9 33.63c-0.24,0.88 -1.15,1.39 -2.02,1.15 -0.87,-0.24 -1.39,-1.15 -1.15,-2.02 0.25,-0.88 1.15,-1.39 2.03,-1.15 0.87,0.24 1.38,1.15 1.14,2.02z"/>
    <path fill="#32C1DB" fill-rule="nonzero" d="M86.72 30.78c-0.1,0.9 -0.92,1.55 -1.82,1.44 -0.9,-0.1 -1.55,-0.92 -1.45,-1.82 0.11,-0.9 0.93,-1.55 1.83,-1.44 0.9,0.1 1.54,0.92 1.44,1.82z"/>
    <path fill="#32C1DB" fill-rule="nonzero" d="M79.36 90.93c-0.57,-0.71 -0.47,-1.74 0.24,-2.31 0.7,-0.58 1.74,-0.47 2.31,0.23 0.57,0.71 0.47,1.74 -0.24,2.32 -0.7,0.57 -1.74,0.46 -2.31,-0.24z"/>
    <path fill="#32C1DB" fill-rule="nonzero" d="M88.6 86.66c-0.77,-0.49 -0.98,-1.51 -0.49,-2.27 0.5,-0.76 1.52,-0.98 2.28,-0.49 0.76,0.5 0.97,1.52 0.48,2.28 -0.5,0.76 -1.51,0.97 -2.27,0.48z"/>
    <path fill="#32C1DB" fill-rule="nonzero" d="M92.56 83.54c-0.82,-0.37 -1.19,-1.34 -0.82,-2.17 0.37,-0.83 1.35,-1.19 2.17,-0.82 0.83,0.37 1.2,1.34 0.83,2.17 -0.38,0.83 -1.35,1.2 -2.18,0.82z"/>
    <path fill="#32C1DB" fill-rule="nonzero" d="M86.41 77.4c-0.83,-0.37 -1.2,-1.34 -0.83,-2.17 0.37,-0.83 1.35,-1.2 2.17,-0.83 0.83,0.38 1.2,1.35 0.83,2.18 -0.37,0.82 -1.35,1.19 -2.17,0.82z"/>
    <path fill="#32C1DB" fill-rule="nonzero" d="M92.04 70.04c-0.91,-0.03 -1.62,-0.8 -1.58,-1.7 0.03,-0.91 0.8,-1.62 1.7,-1.58 0.91,0.03 1.62,0.79 1.58,1.7 -0.03,0.91 -0.8,1.61 -1.7,1.58z"/>
    <path fill="#32C1DB" fill-rule="nonzero" d="M94.31 55.89c-0.77,0.49 -1.78,0.26 -2.27,-0.51 -0.48,-0.77 -0.25,-1.78 0.52,-2.27 0.76,-0.48 1.78,-0.25 2.26,0.52 0.49,0.77 0.26,1.78 -0.51,2.26z"/>
    <path fill="#32C1DB" fill-rule="nonzero" d="M91.18 46.98c-0.52,0.74 -1.55,0.92 -2.29,0.4 -0.74,-0.53 -0.92,-1.55 -0.4,-2.29 0.52,-0.75 1.55,-0.92 2.29,-0.4 0.74,0.52 0.92,1.54 0.4,2.29z"/>
    <path fill="#32C1DB" fill-rule="nonzero" d="M88.44 43.22c-0.37,0.83 -1.35,1.2 -2.17,0.83 -0.83,-0.37 -1.2,-1.34 -0.83,-2.17 0.37,-0.83 1.34,-1.2 2.17,-0.83 0.83,0.37 1.2,1.35 0.83,2.17z"/>
    <path fill="#32C1DB" fill-rule="nonzero" d="M76.67 35.94c0.14,0.9 -0.47,1.74 -1.37,1.88 -0.89,0.15 -1.73,-0.46 -1.88,-1.36 -0.14,-0.89 0.47,-1.74 1.36,-1.88 0.9,-0.14 1.74,0.46 1.89,1.36z"/>
    <path fill="#32C1DB" fill-rule="nonzero" d="M68.83 83.44c-0.32,-0.85 0.11,-1.79 0.96,-2.11 0.85,-0.32 1.79,0.11 2.11,0.96 0.32,0.84 -0.11,1.79 -0.96,2.11 -0.85,0.32 -1.79,-0.11 -2.11,-0.96z"/>
    <path fill="#32C1DB" fill-rule="nonzero" d="M73.76 83.25c-0.49,-0.77 -0.26,-1.78 0.51,-2.27 0.77,-0.48 1.78,-0.25 2.27,0.52 0.48,0.77 0.25,1.78 -0.52,2.26 -0.76,0.49 -1.78,0.26 -2.26,-0.51z"/>
    <path fill="#32C1DB" fill-rule="nonzero" d="M78.41 82.12c-0.63,-0.66 -0.6,-1.7 0.06,-2.33 0.65,-0.62 1.69,-0.6 2.32,0.06 0.62,0.66 0.6,1.7 -0.06,2.32 -0.65,0.63 -1.69,0.6 -2.32,-0.05z"/>
    <path fill="#32C1DB" fill-rule="nonzero" d="M86.41 77.4c-0.83,-0.37 -1.2,-1.34 -0.83,-2.17 0.37,-0.83 1.35,-1.2 2.17,-0.83 0.83,0.38 1.2,1.35 0.83,2.18 -0.37,0.82 -1.35,1.19 -2.17,0.82z"/>
    <path fill="#32C1DB" fill-rule="nonzero" d="M92.85 73.48c-0.06,-0.9 0.61,-1.69 1.52,-1.76 0.9,-0.07 1.69,0.61 1.76,1.52 0.07,0.9 -0.61,1.69 -1.51,1.76 -0.91,0.07 -1.7,-0.61 -1.77,-1.52z"/>
    <path fill="#32C1DB" fill-rule="nonzero" d="M94.95 69.42c-0.22,-0.87 0.31,-1.77 1.19,-1.99 0.88,-0.23 1.78,0.31 2,1.19 0.22,0.88 -0.31,1.77 -1.19,1.99 -0.88,0.23 -1.77,-0.31 -2,-1.19z"/>
    <path fill="#32C1DB" fill-rule="nonzero" d="M96.34 64.99c-0.37,-0.83 -0.01,-1.8 0.82,-2.17 0.83,-0.38 1.8,-0.01 2.17,0.82 0.38,0.82 0.01,1.8 -0.82,2.17 -0.82,0.38 -1.8,0.01 -2.17,-0.82z"/>
    <path fill="#32C1DB" fill-rule="nonzero" d="M96.93 60.25c-0.51,-0.74 -0.33,-1.77 0.42,-2.28 0.75,-0.52 1.77,-0.33 2.29,0.42 0.51,0.74 0.33,1.77 -0.42,2.28 -0.75,0.52 -1.77,0.33 -2.29,-0.42z"/>
    <path fill="#32C1DB" fill-rule="nonzero" d="M93.77 46.69c-0.82,-0.38 -1.17,-1.36 -0.79,-2.18 0.39,-0.83 1.36,-1.18 2.19,-0.8 0.82,0.39 1.17,1.36 0.79,2.19 -0.39,0.82 -1.36,1.17 -2.19,0.79z"/>
    <path fill="#32C1DB" fill-rule="nonzero" d="M84.57 36.82c-0.9,0.07 -1.69,-0.61 -1.76,-1.51 -0.07,-0.91 0.61,-1.7 1.52,-1.76 0.9,-0.07 1.69,0.61 1.76,1.51 0.06,0.91 -0.61,1.7 -1.52,1.76z"/>
    <path fill="#32C1DB" fill-rule="nonzero" d="M80.5 34.71c-0.88,0.23 -1.77,-0.31 -1.99,-1.19 -0.22,-0.88 0.31,-1.77 1.19,-1.99 0.88,-0.22 1.77,0.31 1.99,1.19 0.23,0.88 -0.31,1.77 -1.19,1.99z"/>
    <path fill="#32C1DB" fill-rule="nonzero" d="M71.31 32.73c-0.75,0.51 -1.77,0.32 -2.29,-0.42 -0.51,-0.75 -0.32,-1.77 0.43,-2.29 0.74,-0.51 1.77,-0.32 2.28,0.42 0.52,0.75 0.33,1.77 -0.42,2.29z"/>
    <path fill="#32C1DB" fill-rule="nonzero" d="M78.77 84.53c0.52,-0.74 1.55,-0.92 2.29,-0.4 0.75,0.51 0.93,1.54 0.41,2.28 -0.52,0.75 -1.55,0.93 -2.29,0.41 -0.74,-0.52 -0.92,-1.55 -0.41,-2.29z"/>
    <path fill="#32C1DB" fill-rule="nonzero" d="M82.99 82.7c0.39,-0.82 1.36,-1.18 2.19,-0.79 0.82,0.38 1.18,1.36 0.79,2.18 -0.38,0.82 -1.36,1.18 -2.18,0.8 -0.82,-0.39 -1.18,-1.36 -0.8,-2.19z"/>
    <path fill="#32C1DB" fill-rule="nonzero" d="M86.8 80.2c0.24,-0.88 1.14,-1.39 2.02,-1.16 0.87,0.24 1.39,1.14 1.15,2.02 -0.24,0.88 -1.14,1.39 -2.01,1.16 -0.88,-0.24 -1.4,-1.14 -1.16,-2.02z"/>
    <path fill="#32C1DB" fill-rule="nonzero" d="M107.41 55.33c-0.79,0.44 -1.79,0.15 -2.23,-0.64 -0.44,-0.79 -0.15,-1.79 0.64,-2.23 0.79,-0.44 1.79,-0.15 2.23,0.64 0.44,0.79 0.16,1.79 -0.64,2.23z"/>
    <path fill="#32C1DB" fill-rule="nonzero" d="M102.45 40.36c-0.53,0.73 -1.56,0.89 -2.29,0.35 -0.73,-0.54 -0.89,-1.57 -0.35,-2.3 0.54,-0.73 1.57,-0.88 2.3,-0.34 0.73,0.54 0.88,1.56 0.34,2.29z"/>
    <path fill="#32C1DB" fill-rule="nonzero" d="M77.39 22.7c0.19,0.89 -0.37,1.76 -1.26,1.95 -0.89,0.2 -1.76,-0.37 -1.95,-1.26 -0.2,-0.88 0.37,-1.76 1.26,-1.95 0.11,-0.02 0.22,-0.03 0.33,-0.03l0.04 0c0.75,0.01 1.41,0.53 1.58,1.29z"/>
    <path fill="#32C1DB" fill-rule="nonzero" d="M68.84 96.53c-0.32,-0.85 0.11,-1.8 0.96,-2.12 0.85,-0.32 1.8,0.11 2.12,0.96 0.31,0.85 -0.12,1.8 -0.97,2.12 -0.18,0.07 -0.37,0.1 -0.55,0.1l-0.05 0c-0.66,-0.01 -1.27,-0.41 -1.51,-1.06z"/>
    <path fill="#32C1DB" fill-rule="nonzero" d="M84.6 93.74c-0.65,-0.63 -0.66,-1.68 -0.02,-2.32 0.63,-0.65 1.68,-0.66 2.32,-0.02 0.65,0.64 0.66,1.68 0.02,2.32 -0.64,0.65 -1.68,0.66 -2.32,0.02z"/>
    <path fill="#32C1DB" fill-rule="nonzero" d="M83.08 72.73c0.78,0.47 1.03,1.48 0.57,2.26 -0.47,0.77 -1.48,1.03 -2.26,0.56 -0.78,-0.47 -1.03,-1.48 -0.56,-2.26 0.47,-0.77 1.48,-1.03 2.25,-0.56z"/>
    <path fill="#32C1DB" fill-rule="nonzero" d="M85.73 69.64c0.86,0.29 1.33,1.22 1.04,2.08 -0.29,0.86 -1.22,1.33 -2.08,1.04 -0.86,-0.29 -1.33,-1.22 -1.04,-2.08 0.29,-0.86 1.22,-1.33 2.08,-1.04z"/>
    <path fill="#32C1DB" fill-rule="nonzero" d="M87.65 66.02c0.9,0.09 1.56,0.9 1.47,1.8 -0.09,0.9 -0.9,1.56 -1.8,1.47 -0.9,-0.09 -1.56,-0.9 -1.47,-1.8 0.09,-0.9 0.9,-1.56 1.8,-1.47z"/>
    <path fill="#32C1DB" fill-rule="nonzero" d="M88.88 57.65c0.85,-0.32 1.79,0.12 2.11,0.96 0.32,0.85 -0.11,1.8 -0.96,2.12 -0.85,0.32 -1.8,-0.11 -2.11,-0.96 -0.32,-0.85 0.11,-1.8 0.96,-2.12z"/>
    <path fill="#32C1DB" fill-rule="nonzero" d="M88.05 53.51c0.75,-0.5 1.77,-0.3 2.28,0.46 0.5,0.76 0.3,1.77 -0.46,2.28 -0.75,0.5 -1.77,0.3 -2.28,-0.46 -0.5,-0.75 -0.29,-1.77 0.46,-2.28z"/>
    <path fill="#32C1DB" fill-rule="nonzero" d="M86.36 49.76c0.62,-0.66 1.66,-0.68 2.32,-0.06 0.66,0.63 0.68,1.67 0.06,2.33 -0.63,0.65 -1.67,0.68 -2.32,0.06 -0.66,-0.63 -0.69,-1.67 -0.06,-2.33z"/>
    <path fill="#32C1DB" fill-rule="nonzero" d="M77.2 41.95c0.09,-0.9 0.9,-1.56 1.8,-1.47 0.9,0.09 1.56,0.9 1.47,1.8 -0.09,0.9 -0.9,1.56 -1.8,1.47 -0.9,-0.09 -1.56,-0.89 -1.47,-1.8z"/>
    <path fill="#32C1DB" fill-rule="nonzero" d="M68.84 40.73c-0.32,-0.85 0.11,-1.8 0.96,-2.12 0.85,-0.32 1.8,0.11 2.12,0.96 0.32,0.85 -0.11,1.8 -0.96,2.12 -0.85,0.32 -1.8,-0.11 -2.12,-0.96z"/>
    <path fill="#32C1DB" fill-rule="nonzero" d="M79.83 75.17c0.66,0.63 0.69,1.67 0.06,2.33 -0.62,0.65 -1.66,0.68 -2.32,0.05 -0.66,-0.62 -0.68,-1.66 -0.06,-2.32 0.63,-0.66 1.67,-0.68 2.32,-0.06z"/>
   </g>
  </g>
 </g>
</svg>
