<?xml version="1.0" encoding="UTF-8"?>
<svg width="280px" height="97px" viewBox="0 0 280 97" version="1.1" xmlns="http://www.w3.org/2000/svg" xmlns:xlink="http://www.w3.org/1999/xlink">
    <!-- Generator: Sketch 47 (45396) - http://www.bohemiancoding.com/sketch -->
    <title>Custom Preset</title>
    <desc>Created with Sketch.</desc>
    <defs></defs>
    <g id="Page-1" stroke="none" stroke-width="1" fill="none" fill-rule="evenodd">
        <g id="Custom-Preset" fill-rule="nonzero">
            <g id="IBN_wordmark-fullcolor_RGB" transform="translate(0.000000, 25.000000)">
                <rect id="XMLID_1035_" fill="#00AAE7" x="104.019324" y="25.9033816" width="14.47343" height="6.42512077"></rect>
                <rect id="XMLID_1033_" fill="#00AAE7" x="96.4444444" y="32.3285024" width="7.50724638" height="6.96618357"></rect>
                <rect id="XMLID_1031_" fill="#00AAE7" x="96.4444444" y="18.8695652" width="7.50724638" height="6.96618357"></rect>
                <rect id="XMLID_1030_" fill="#005C97" x="96.4444444" y="25.9033816" width="7.50724638" height="6.42512077"></rect>
                <polygon id="XMLID_1028_" fill="#00AAE7" points="31.4492754 12.173913 31.4492754 24.2801932 45.9903382 46.057971 45.9903382 34.0193237"></polygon>
                <path d="M143.381643,25.7004831 C140.135266,24.8888889 138.10628,24.2125604 137.227053,23.6714976 C136.347826,23.0628019 135.874396,22.3188406 135.874396,21.3043478 C135.874396,20.2898551 136.21256,19.5458937 136.956522,18.9371981 C137.700483,18.3285024 138.647343,18.057971 139.932367,18.057971 C143.043478,18.057971 146.086957,19.1400966 149.062802,21.3719807 L152.917874,15.826087 C151.227053,14.4057971 149.2657,13.3236715 147.033816,12.5120773 C144.801932,11.7681159 142.502415,11.3623188 140.270531,11.3623188 C136.821256,11.3623188 133.913043,12.2415459 131.613527,14 C129.31401,15.7584541 128.164251,18.1932367 128.164251,21.4396135 C128.164251,24.6859903 129.043478,26.9855072 130.869565,28.5410628 C132.695652,30.0289855 135.603865,31.2463768 139.52657,32.1932367 C142.028986,32.8019324 143.652174,33.410628 144.531401,34.0193237 C145.342995,34.6280193 145.816425,35.4396135 145.816425,36.4541063 C145.816425,37.468599 145.410628,38.2801932 144.599034,38.8888889 C143.78744,39.4975845 142.705314,39.7681159 141.352657,39.7681159 C138.241546,39.7681159 134.859903,38.1449275 131.207729,34.9661836 L126.676329,40.5120773 C131.004831,44.5024155 135.806763,46.4637681 141.149758,46.4637681 C144.869565,46.4637681 147.845411,45.5169082 150.144928,43.6231884 C152.444444,41.7294686 153.594203,39.294686 153.594203,36.2512077 C153.594203,33.2077295 152.714976,30.9082126 150.956522,29.352657 C149.062802,27.6618357 146.560386,26.5120773 143.381643,25.7004831 Z" id="XMLID_1025_" fill="#00AAE7"></path>
                <polygon id="XMLID_1023_" fill="#00AAE7" points="84.1352657 12.173913 75.410628 36.115942 79.4009662 46.057971 92.3188406 12.173913"></polygon>
                <polygon id="XMLID_1021_" fill="#00AAE7" points="23.8743961 12.173913 23.8743961 12.173913 23.8743961 46.057971 31.4492754 46.057971 31.4492754 24.2801932 23.8743961 14.4057971"></polygon>
                <polygon id="XMLID_1020_" fill="#005C97" points="31.4492754 12.173913 23.8743961 12.173913 23.8743961 14.4057971 31.4492754 24.2801932"></polygon>
                <rect id="XMLID_1018_" fill="#00AAE7" x="104.019324" y="12.173913" width="16.9082126" height="6.76328502"></rect>
                <rect id="XMLID_1017_" fill="#005C97" x="96.4444444" y="12.173913" width="7.50724638" height="6.76328502"></rect>
                <rect id="XMLID_1015_" fill="#00AAE7" x="104.019324" y="39.294686" width="17.3816425" height="6.76328502"></rect>
                <rect id="XMLID_1014_" fill="#005C97" x="96.4444444" y="39.294686" width="7.50724638" height="6.76328502"></rect>
                <rect id="XMLID_1012_" fill="#00AAE7" x="175.169082" y="12.173913" width="9.60386473" height="6.56038647"></rect>
                <rect id="XMLID_1010_" fill="#00AAE7" x="158.057971" y="12.173913" width="9.60386473" height="6.56038647"></rect>
                <rect id="XMLID_1007_" fill="#00AAE7" x="167.661836" y="18.7342995" width="7.57487923" height="27.3236715"></rect>
                <rect id="XMLID_1006_" fill="#005C97" x="167.661836" y="12.173913" width="7.57487923" height="6.56038647"></rect>
                <polygon id="XMLID_1004_" fill="#00AAE7" points="45.9903382 34.0193237 53.5652174 43.9613527 53.5652174 12.173913 45.9903382 12.173913"></polygon>
                <polygon id="XMLID_1003_" fill="#005C97" points="45.9903382 46.057971 53.5652174 46.057971 53.5652174 43.9613527 45.9903382 34.0193237"></polygon>
                <rect id="XMLID_1001_" fill="#00AAE7" x="4.46376812" y="18.8695652" width="7.57487923" height="20.4251208"></rect>
                <rect id="XMLID_999_" fill="#00AAE7" x="12.0386473" y="12.173913" width="4.19323671" height="6.76328502"></rect>
                <rect id="XMLID_997_" fill="#00AAE7" x="0.270531401" y="12.173913" width="4.19323671" height="6.76328502"></rect>
                <rect id="XMLID_996_" fill="#005C97" x="4.46376812" y="12.173913" width="7.57487923" height="6.76328502"></rect>
                <rect id="XMLID_995_" fill="#005C97" x="4.46376812" y="39.294686" width="7.57487923" height="6.76328502"></rect>
                <polygon id="XMLID_992_" fill="#00AAE7" points="66.6183575 12.173913 58.4347826 12.173913 71.352657 46.057971 75.410628 36.115942"></polygon>
                <polygon id="XMLID_991_" fill="#005C97" points="71.352657 46.057971 79.4009662 46.057971 75.410628 36.115942"></polygon>
                <rect id="XMLID_989_" fill="#00AAE7" x="12.0386473" y="39.294686" width="4.19323671" height="6.76328502"></rect>
                <rect id="XMLID_987_" fill="#00AAE7" x="0.270531401" y="39.294686" width="4.19323671" height="6.76328502"></rect>
                <path d="M198.299517,13.0531401 L192.888889,13.0531401 L192.888889,0.541062802 L197.690821,0.541062802 C198.502415,0.541062802 199.246377,0.676328502 199.855072,0.811594203 C200.463768,1.01449275 200.937198,1.28502415 201.207729,1.62318841 C201.748792,2.29951691 202.019324,2.97584541 202.019324,3.78743961 C202.019324,4.73429952 201.681159,5.47826087 201.072464,5.95169082 C200.869565,6.08695652 200.7343,6.22222222 200.599034,6.28985507 C200.531401,6.35748792 200.396135,6.42512077 200.125604,6.49275362 C200.869565,6.62801932 201.478261,7.03381643 201.951691,7.50724638 C202.425121,8.04830918 202.628019,8.72463768 202.628019,9.46859903 C202.628019,10.3478261 202.357488,11.0917874 201.748792,11.7681159 C201.207729,12.647343 199.990338,13.0531401 198.299517,13.0531401 Z M195.661836,5.61352657 L196.94686,5.61352657 C197.690821,5.61352657 198.299517,5.54589372 198.637681,5.34299517 C198.975845,5.20772947 199.178744,4.80193237 199.178744,4.26086957 C199.178744,3.71980676 198.975845,3.31400966 198.637681,3.17874396 C198.299517,2.97584541 197.690821,2.90821256 196.879227,2.90821256 L195.52657,2.90821256 L195.52657,5.61352657 L195.661836,5.61352657 Z M195.661836,10.6859903 L197.555556,10.6859903 C198.36715,10.6859903 198.908213,10.6183575 199.31401,10.4154589 C199.719807,10.2125604 199.922705,9.80676329 199.922705,9.26570048 C199.922705,8.65700483 199.719807,8.31884058 199.31401,8.11594203 C198.908213,7.91304348 198.231884,7.84541063 197.285024,7.84541063 L195.661836,7.84541063 L195.661836,10.6859903 L195.661836,10.6859903 Z" id="XMLID_983_" fill="#C4D82E"></path>
                <path d="M209.120773,9.80676329 C209.594203,10.4154589 210.202899,10.6859903 210.94686,10.6859903 C211.690821,10.6859903 212.36715,10.4154589 212.772947,9.80676329 C213.246377,9.19806763 213.449275,8.45410628 213.449275,7.43961353 L213.449275,0.541062802 L216.222222,0.541062802 L216.222222,7.50724638 C216.222222,9.33333333 215.748792,10.6859903 214.7343,11.7004831 C213.719807,12.647343 212.502415,13.1884058 210.94686,13.1884058 C209.391304,13.1884058 208.10628,12.7149758 207.15942,11.7004831 C206.144928,10.7536232 205.671498,9.33333333 205.671498,7.50724638 L205.671498,0.541062802 L208.444444,0.541062802 L208.444444,7.43961353 C208.444444,8.45410628 208.647343,9.19806763 209.120773,9.80676329 Z" id="XMLID_981_" fill="#C4D82E"></path>
                <polygon id="XMLID_979_" fill="#C4D82E" points="228.26087 0.541062802 228.26087 2.97584541 222.512077 2.97584541 222.512077 5.68115942 227.922705 5.68115942 227.922705 8.11594203 222.512077 8.11594203 222.512077 12.9855072 219.806763 12.9855072 219.806763 0.541062802"></polygon>
                <polygon id="XMLID_977_" fill="#C4D82E" points="239.961353 0.541062802 239.961353 2.97584541 234.21256 2.97584541 234.21256 5.68115942 239.623188 5.68115942 239.623188 8.11594203 234.21256 8.11594203 234.21256 12.9855072 231.439614 12.9855072 231.439614 0.541062802"></polygon>
                <path d="M251.458937,13.0531401 L250.309179,10.3478261 L245.169082,10.3478261 L244.019324,13.0531401 L241.111111,13.0531401 L246.454106,0.541062802 L249.091787,0.541062802 L254.434783,13.0531401 L251.458937,13.0531401 Z M247.73913,4.26086957 L246.183575,7.91304348 L249.294686,7.91304348 L247.73913,4.26086957 Z" id="XMLID_974_" fill="#C4D82E"></path>
                <polygon id="XMLID_972_" fill="#C4D82E" points="257.004831 13.0531401 257.004831 0.541062802 259.777778 0.541062802 259.777778 10.5507246 265.05314 10.5507246 265.05314 13.0531401"></polygon>
                <path d="M277.835749,11.294686 C276.618357,12.5120773 275.062802,13.1207729 273.236715,13.1207729 C271.410628,13.1207729 269.855072,12.5120773 268.637681,11.294686 C267.42029,10.0772947 266.743961,8.52173913 266.743961,6.69565217 C266.743961,4.86956522 267.352657,3.31400966 268.637681,2.09661836 C269.855072,0.879227053 271.410628,0.270531401 273.236715,0.270531401 C275.062802,0.270531401 276.618357,0.879227053 277.835749,2.09661836 C279.05314,3.31400966 279.729469,4.86956522 279.729469,6.69565217 C279.729469,8.52173913 279.120773,10.0772947 277.835749,11.294686 Z M276.888889,6.69565217 C276.888889,5.61352657 276.550725,4.59903382 275.806763,3.85507246 C275.130435,3.04347826 274.251208,2.70531401 273.236715,2.70531401 C272.222222,2.70531401 271.342995,3.11111111 270.666667,3.85507246 C269.990338,4.66666667 269.584541,5.61352657 269.584541,6.69565217 C269.584541,7.77777778 269.922705,8.72463768 270.666667,9.53623188 C271.342995,10.3478261 272.222222,10.6859903 273.236715,10.6859903 C274.251208,10.6859903 275.130435,10.2801932 275.806763,9.53623188 C276.550725,8.79227053 276.888889,7.84541063 276.888889,6.69565217 Z" id="XMLID_969_" fill="#C4D82E"></path>
                <polygon id="XMLID_967_" fill="#C4D82E" points="201.545894 17.9903382 204.318841 17.9903382 204.318841 30.5024155 201.545894 30.5024155 195.661836 22.6570048 195.661836 30.5024155 192.888889 30.5024155 192.888889 17.9903382 195.458937 17.9903382 201.478261 26.0386473 201.478261 17.9903382"></polygon>
                <polygon id="XMLID_965_" fill="#C4D82E" points="207.091787 17.9903382 209.864734 17.9903382 209.864734 30.5024155 207.091787 30.5024155"></polygon>
                <path d="M222.309179,30.5024155 L221.15942,27.7971014 L216.019324,27.7971014 L214.869565,30.5024155 L211.961353,30.5024155 L217.304348,17.9903382 L219.942029,17.9903382 L225.285024,30.5024155 L222.309179,30.5024155 Z M218.589372,21.7101449 L217.033816,25.3623188 L220.144928,25.3623188 L218.589372,21.7101449 Z" id="XMLID_962_" fill="#C4D82E"></path>
                <path d="M249.294686,30.5024155 L248.144928,27.7971014 L243.004831,27.7971014 L241.855072,30.5024155 L238.94686,30.5024155 L244.289855,17.9903382 L246.927536,17.9903382 L252.270531,30.5024155 L249.294686,30.5024155 Z M245.507246,21.7101449 L243.951691,25.3623188 L247.062802,25.3623188 L245.507246,21.7101449 Z" id="XMLID_959_" fill="#C4D82E"></path>
                <path d="M264.241546,22.115942 C264.241546,24.1449275 263.429952,25.4299517 261.874396,25.9710145 L264.985507,30.4347826 L261.603865,30.4347826 L258.898551,26.4444444 L257.004831,26.4444444 L257.004831,30.4347826 L254.231884,30.4347826 L254.231884,17.9903382 L258.898551,17.9903382 C260.792271,17.9903382 262.21256,18.3285024 263.024155,19.0048309 C263.835749,19.6135266 264.241546,20.6956522 264.241546,22.115942 Z M260.927536,23.6038647 C261.2657,23.2657005 261.468599,22.7922705 261.468599,22.115942 C261.468599,21.4396135 261.2657,20.9661836 260.927536,20.763285 C260.589372,20.4927536 259.980676,20.3574879 259.101449,20.3574879 L257.004831,20.3574879 L257.004831,24.0772947 L259.033816,24.0772947 C259.913043,24.0772947 260.589372,23.942029 260.927536,23.6038647 Z" id="XMLID_874_" fill="#C4D82E"></path>
                <path d="M276.821256,30.5024155 L275.671498,27.7971014 L270.531401,27.7971014 L269.381643,30.5024155 L266.47343,30.5024155 L271.816425,17.9903382 L274.454106,17.9903382 L279.797101,30.5024155 L276.821256,30.5024155 Z M273.101449,21.7101449 L271.545894,25.3623188 L274.657005,25.3623188 L273.101449,21.7101449 Z" id="XMLID_871_" fill="#C4D82E"></path>
                <path d="M237.256039,23.7391304 L232.995169,23.7391304 L232.995169,26.0386473 L234.483092,26.0386473 L234.483092,27.5942029 C233.874396,27.9323671 233.062802,28.1352657 232.115942,28.1352657 C231.169082,28.1352657 230.357488,27.7971014 229.681159,27.0531401 C229.004831,26.3768116 228.666667,25.4299517 228.666667,24.2125604 C228.666667,23.0628019 229.004831,22.115942 229.748792,21.3719807 C230.492754,20.6280193 231.371981,20.2898551 232.386473,20.2898551 C232.927536,20.2898551 233.400966,20.3574879 233.874396,20.5603865 C234.347826,20.763285 234.821256,21.1014493 235.429952,21.5748792 L236.850242,19.4782609 C235.565217,18.3285024 234.009662,17.7198068 232.251208,17.7198068 C230.492754,17.7198068 228.937198,18.3285024 227.719807,19.5458937 C226.434783,20.763285 225.826087,22.3188406 225.826087,24.2125604 C225.826087,26.0386473 226.434783,27.5942029 227.652174,28.8115942 C228.869565,30.0289855 230.425121,30.6376812 232.183575,30.6376812 C234.347826,30.6376812 236.038647,29.9613527 237.256039,28.5410628 L237.256039,25.9710145 L237.256039,25.9710145 L237.256039,23.7391304 L237.256039,23.7391304 Z" id="XMLID_870_" fill="#C4D82E"></path>
            </g>
        </g>
    </g>
</svg>