<svg xmlns="http://www.w3.org/2000/svg" viewBox="0 0 317.37 137.4"><defs><style>.cls-1{fill:#2b3d54;}</style></defs><title>Asset 3</title><g id="Layer_2" data-name="Layer 2"><g id="Layer_1-2" data-name="Layer 1"><path class="cls-1" d="M126.39,38V52.4a.9.9,0,0,0,.51.88,5.61,5.61,0,0,0,1.73.39c.19,0,.29.15.29.43a2.07,2.07,0,0,1,0,.46c-.58,0-1.18-.07-1.82-.09s-1.28,0-1.93,0-1.27,0-1.93,0-1.27.06-1.85.09a2.91,2.91,0,0,1,0-.46c0-.25.09-.39.27-.43a7,7,0,0,0,1.75-.4.88.88,0,0,0,.54-.87V38h-2.78a4.83,4.83,0,0,0-1.36.16,2.72,2.72,0,0,0-1,.49,2.88,2.88,0,0,0-.7.83c-.2.34-.4.74-.62,1.19a.32.32,0,0,1-.17.19.74.74,0,0,1-.23,0,.85.85,0,0,1-.52-.16c.18-.65.32-1.22.41-1.73s.17-.92.24-1.25a4,4,0,0,1,.23-.77.4.4,0,0,1,.39-.27l.54,0,.74.05.8,0,.75,0h9l.73,0,.81,0,.74-.05.56,0a.4.4,0,0,1,.39.28,5.49,5.49,0,0,1,.23.8c.07.34.15.76.23,1.27a12.2,12.2,0,0,0,.41,1.67l-.25.11a.82.82,0,0,1-.28,0,.79.79,0,0,1-.25,0,.35.35,0,0,1-.19-.19,10.15,10.15,0,0,0-.59-1.19,3,3,0,0,0-.69-.83,2.55,2.55,0,0,0-.94-.49,4.88,4.88,0,0,0-1.36-.16Z"/><path class="cls-1" d="M153.36,52.54a.78.78,0,0,0,.35.74,6,6,0,0,0,1.41.42.34.34,0,0,1,.27.38,2.24,2.24,0,0,1-.06.48c-.45,0-1-.07-1.59-.09s-1.15,0-1.63,0-1,0-1.6,0-1.11.06-1.65.09a2.24,2.24,0,0,1-.06-.48c0-.22.09-.35.27-.38a4.79,4.79,0,0,0,1.38-.41.79.79,0,0,0,.38-.75V46h-8.47v6.53a.76.76,0,0,0,.35.74,5.83,5.83,0,0,0,1.4.42.34.34,0,0,1,.3.38,2.24,2.24,0,0,1-.06.48c-.47,0-1-.07-1.62-.09s-1.16,0-1.64,0-1,0-1.59,0l-1.68.09a3,3,0,0,1,0-.48c0-.22.09-.35.27-.38a4.87,4.87,0,0,0,1.4-.41.79.79,0,0,0,.38-.75V38.83a1.16,1.16,0,0,0-.07-.44.67.67,0,0,0-.25-.31,1.65,1.65,0,0,0-.53-.23c-.22-.06-.52-.13-.88-.2-.18,0-.27-.16-.27-.43a2.15,2.15,0,0,1,.06-.46l1.56.09c.6,0,1.14,0,1.62,0s1,0,1.59,0l1.65-.09a2.91,2.91,0,0,1,0,.46c0,.25-.09.39-.27.43a3.75,3.75,0,0,0-1.39.4.91.91,0,0,0-.33.78v6.05h8.47V38.83a.94.94,0,0,0-.33-.74,2.94,2.94,0,0,0-1.37-.44c-.2,0-.3-.16-.3-.43a2.91,2.91,0,0,1,0-.46l1.58.09c.6,0,1.14,0,1.62,0s1,0,1.57,0l1.65-.09a2.15,2.15,0,0,1,.06.46c0,.25-.09.39-.27.43a3.69,3.69,0,0,0-1.39.4.89.89,0,0,0-.34.78Z"/><path class="cls-1" d="M165.34,38v6.9h4.21a.79.79,0,0,0,.77-.52,6,6,0,0,0,.36-1.28.43.43,0,0,1,.49-.35l.21,0,.22.06c0,.39-.07.84-.1,1.35s0,.94,0,1.32,0,.68,0,1.12,0,.94.11,1.49a1.56,1.56,0,0,1-.41.06.46.46,0,0,1-.51-.35,5.81,5.81,0,0,0-.36-1.28.8.8,0,0,0-.77-.53h-4.21v6.37c0,.37.24.63.73.75a10.35,10.35,0,0,0,2.4.19H170a3.72,3.72,0,0,0,1.36-.23,3.45,3.45,0,0,0,1-.62,4.22,4.22,0,0,0,.79-.93,12,12,0,0,0,.68-1.19c.05-.12.19-.19.4-.19a.67.67,0,0,1,.29.08l.28.17a6.91,6.91,0,0,0-.42,1.22c-.12.48-.23.94-.33,1.37a11.44,11.44,0,0,1-.34,1.1c-.12.31-.27.46-.45.46l-.62,0-.87,0-1,0-.84,0H164c-.52,0-1.07,0-1.67,0s-1.16.06-1.7.09a2.83,2.83,0,0,1,0-.43c0-.25.09-.4.27-.43a6.22,6.22,0,0,0,1.47-.41.75.75,0,0,0,.44-.75V38.81a.75.75,0,0,0-.39-.74,6.06,6.06,0,0,0-1.52-.42c-.18,0-.27-.19-.27-.46a1.55,1.55,0,0,1,0-.23,1.77,1.77,0,0,1,0-.2c.78.05,1.42.09,1.94.1l1.41,0h5.31c.81,0,1.51,0,2.11-.08s1-.08,1.18-.08.39.15.47.45a7.34,7.34,0,0,1,.21,1.06c0,.42.11.86.19,1.32a3.09,3.09,0,0,0,.4,1.19.77.77,0,0,1-.48.16.44.44,0,0,1-.46-.24,12.86,12.86,0,0,0-.63-1.2,2.92,2.92,0,0,0-.68-.82,2.6,2.6,0,0,0-.95-.49,4.83,4.83,0,0,0-1.36-.16Z"/><path class="cls-1" d="M206,45.66a9.43,9.43,0,0,1-.55,3.16,8.45,8.45,0,0,1-1.67,2.81,8.25,8.25,0,0,1-2.83,2,9.79,9.79,0,0,1-4,.77h-5.53c-.47,0-1,0-1.59,0s-1.17.06-1.73.09a2.83,2.83,0,0,1-.05-.43c0-.25.1-.4.29-.43a7.25,7.25,0,0,0,1.43-.46.73.73,0,0,0,.44-.7V38.81a.8.8,0,0,0-.41-.76,5.42,5.42,0,0,0-1.46-.4.29.29,0,0,1-.22-.16.6.6,0,0,1-.07-.3,2.83,2.83,0,0,1,.05-.43c.38,0,.71.06,1,.06l.79,0,.74,0h6.3a10.59,10.59,0,0,1,4,.7,8.26,8.26,0,0,1,2.85,1.89,7.84,7.84,0,0,1,1.7,2.78A10.23,10.23,0,0,1,206,45.66Zm-2.83.51q0-4.16-2.06-6.16a8.32,8.32,0,0,0-6-2h-2.35V52.35a.78.78,0,0,0,.14.46.9.9,0,0,0,.45.29,4,4,0,0,0,.89.17c.38,0,.86,0,1.43,0a10.78,10.78,0,0,0,3.51-.5,5.75,5.75,0,0,0,2.32-1.43,5.49,5.49,0,0,0,1.3-2.25A10.12,10.12,0,0,0,203.13,46.17Z"/><path class="cls-1" d="M215.7,52.54a.76.76,0,0,0,.38.74,6.53,6.53,0,0,0,1.4.42c.18,0,.27.18.27.43a2.83,2.83,0,0,1-.05.43L216,54.47c-.56,0-1.09,0-1.6,0s-1,0-1.6,0-1.14.06-1.66.09a2,2,0,0,1,0-.43c0-.25.08-.4.27-.43a4.87,4.87,0,0,0,1.4-.41.79.79,0,0,0,.38-.75V38.81a.83.83,0,0,0-.38-.77,4.41,4.41,0,0,0-1.4-.39.26.26,0,0,1-.22-.16.73.73,0,0,1,0-.3,2,2,0,0,1,0-.43l1.69.09c.58,0,1.11,0,1.57,0s1,0,1.55,0l1.72-.09a2.83,2.83,0,0,1,.05.43c0,.27-.09.42-.27.46a4.41,4.41,0,0,0-1.4.39.83.83,0,0,0-.38.77Z"/><path class="cls-1" d="M222.93,45.66a9.26,9.26,0,0,1,2.51-6.39,8.62,8.62,0,0,1,2.7-2,7.37,7.37,0,0,1,3.23-.73,10.53,10.53,0,0,1,4.1.74,8,8,0,0,1,4.62,4.9,10.66,10.66,0,0,1,.56,3.45,9.85,9.85,0,0,1-.7,3.82,8.18,8.18,0,0,1-4.81,4.65,10.15,10.15,0,0,1-3.55.62,9.26,9.26,0,0,1-3.51-.65,7.72,7.72,0,0,1-2.74-1.85,8.55,8.55,0,0,1-1.78-2.87A10.44,10.44,0,0,1,222.93,45.66Zm9.28,7.79a5.54,5.54,0,0,0,2.32-.48,5.34,5.34,0,0,0,1.81-1.35,6.24,6.24,0,0,0,1.17-2,7.69,7.69,0,0,0,.42-2.59,15.2,15.2,0,0,0-.41-3.6,9.13,9.13,0,0,0-1.22-2.89,6,6,0,0,0-2.08-1.92,5.88,5.88,0,0,0-2.93-.71,5.53,5.53,0,0,0-2.12.42,5.39,5.39,0,0,0-1.78,1.22,5.83,5.83,0,0,0-1.22,2,7.11,7.11,0,0,0-.46,2.67,15,15,0,0,0,.43,3.71,10,10,0,0,0,1.25,3,6,6,0,0,0,2,2A5.44,5.44,0,0,0,232.21,53.45Z"/><path class="cls-1" d="M254.84,54.75a10.26,10.26,0,0,1-4-.7,7.65,7.65,0,0,1-2.82-1.93,7.94,7.94,0,0,1-1.68-2.89,11.41,11.41,0,0,1-.55-3.57,10.12,10.12,0,0,1,.55-3.21,8.94,8.94,0,0,1,1.68-2.93,8.47,8.47,0,0,1,2.82-2.13,9,9,0,0,1,4-.82c.6,0,1.14,0,1.63,0s1,.07,1.42.13.89.15,1.32.25l1.35.33a15.77,15.77,0,0,0,.19,1.78c.11.71.25,1.42.43,2.14a1,1,0,0,1-.43.1,1.19,1.19,0,0,1-.39-.05.36.36,0,0,1-.23-.3,4.4,4.4,0,0,0-1.54-2.53,5.14,5.14,0,0,0-3-.76,7.54,7.54,0,0,0-2.95.54,6.06,6.06,0,0,0-2.16,1.51,6.58,6.58,0,0,0-1.32,2.33,9.66,9.66,0,0,0-.45,3,10,10,0,0,0,.57,3.43,8.89,8.89,0,0,0,1.52,2.69A6.89,6.89,0,0,0,253,53a6.28,6.28,0,0,0,2.74.62,7.32,7.32,0,0,0,2-.23,3.72,3.72,0,0,0,1.32-.66,3.88,3.88,0,0,0,.89-1.07,12.15,12.15,0,0,0,.69-1.44.66.66,0,0,1,.65-.41,1.57,1.57,0,0,1,.28,0,.83.83,0,0,1,.23.1c-.22.63-.43,1.32-.65,2.08a23.14,23.14,0,0,0-.54,2.26c-.88.15-1.78.26-2.7.34S255.94,54.75,254.84,54.75Z"/><path class="cls-1" d="M271.32,38v6.9h4.21a.78.78,0,0,0,.77-.52,6,6,0,0,0,.36-1.28.44.44,0,0,1,.49-.35l.22,0,.21.06c0,.39-.07.84-.09,1.35s0,.94,0,1.32,0,.68,0,1.12.06.94.11,1.49a1.49,1.49,0,0,1-.4.06.47.47,0,0,1-.52-.35,5.81,5.81,0,0,0-.36-1.28.79.79,0,0,0-.77-.53h-4.21v6.37c0,.37.25.63.73.75a10.47,10.47,0,0,0,2.4.19h1.49a3.76,3.76,0,0,0,1.36-.23,3.4,3.4,0,0,0,1-.62,4.26,4.26,0,0,0,.8-.93,12,12,0,0,0,.67-1.19.41.41,0,0,1,.41-.19.63.63,0,0,1,.28.08l.28.17a6.21,6.21,0,0,0-.41,1.22c-.12.48-.23.94-.34,1.37a9.17,9.17,0,0,1-.34,1.1c-.11.31-.26.46-.44.46l-.62,0-.88,0-1,0-.83,0H270c-.52,0-1.08,0-1.67,0s-1.16.06-1.7.09a2.07,2.07,0,0,1-.06-.43c0-.25.09-.4.27-.43a5.94,5.94,0,0,0,1.47-.41.76.76,0,0,0,.45-.75V38.81a.75.75,0,0,0-.39-.74,6,6,0,0,0-1.53-.42c-.18,0-.27-.19-.27-.46a1.4,1.4,0,0,1,0-.23.79.79,0,0,1,0-.2c.77.05,1.42.09,1.94.1l1.4,0h5.32c.8,0,1.51,0,2.1-.08s1-.08,1.19-.08.39.15.47.45a7.46,7.46,0,0,1,.2,1.06c.05.42.12.86.19,1.32a3.27,3.27,0,0,0,.4,1.19.75.75,0,0,1-.48.16.45.45,0,0,1-.46-.24,13,13,0,0,0-.62-1.2,3.13,3.13,0,0,0-.69-.82,2.55,2.55,0,0,0-.94-.49,4.83,4.83,0,0,0-1.36-.16Z"/><path class="cls-1" d="M297.14,41.13a2.93,2.93,0,0,1-.41,0,.8.8,0,0,1-.51-.13.84.84,0,0,1-.24-.3,5.57,5.57,0,0,0-1.67-2.24,4.43,4.43,0,0,0-2.65-.7,4,4,0,0,0-1.22.18,2.88,2.88,0,0,0-1,.51,2.57,2.57,0,0,0-.68.82,2.16,2.16,0,0,0-.26,1.08,2.51,2.51,0,0,0,1.06,2.08,14,14,0,0,0,3.15,1.64,11.14,11.14,0,0,1,3.81,2.28,4.25,4.25,0,0,1,1.23,3.09,6.27,6.27,0,0,1-.33,2.06,4.49,4.49,0,0,1-1.06,1.68,4.9,4.9,0,0,1-1.85,1.12,8.35,8.35,0,0,1-2.72.4,12.3,12.3,0,0,1-3-.35,8.5,8.5,0,0,1-2.31-.92c-.05-.75-.14-1.48-.24-2.18s-.24-1.41-.38-2.11a1.22,1.22,0,0,1,.46-.08.76.76,0,0,1,.5.15,1.37,1.37,0,0,1,.31.47,6.48,6.48,0,0,0,1.74,2.86,4.43,4.43,0,0,0,3,.92,4.35,4.35,0,0,0,1.51-.24,3.11,3.11,0,0,0,1.08-.68,2.93,2.93,0,0,0,.64-1,3,3,0,0,0,.22-1.16,2.74,2.74,0,0,0-1-2.21,9,9,0,0,0-2.74-1.46q-1.16-.43-2.1-.9a7.28,7.28,0,0,1-1.62-1.09,4.5,4.5,0,0,1-1-1.45,4.85,4.85,0,0,1-.36-2,4.92,4.92,0,0,1,.36-1.88A4.48,4.48,0,0,1,287.85,38a5.19,5.19,0,0,1,1.65-1,6.06,6.06,0,0,1,2.19-.37,12.07,12.07,0,0,1,2.43.24,16.45,16.45,0,0,1,2.61.81q.06.81.15,1.74C297,40,297,40.59,297.14,41.13Z"/><path class="cls-1" d="M307.93,38v6.9h4.21a.79.79,0,0,0,.77-.52,6,6,0,0,0,.36-1.28.43.43,0,0,1,.48-.35l.22,0,.22.06c0,.39-.07.84-.1,1.35s0,.94,0,1.32,0,.68,0,1.12.05.94.11,1.49a1.56,1.56,0,0,1-.41.06c-.29,0-.46-.12-.51-.35a5.81,5.81,0,0,0-.36-1.28.8.8,0,0,0-.77-.53h-4.21v6.37c0,.37.24.63.73.75a10.35,10.35,0,0,0,2.4.19h1.48a3.72,3.72,0,0,0,1.36-.23,3.45,3.45,0,0,0,1-.62,4.22,4.22,0,0,0,.79-.93,12,12,0,0,0,.68-1.19c.05-.12.19-.19.4-.19a.67.67,0,0,1,.29.08l.28.17a6.91,6.91,0,0,0-.42,1.22c-.12.48-.23.94-.34,1.37a9.32,9.32,0,0,1-.33,1.1c-.12.31-.27.46-.45.46l-.62,0-.88,0-.95,0-.84,0h-5.91c-.52,0-1.08,0-1.67,0s-1.16.06-1.7.09a2.83,2.83,0,0,1-.05-.43c0-.25.09-.4.27-.43a6.22,6.22,0,0,0,1.47-.41.76.76,0,0,0,.44-.75V38.81a.75.75,0,0,0-.39-.74,6.06,6.06,0,0,0-1.52-.42c-.18,0-.27-.19-.27-.46a1.55,1.55,0,0,1,0-.23,1.77,1.77,0,0,1,0-.2c.77.05,1.42.09,1.94.1l1.41,0h5.31c.81,0,1.51,0,2.1-.08s1-.08,1.19-.08.39.15.47.45a9,9,0,0,1,.21,1.06q.08.63.18,1.32a3.27,3.27,0,0,0,.41,1.19.8.8,0,0,1-.49.16.46.46,0,0,1-.46-.24,10.94,10.94,0,0,0-.62-1.2,2.92,2.92,0,0,0-.68-.82,2.6,2.6,0,0,0-1-.49,4.83,4.83,0,0,0-1.36-.16Z"/><path class="cls-1" d="M124.09,89.31c1.66,0,4.89,0,7.31,1.88a7.79,7.79,0,0,1,2.78,6.19,6.39,6.39,0,0,1-3.36,5.87,7.12,7.12,0,0,1,3.9,1.88,7.66,7.66,0,0,1,2.15,5.61,8,8,0,0,1-2.55,6.05,11,11,0,0,1-7.58,2.42h-10V89.31Zm-1.56,12.42h1.65c.9,0,4.53-.09,4.53-3.9,0-2.74-2.1-3.77-4.48-3.77h-1.7Zm0,12.73H125a8,8,0,0,0,4-.81,3.85,3.85,0,0,0,1.83-3.45,3.59,3.59,0,0,0-2.19-3.41,9.57,9.57,0,0,0-4-.58h-2.15Z"/><path class="cls-1" d="M152.56,89.31v18.78a6.46,6.46,0,0,0,1.44,4.44,6.51,6.51,0,0,0,9.5,0,6.51,6.51,0,0,0,1.44-4.44V89.31h5.82V107.6c0,2.82-.44,5.69-2.24,8-2.15,2.82-5.92,4.3-9.77,4.3s-7.62-1.48-9.77-4.3c-1.8-2.29-2.24-5.16-2.24-8V89.31Z"/><path class="cls-1" d="M197.93,94.33h-10V101h9.41v5h-9.41v13.18h-5.83V89.31h15.87Z"/><path class="cls-1" d="M223.31,94.33H213.26V101h9.42v5h-9.42v13.18h-5.83V89.31h15.88Z"/><path class="cls-1" d="M247.2,112.94H235.14l-2.65,6.27h-6.32L239,89.31h4.57l12.51,29.9h-6.28Zm-1.7-4.76-4.26-10.76L237,108.18Z"/><path class="cls-1" d="M269.93,89.31v24.88h9.23v5H264.1V89.31Z"/><path class="cls-1" d="M317.23,104.28c0,9.1-6.55,15.6-16,15.6s-16-6.5-16-15.6,6.54-15.64,16-15.64S317.23,95.18,317.23,104.28Zm-6,0c0-6-4.13-10.35-10-10.35s-10,4.3-10,10.35,4.13,10.31,10,10.31S311.22,110.33,311.22,104.28Z"/><path class="cls-1" d="M214.47,66.25a3.51,3.51,0,0,1,1.43.28,2.5,2.5,0,0,1,1,.77,3.4,3.4,0,0,1,.56,1.18,5.41,5.41,0,0,1,.19,1.48,7,7,0,0,1-.51,2.78,6.18,6.18,0,0,1-1.29,2,5.19,5.19,0,0,1-3.65,1.55,3.28,3.28,0,0,1-1.32-.24,2.09,2.09,0,0,1-.87-.71,2.9,2.9,0,0,1-.47-1.13,7,7,0,0,1-.14-1.51A6.86,6.86,0,0,1,211.13,68a5.8,5.8,0,0,1,1.65-1.29A3.68,3.68,0,0,1,214.47,66.25Zm-1.74,9.16A2,2,0,0,0,214,75a3.41,3.41,0,0,0,1-1.1,5.75,5.75,0,0,0,.62-1.67,9.13,9.13,0,0,0,.23-2.1,6,6,0,0,0-.34-2.21,1.19,1.19,0,0,0-1.17-.82,2,2,0,0,0-1.3.49,3.89,3.89,0,0,0-1,1.26,6.82,6.82,0,0,0-.58,1.72,9.3,9.3,0,0,0-.2,1.87,5.49,5.49,0,0,0,.34,2.21A1.19,1.19,0,0,0,212.73,75.41Z"/><path class="cls-1" d="M221.47,67.27h-1.72c.07-.5.23-.75.46-.75h1.37l.33-2a4.84,4.84,0,0,1,.62-1.73,5.56,5.56,0,0,1,1.09-1.34A4.87,4.87,0,0,1,225,60.6a3.67,3.67,0,0,1,1.41-.31,2.08,2.08,0,0,1,1,.29,4.34,4.34,0,0,0-.29.72,6.32,6.32,0,0,0-.2.85l-.31.09a2.39,2.39,0,0,0-.57-.52,1.28,1.28,0,0,0-.73-.23,1,1,0,0,0-.55.14,1.3,1.3,0,0,0-.46.58,8.55,8.55,0,0,0-.43,1.26c-.14.55-.29,1.27-.44,2.17l-.13.88h2.34a3.79,3.79,0,0,0-.22,1c-.37-.06-.75-.1-1.15-.13l-1.1-.07-1.11,6.41a20.16,20.16,0,0,1-.68,2.84,11.94,11.94,0,0,1-.9,2.11,7.58,7.58,0,0,1-1.12,1.52A6,6,0,0,1,218,81.26a4.13,4.13,0,0,1-.49.22,1.55,1.55,0,0,1-.55.09,2.3,2.3,0,0,1-.86-.16,6.34,6.34,0,0,0,.22-.86,9.47,9.47,0,0,0,.13-1l.33-.13a2.16,2.16,0,0,0,.54.51,1.18,1.18,0,0,0,.65.2c.5,0,.91-.42,1.22-1.24a21.38,21.38,0,0,0,.88-3.66Z"/><line class="cls-1" x1="234.2" y1="71.86" x2="316.87" y2="71.86"/><rect class="cls-1" x="234.2" y="71.25" width="82.67" height="1.21"/><line class="cls-1" x1="116.47" y1="71.54" x2="199.14" y2="71.54"/><rect class="cls-1" x="116.47" y="70.91" width="82.67" height="1.25"/><g id="Tassle_Detail" data-name="Tassle Detail"><path class="cls-1" d="M76,43.69A1.31,1.31,0,0,1,77,44c.25.19,3.49,4.12,5.6,6.75h.18a.15.15,0,0,0,0-.18h0c-.54-.67-5.28-6.51-5.64-6.79a1.61,1.61,0,0,0-1.22-.3.13.13,0,0,0-.08.16h0A.12.12,0,0,0,76,43.69Z"/><path class="cls-1" d="M97.33,57.69c-.06.13-.1.14-.25.15H97a28.27,28.27,0,0,1-4.12-4.56,1.24,1.24,0,0,1,.25-.43.11.11,0,0,0,0-.16h0a.12.12,0,0,0-.17,0h0c-.09.12-.33.42-.3.61.08.58,3.51,4.24,4.12,4.7a.37.37,0,0,0,.18.08h.14a.47.47,0,0,0,.44-.29.1.1,0,0,0,0-.16.13.13,0,0,0-.18,0Z"/><path class="cls-1" d="M90.16,55.26a.12.12,0,0,0,0-.16h0a.13.13,0,0,0-.18,0h0s-.31.25-.28.46c.08.57,3.61,4.13,4.31,4.79h.46a.3.3,0,0,0,.29-.19A.12.12,0,0,0,94.7,60h0a.11.11,0,0,0-.15,0h0s0,.06-.18,0a.88.88,0,0,0-.23,0,37.4,37.4,0,0,1-4.2-4.6A.61.61,0,0,1,90.16,55.26Z"/><path class="cls-1" d="M87.58,57.41a.15.15,0,0,0-.1-.15.15.15,0,0,0-.15.11,3,3,0,0,0,0,.6c.07.55,3.21,3.9,3.83,4.57h.06l.23.08a1,1,0,0,0,.28.08.27.27,0,0,0,.26-.18.12.12,0,0,0,0-.17.12.12,0,0,0-.17,0l0,0c0,.06,0,.07-.22,0l-.24-.09a33.62,33.62,0,0,1-3.74-4.42A2.68,2.68,0,0,1,87.58,57.41Z"/><path class="cls-1" d="M8.22,55.08a.13.13,0,0,0-.18,0H8a.12.12,0,0,0,0,.16H8c.11.09.2.21.19.25A37.75,37.75,0,0,1,4.1,60.11H3.69a.12.12,0,0,0-.16-.06.12.12,0,0,0,0,.16.28.28,0,0,0,.28.19h.36a.09.09,0,0,0,.1,0c.71-.7,4.24-4.22,4.32-4.78C8.53,55.33,8.22,55.12,8.22,55.08Z"/><path class="cls-1" d="M10.76,57.27a.13.13,0,0,0-.1.14,2.18,2.18,0,0,1,0,.51,34.38,34.38,0,0,1-3.74,4.43l-.23.08c-.19.08-.2.07-.23,0a.14.14,0,0,0-.17,0,.12.12,0,0,0,0,.16.27.27,0,0,0,.26.18,1,1,0,0,0,.29-.07l.22-.09h.07c.62-.67,3.75-4,3.83-4.57q0-.3,0-.6a.12.12,0,0,0,0-.18A.13.13,0,0,0,10.76,57.27Z"/><path class="cls-1" d="M11.7,58.34a2.4,2.4,0,0,1,.12.53,34.1,34.1,0,0,1-3.49,4.44c-.35.23-.49.07-.49.07a.11.11,0,0,0-.16,0h0a.11.11,0,0,0,0,.17h0a.5.5,0,0,0,.36.16.93.93,0,0,0,.48-.17h0c.35-.41,3.46-4,3.54-4.58a1.73,1.73,0,0,0-.12-.64.12.12,0,0,0-.13-.12.12.12,0,0,0-.12.12.14.14,0,0,0,0,.07Z"/><path class="cls-1" d="M5.26,52.72a.11.11,0,0,0-.17,0h0a.11.11,0,0,0,0,.14l0,0a1.1,1.1,0,0,1,.25.43,28.74,28.74,0,0,1-4.12,4.56h-.1c-.16,0-.2,0-.26-.15a.14.14,0,0,0-.17,0,.12.12,0,0,0,0,.16.48.48,0,0,0,.45.29h.14a.37.37,0,0,0,.18-.08c.62-.45,4.05-4.12,4.12-4.7A1.14,1.14,0,0,0,5.26,52.72Z"/><path class="cls-1" d="M22.31,43.45a1.63,1.63,0,0,0-1.23.3c-.35.28-5.15,6.12-5.64,6.79a.15.15,0,0,0,0,.18h.17c2.06-2.61,5.35-6.56,5.6-6.75a1.3,1.3,0,0,1,1-.26.12.12,0,0,0,.15-.08h0a.13.13,0,0,0-.06-.17Z"/><path class="cls-1" d="M11.78,56.72c-.14-.15-4.5-3.72-5-4.12a.13.13,0,0,0-.18,0h0a.1.1,0,0,0,0,.16h0c1.34,1.1,4.85,4,5,4.12a.53.53,0,0,0,.37.18.43.43,0,0,0,.22-.06.55.55,0,0,0,.24-.6.12.12,0,0,0-.17,0,.11.11,0,0,0-.05.12.35.35,0,0,1-.15.31C12,56.84,11.89,56.82,11.78,56.72Z"/><path class="cls-1" d="M19,48.53,21.79,51H22a.13.13,0,0,0,0-.18h0l-2.77-2.45a.12.12,0,1,0-.16.18h0Z"/><path class="cls-1" d="M89.3,55.69l-.11.21a2.1,2.1,0,0,1,.44.45c.29.36,1.59,1.78,4.12,4.47v-.23l.06-.05c-3-3.26-3.82-4.12-4-4.35A2,2,0,0,0,89.3,55.69Z"/></g><g id="_Every_Part_of_the_Buffalo_" data-name=" Every Part of the Buffalo "><path class="cls-1" d="M23.17,96.65a.11.11,0,0,0,.09.13h0a.11.11,0,0,0,.11-.11h0c.07-.87.82-1.17,1.7-1.52h.09a.12.12,0,0,0,.07-.15h0a.12.12,0,0,0-.15-.08H25C24.15,95.26,23.26,95.63,23.17,96.65Z"/><path class="cls-1" d="M26.18,95.62a5.93,5.93,0,0,1-.72.1,2.49,2.49,0,0,0-1.14.27,1,1,0,0,0-.52.91,3.48,3.48,0,0,1-.1.44.82.82,0,0,1-.54.5.23.23,0,0,0-.13.24,1.93,1.93,0,0,1,0,.48v.31a3.31,3.31,0,0,0,0,.63.22.22,0,0,0,.22.2h0a.23.23,0,0,0,.19-.26h0a5.42,5.42,0,0,1,0-.57v-.69a1.16,1.16,0,0,0,.63-.69v-.07h.13a1.59,1.59,0,0,0,.57.1,1.23,1.23,0,0,0,1.11-1.34v-.1l.34-.06a.23.23,0,0,0,.21-.25.22.22,0,0,0-.25-.2h-.07Zm-1.36,1-.08.06-.1.05h-.11l.11-.18.06-.11.21-.15h.26c0,.13-.14.24-.35.35Z"/><path class="cls-1" d="M63.14,110.15A.12.12,0,0,0,63,110h0a.14.14,0,0,0-.12.14,3.14,3.14,0,0,0,.15.66,2.26,2.26,0,0,1,.12.68,1.15,1.15,0,0,1-.31.9.14.14,0,0,0,0,.09v.19a.13.13,0,0,0,.12.13.12.12,0,0,0,.12-.13h0v-.15a1.4,1.4,0,0,0,.35-1,2.68,2.68,0,0,0-.13-.75A2.22,2.22,0,0,1,63.14,110.15Z"/><path class="cls-1" d="M45.25,111.6a.11.11,0,0,0,.08.14h0c.26.07.38.29.49.63a.14.14,0,0,0,.12.09h0a.12.12,0,0,0,.08-.16h0c-.11-.36-.26-.7-.67-.79A.12.12,0,0,0,45.25,111.6Z"/><path class="cls-1" d="M45.06,105a4.82,4.82,0,0,1,.26-1.46,4.5,4.5,0,0,0,.31-1.54v-1.39h0l-.51-1.66a.13.13,0,0,0-.16-.08h0a.13.13,0,0,0-.08.16h0l.51,1.63V102a4.3,4.3,0,0,1-.28,1.46A4.26,4.26,0,0,0,44.8,105a2.21,2.21,0,0,0,.41,1.19,2.44,2.44,0,0,1,.4,1,.12.12,0,0,0,.12.1h0a.12.12,0,0,0,.12-.13h0a2.77,2.77,0,0,0-.44-1A2,2,0,0,1,45.06,105Z"/><path class="cls-1" d="M30.37,98.76a2.49,2.49,0,0,0-.81-.59,1.39,1.39,0,0,1-.8-.76.12.12,0,0,0-.17,0,.14.14,0,0,0-.06.12,1.72,1.72,0,0,0,.92.9,2.22,2.22,0,0,1,.73.52,2.08,2.08,0,0,1,.42,1,2.2,2.2,0,0,0,.1.47.12.12,0,0,0,.12.09h0a.12.12,0,0,0,.08-.15h0a2.11,2.11,0,0,0-.09-.45A2.26,2.26,0,0,0,30.37,98.76Z"/><path class="cls-1" d="M25.67,102.68c-.07,0-.13,0-.14.11a1.81,1.81,0,0,1-.14.6.12.12,0,0,0,.07.15h0a.11.11,0,0,0,.11-.08,1.89,1.89,0,0,0,.17-.66A.12.12,0,0,0,25.67,102.68Z"/><path class="cls-1" d="M24.89,103.42a.68.68,0,0,0-.65-.06h-.15a.11.11,0,0,0-.1.13.11.11,0,0,0,.13.11h.37a.54.54,0,0,1,.3.1h.05a.2.2,0,0,0,.12-.08.14.14,0,0,0-.07-.16Z"/><path class="cls-1" d="M27,102.52h-.27a.13.13,0,0,0-.11.12h0a.14.14,0,0,0,.13.11H27a.12.12,0,0,0,.1-.14A.12.12,0,0,0,27,102.52Z"/><path class="cls-1" d="M44.81,86.66H45a1.7,1.7,0,0,0,.51.08,1.56,1.56,0,0,0,1.15-.48.87.87,0,0,0,.22-.72.22.22,0,0,0-.24-.19h0a.21.21,0,0,0-.19.22v0a.46.46,0,0,1-.11.37,1.12,1.12,0,0,1-.81.32,1.32,1.32,0,0,1-.39-.06h-.16a.2.2,0,0,0-.26.13v0A.24.24,0,0,0,44.81,86.66Z"/><path class="cls-1" d="M41,89.86h.4a1.51,1.51,0,0,0,1.09-.47,1.47,1.47,0,0,0,.31-.56,1,1,0,0,0,.35,0,1.53,1.53,0,0,0,1.39-1.65h0a.3.3,0,0,0-.06-.18v-.12a.23.23,0,0,0-.23-.23h0a.21.21,0,0,0-.23.2h0V87a.42.42,0,0,0,.08.21,1.07,1.07,0,0,1-.94,1.15.44.44,0,0,1-.38-.13.2.2,0,0,0-.25,0,.19.19,0,0,0-.13.21.83.83,0,0,1-.23.62,1.14,1.14,0,0,1-1,.31h-.18a.22.22,0,0,0-.24.2h0a.22.22,0,0,0,.19.25Z"/><path class="cls-1" d="M47.93,83.52H48c.47-.19.51-.62.54-1v-.26a.23.23,0,0,0-.19-.26.22.22,0,0,0-.25.19h0v.29c0,.39-.07.57-.25.64a.23.23,0,0,0-.12.3A.25.25,0,0,0,47.93,83.52Z"/><path class="cls-1" d="M47.51,85.58a.19.19,0,0,0,.15-.08l.19-.16a1,1,0,0,0,.46-.79,1.73,1.73,0,0,0-.12-.6v-.12a.23.23,0,0,0-.29-.13.22.22,0,0,0-.14.28h0v.12a1.34,1.34,0,0,1,.1.45c0,.18-.11.29-.31.48a1.9,1.9,0,0,0-.21.19.22.22,0,0,0,0,.32A.25.25,0,0,0,47.51,85.58Z"/><path class="cls-1" d="M35.88,95.56a.28.28,0,0,0-.18,0,.23.23,0,0,0-.1.17,1.71,1.71,0,0,1-.5,1,2,2,0,0,0-.58,1.29,1.32,1.32,0,0,0,.35.84,1,1,0,0,1,.27.58v.09l-.07.12a.2.2,0,0,0,.06.29l0,0h.1a.24.24,0,0,0,.2-.12l0-.07a.53.53,0,0,0,.13-.36,1.37,1.37,0,0,0-.35-.85A.89.89,0,0,1,35,98a1.49,1.49,0,0,1,.48-1,2.34,2.34,0,0,0,.57-1,1.56,1.56,0,0,0,1-.36,1.9,1.9,0,0,0,.7-1.18.71.71,0,0,0,.68-.27.79.79,0,0,0,.11-.62A1.64,1.64,0,0,0,39.87,92a.6.6,0,0,0-.12-.32c0-.16.1-.25.27-.4a1,1,0,0,0,.43-.75,1.2,1.2,0,0,0-.49-1,.24.24,0,0,0-.3.12.23.23,0,0,0,0,.24.75.75,0,0,1,.3.69c0,.16-.1.25-.27.42a.94.94,0,0,0-.43.73.66.66,0,0,0,.12.32,1.24,1.24,0,0,1-.94,1.12.23.23,0,0,0-.29-.1.24.24,0,0,0-.11.29,1.44,1.44,0,0,1,.08.55C38,94,38,94,37.78,94h-.2a.22.22,0,0,0-.22.21h0a1.35,1.35,0,0,1-.55,1A1,1,0,0,1,35.88,95.56Z"/><path class="cls-1" d="M28.49,91.81a3.38,3.38,0,0,1,.45,0,.12.12,0,0,0,.14-.09h0a.11.11,0,0,0-.09-.13h-.62a.16.16,0,0,0-.12.13.37.37,0,0,1-.28.38.14.14,0,0,0-.11.11.83.83,0,0,1-.13.43l-.08.16a.12.12,0,0,0,0,.16h.05a.12.12,0,0,0,.11-.08l.08-.15a1.07,1.07,0,0,0,.16-.44A.61.61,0,0,0,28.49,91.81Z"/><path class="cls-1" d="M33,114.24l.7.11h0a.13.13,0,0,0,.12-.1.12.12,0,0,0-.09-.14L33,114a.11.11,0,0,0-.14.08h0a.13.13,0,0,0,.09.16Z"/></g><path class="cls-1" d="M64.24,32.5a3.21,3.21,0,0,0-2.49,0,3.27,3.27,0,0,0-.3-2.54,1.59,1.59,0,0,0-1.4-.53,2,2,0,0,0-1.56.76,2.4,2.4,0,0,0-.3,1.79V32l.1.19a2.38,2.38,0,0,0-2.35.11,2.22,2.22,0,0,0-.8,1.86,1.83,1.83,0,0,0,1,1.54h0a3.78,3.78,0,0,0,1.57,0,2.88,2.88,0,0,0,.78-.4,3.46,3.46,0,0,0,0,2.82,1.76,1.76,0,0,0,1.52.65h.12a1.77,1.77,0,0,0,1.6-.76,2.73,2.73,0,0,0-.11-2.22,3.6,3.6,0,0,0,2.67-.33A1.63,1.63,0,0,0,65,34,1.78,1.78,0,0,0,64.24,32.5Z"/><path class="cls-1" d="M38.46,40.11a6,6,0,1,1,6-6A6.06,6.06,0,0,1,38.46,40.11Zm0-11.67a5.62,5.62,0,1,0,5.63,5.62A5.62,5.62,0,0,0,38.46,28.44Z"/><path class="cls-1" d="M60.05,40.11a6.05,6.05,0,1,1,6-6A6.06,6.06,0,0,1,60.05,40.11Zm0-11.67a5.62,5.62,0,1,0,5.62,5.62A5.63,5.63,0,0,0,60.05,28.44Z"/><path class="cls-1" d="M34.2,43.62c-1,.13-2,.28-3.05.44C32.05,43.91,33.07,43.76,34.2,43.62Z"/><path class="cls-1" d="M31.5,48.29c.45-.08.91-.16,1.4-.23Z"/><path class="cls-1" d="M32.9,48.06c.88-.14,1.82-.27,2.82-.4C34.8,47.78,33.86,47.91,32.9,48.06Z"/><path class="cls-1" d="M64.54,43.57c1.79.21,3.29.44,4.51.66C67.63,44,66,43.75,64.54,43.57Z"/><path class="cls-1" d="M73.34,49.61,73,49.5l.18,0Z"/><path class="cls-1" d="M53.42,40.84c.14,0,.33,0,.59,0Z"/><path class="cls-1" d="M54.34,40.87h0Z"/><path class="cls-1" d="M98.14,57.15c-.48-1.38-4.06-4.65-4.64-5.15a3.38,3.38,0,0,0-.1-.71,1.22,1.22,0,0,0-1-.79,1.28,1.28,0,0,0-.17-.42.91.91,0,0,0-1.11-.21L85.88,44c-1.3-1.42-1.92-1.63-2.12-1.65a1.43,1.43,0,0,0-1.38.85l-4.49-.17a3.88,3.88,0,0,0-2.06-.69,5.12,5.12,0,0,0-2.06.81V37a1,1,0,0,0,.45.11,1,1,0,0,0,.24,0,.5.5,0,0,0,.29-.28,2.1,2.1,0,0,0-.57-2.16l-.4-.4V32.09l.07.07a1,1,0,0,0,.75.36,1.08,1.08,0,0,0,.5-.15.91.91,0,0,0,.45-1c-.06-.39-.94-1.22-1.14-1.42a3,3,0,0,0-.71-1.81,2.67,2.67,0,0,0-.79-.44,6.35,6.35,0,0,1-2.26-1.57,6.18,6.18,0,0,1-1-2.45.16.16,0,0,0-.09-.09H69.5a2.23,2.23,0,0,0-.52.62l-2.25-2.12C67,21,66.09,20,65.57,19.54l-.13-.13a7.85,7.85,0,0,0-1.36-.83c-.43-.25-.89-.51-1.26-.78a3.89,3.89,0,0,1-1.12-2.31.12.12,0,0,0-.08-.09.13.13,0,0,0-.12,0,2.58,2.58,0,0,0-.69.94l-.11-.15L58.64,14a3.23,3.23,0,0,0-.76-2.25v0a13.59,13.59,0,0,0-1.8-1.51l-.7-.52a2.67,2.67,0,0,1-1-2,.1.1,0,0,0-.06-.1.43.43,0,0,0-.41,0c-.25.12-.41.47-.49,1v.29l-1.56-1.6a2.07,2.07,0,0,0,1.34-.87,1.75,1.75,0,0,0,.18-1.51,1.81,1.81,0,0,0-2.2-1.24A4.74,4.74,0,0,0,49.68,0a.17.17,0,0,0-.19,0,4.92,4.92,0,0,0-1.41,3.64,1.81,1.81,0,0,0-2.2,1.24,1.79,1.79,0,0,0,.18,1.51,2,2,0,0,0,1.32.89L45.72,9V8.65c-.07-.58-.23-.93-.48-1a.43.43,0,0,0-.41,0,.14.14,0,0,0-.07.1,2.68,2.68,0,0,1-.94,2l-.69.53a11.2,11.2,0,0,0-1.8,1.5v0A3.18,3.18,0,0,0,40.57,14l-1.83,2-.35.33a2.73,2.73,0,0,0-.66-.92.15.15,0,0,0-.13,0,.1.1,0,0,0-.07.09,4,4,0,0,1-1.13,2.26,14.54,14.54,0,0,1-1.25.78,8.33,8.33,0,0,0-1.36.92l-.15.13c-.51.5-1.46,1.41-1.15,2.52l-2.25,2.13a3.06,3.06,0,0,0-.51-.63.15.15,0,0,0-.13,0,.16.16,0,0,0-.07.09,6.2,6.2,0,0,1-1,2.42,5.07,5.07,0,0,1-.47.46,6.75,6.75,0,0,1-1.79,1.1,3,3,0,0,0-.78.45,2.92,2.92,0,0,0-.78,1.79c-.22.2-1.08,1-1.15,1.42a.91.91,0,0,0,.45,1,.89.89,0,0,0,.5.15,1.09,1.09,0,0,0,.57-.2v2.06l-.29.28a2.07,2.07,0,0,0-.64,2.18.52.52,0,0,0,.29.29.88.88,0,0,0,.62-.05l-.05,6.33-.08.06a6.43,6.43,0,0,0-2.54-1.11,3.9,3.9,0,0,0-2.06.69l-4.49.17a1.42,1.42,0,0,0-1.36-.85c-.21,0-.83.23-2.13,1.65L7.18,49.86a.89.89,0,0,0-1.1.21,1.12,1.12,0,0,0-.18.42,1.21,1.21,0,0,0-1,.78,2.55,2.55,0,0,0-.1.72c-.59.53-4.17,3.8-4.65,5.15a1.15,1.15,0,0,0,.34,1.43,1,1,0,0,0,.83.21,1.26,1.26,0,0,0,.36.81,1.42,1.42,0,0,0,1.13.22,1.28,1.28,0,0,0,.4.92A1.1,1.1,0,0,0,4,61a1.34,1.34,0,0,0,1.45,1.22h0a1.21,1.21,0,0,0,.38.82,1.4,1.4,0,0,0,.83.34,1.68,1.68,0,0,0,.5.8,1.5,1.5,0,0,0,.9.34.81.81,0,0,0,.67-.31l1.86-2.22c.67-.8,1.11-1.33,1.42-1.74v15a69.41,69.41,0,0,0,4.12,22.77,70.38,70.38,0,0,0,32.77,38.53l.3.17,1.37.77.37-.28A75.63,75.63,0,0,0,82.71,98a71.89,71.89,0,0,0,4.46-22.23l0-14.16.34.41c.49.58,1.09,1.3,1.85,2.23a.84.84,0,0,0,.67.3,1.53,1.53,0,0,0,.92-.34,1.71,1.71,0,0,0,.48-.79,1.44,1.44,0,0,0,.84-.35,1.15,1.15,0,0,0,.38-.82h.13A1.34,1.34,0,0,0,94.16,61h0a1.12,1.12,0,0,0,.85-.23,1.27,1.27,0,0,0,.39-.92,1.39,1.39,0,0,0,1.13-.25,1.22,1.22,0,0,0,.37-.81,1,1,0,0,0,.82-.21A1.14,1.14,0,0,0,98.14,57.15Zm-6-6.18a.78.78,0,0,1,.77.45A2.86,2.86,0,0,1,93,52c-1.89,1.63-4.45,3.81-5.77,4.92v-.55l4.35-3.59a.12.12,0,0,0,0-.16h0a.13.13,0,0,0-.18,0l-4.19,3.45v-.89L92,51Zm-1-.61s.45-.27.64,0a1.09,1.09,0,0,1,.12.36l-4.67,4.12v-.09l2.42-2.16a.11.11,0,0,0,0-.17.12.12,0,0,0-.08,0,.09.09,0,0,0-.08,0h0l-2.21,2v-.59c.75-.66,3.09-2.74,3.77-3.38ZM73.76,45.72l.29-.23.32-.23a4.39,4.39,0,0,1,1.52-.78c.39,0,.77.44,1,.87s1.12,1.38,1.86,2.26L75.3,50.84l.07.07h-.89l-.06-.11a.49.49,0,0,0,0-.24.81.81,0,0,0-.58-.73h-.08ZM77.19,51,75.57,51,79,47.86l.71.86Zm2.7-1.62,1.61,2h-.43c-.7,0-1.5.05-2.44.05h-1Zm-4,5.11.3.14a2,2,0,0,1,1.48.63A18.43,18.43,0,0,1,79,57.2c.28.47.52.86.65,1,.32.42,1.14,1.35,1.18,1.39a4.33,4.33,0,0,1,.76.5,2.08,2.08,0,0,1,.82,1.36c.09.93-.23,1-.92,1.32L81,63a18.12,18.12,0,0,1-5.73.62c-2.17,0-4.88.44-5.46,1v-.11a.93.93,0,0,1,.26-.76c.6-.82,3.09-1.65,3.93-1.92a19,19,0,0,0,2.35-1h.08a10.58,10.58,0,0,1,2.92-.05c.84.13,1.43.44,1.57.81a.7.7,0,0,1-.17.69.11.11,0,0,0,0,.16h.1a.1.1,0,0,0,.09-.06.88.88,0,0,0,.22-.92c-.18-.45-.81-.81-1.75-1a11.66,11.66,0,0,0-3,0,.18.18,0,0,0-.15-.08l-35.53.1L39,54.42H62C69.57,54.45,75.65,54.47,75.94,54.52ZM41.6,66.16l1.83,6.18H38.28l-1.54-6.06a.17.17,0,0,0-.18-.13H24.06a7.44,7.44,0,0,0-1.13-.88,3.43,3.43,0,0,0-.44-.19,1.37,1.37,0,0,0-1.12,0,.81.81,0,0,0-.24.17,1.31,1.31,0,0,0-.24.47,2,2,0,0,0-.05.26.23.23,0,0,1-.19-.09c-.1-.17-.47-1.76-.8-3.19l.12-.17a3.19,3.19,0,0,1,.26-.38,1.34,1.34,0,0,1,.5-.39,2.31,2.31,0,0,1,.83,0H22l.42-.5H35.24a.16.16,0,0,0,.15-.07.2.2,0,0,0,0-.15l-1.63-6.38,4.8-.15,1.86,6.33a.16.16,0,0,0,.17.12L63,60.84,61.21,62.9l-.24.29.26.28,2.16,2.28c-9.48.06-20.8.16-21.64.17a.21.21,0,0,0-.15.07A.25.25,0,0,0,41.6,66.16ZM24.28,75.83l1.46,0,.05.2.07.24,2.35,8.4.11.43v.16l-.24.46a1.09,1.09,0,0,1-.08.15h-.11a1.22,1.22,0,0,0-.38-.07h-.45l-2.72-9.52L24.28,76ZM24,75.08l-.56-1.87a.55.55,0,0,1,.2-.35,4.44,4.44,0,0,1,1-.09l.67,2.31Zm.56-2.66a5.17,5.17,0,0,0-1,.11.58.58,0,0,0-.21.17,1.67,1.67,0,0,0-.23.51v.06a4.19,4.19,0,0,1-.67-1.62,2.07,2.07,0,0,1,0-.5,2.8,2.8,0,0,1,.22-.57l.06-.12A8.33,8.33,0,0,0,24,70.29a2.3,2.3,0,0,0,.35-.1l.14-.09c.06-.06.27-.27-.36-3.55H36.48L38,72.42Zm-.39-2.68-1.13-3.95a6.42,6.42,0,0,1,.64.53v.06A25.43,25.43,0,0,1,24.21,69.74Zm-.32.17a8.92,8.92,0,0,1-1.24.21h-.08l-1.29-4.4a.45.45,0,0,1,.23-.32,1.24,1.24,0,0,1,1.11.11Zm-2.51-8.56a2.18,2.18,0,0,0-.84.06,1.36,1.36,0,0,0-.49.34L19,58.07a1.11,1.11,0,0,1,1-.5,1.26,1.26,0,0,1,.38.06Zm-.57-3.53a1.74,1.74,0,0,1,.75,1,21,21,0,0,0,.66,2.08l-.38.46ZM49.57,4A1.55,1.55,0,0,1,51.12,5.5a1.68,1.68,0,0,1-.19.73,1.57,1.57,0,0,1-1.36.82,1.55,1.55,0,0,1-.91-.3l-.09-.09a1.23,1.23,0,0,1-.25-.26,1.52,1.52,0,0,1-.3-.9A1.54,1.54,0,0,1,49.57,4Zm-24,32.65c3.25-3.2,19.59-19.14,19.74-19.41,0-.07.1-.11.14-.11l.06,23.79h-1L42.88,41c-1.51.08-3.68.23-6.64.47L35,41.58l-1.29.14-1,.14-1,.14c-.65.09-1.25.2-1.81.3v0l-1.48.35c-.81.16-1.49.32-2,.45-.33.07-.6.15-.8.21l0,0Zm-.08,8.73.13-.05.06,0,.07,0,.69-.2.34-.09,1-.25h0l.28-.07c.8-.17,1.78-.37,3-.57h.1c1-.16,2.06-.31,3.05-.44l.26,0c.54-.06,1.1-.13,1.7-.18l1.8-.16,1.44-.11,4.29-.25h3.69a.13.13,0,0,0,.13-.13c0-.17,0-3.88,0-8.59V32.94c0-1.07,0-2.17,0-3.29v-.26c0-1.42,0-2.85,0-4.24v-.9c0-5.66-.08-10.45-.08-10.58a.42.42,0,0,0-.13-.34.48.48,0,0,0-.32-.11h-.07L25.61,33.88V31.82c.32-.36.6-.76.63-.79v-.09a.76.76,0,0,1,0-.3,1.64,1.64,0,0,1,.28-1,.46.46,0,0,1,.38-.18,1,1,0,0,1,.71.21,1.26,1.26,0,0,1,.19.28.32.32,0,0,0,.22.19.43.43,0,0,0,.3-.13,1.74,1.74,0,0,0,.76-1.14.89.89,0,0,0,0-.23,2.66,2.66,0,0,0,.63-.34.92.92,0,0,0,.4-.69,3.23,3.23,0,0,0,0-.44l4.29-4.23a.12.12,0,0,0,0-.14s-.59-1.15.28-1.66c.36-.22.63-.11,1,.19a.14.14,0,0,0,.08.12c.07,0,.18.39.4.42a.51.51,0,0,0,.46-.24l.16-.14a1.12,1.12,0,0,0,.47-1.08c.33-.11,1.15-.45,1.09-1.2a1.41,1.41,0,0,0,0-.29l4.13-4.12a.14.14,0,0,0,0-.17s-.67-.82-.15-1.33a.52.52,0,0,1,.39-.2c.22,0,.43.25.63.47l.13.16a.38.38,0,0,0,.49,0,1.59,1.59,0,0,0,.73-1.42,1.57,1.57,0,0,0,1-1.13A1.67,1.67,0,0,0,45.43,10h0a.69.69,0,0,0,.05-.13h0l.06-.16a.58.58,0,0,1,0,.14L48.4,7a1.83,1.83,0,0,0,1.12.38,1.78,1.78,0,0,0,1.26-.56l2.79,2.92a2.47,2.47,0,0,0,.1.29,1.79,1.79,0,0,0-.31,1.14,1.61,1.61,0,0,0,1,1.13,1.59,1.59,0,0,0,.73,1.42.38.38,0,0,0,.49,0l.13-.16c.2-.22.41-.46.62-.47a.52.52,0,0,1,.4.2c.53.51-.12,1.3-.14,1.34a.12.12,0,0,0,0,.16l4.12,4.12v.29c0,.76.77,1.09,1.1,1.2-.14.49.21.82.47,1.08l.15.14a.51.51,0,0,0,.46.24c.22,0,.34-.26.42-.42l.06-.13a1,1,0,0,1,.75-.28.77.77,0,0,1,.29.1.94.94,0,0,1,.46.69V22a1.91,1.91,0,0,1-.18.81.12.12,0,0,0,0,.14L69,27.1a2.43,2.43,0,0,0,0,.44c0,.59.75.93,1,1-.18.65.5,1.2.73,1.38s.21.15.31.13.15-.11.21-.19a2,2,0,0,1,.22-.27,1.14,1.14,0,0,1,.62-.22h.1a.63.63,0,0,1,.39.19,1.43,1.43,0,0,1,.24.6,2.42,2.42,0,0,1,0,.76.14.14,0,0,0,0,.09l.36.48v2.25L52.18,13.15H52.1a.48.48,0,0,0-.32.11.42.42,0,0,0-.13.34c0,.14,0,5.84-.06,12.15v0l0,4,0,0c0,1.51,0,3,0,4.4,0,4.7-.07,8.38-.07,8.48a.12.12,0,0,0,.12.11c1.24,0,2.41.06,3.53.1h1c1.52.06,3.2.14,4.65.24l1.69.22,1.55.18h.1l.36,0c1.45.18,3.09.42,4.51.66h.07l1.66.28,1.4.29.29.09.57.21.25.09,0,0v4.39l-.21-.07-.18,0-1.33-.33-1.68-.42c-1.31-.28-2.93-.61-4.8-.92l-.57-.08c-.77-.12-1.57-.23-2.41-.33h0l-.36,0-7.14-.58c-1.52-.09-3.08-.14-4.7-.15h0c-2.41,0-4.15.06-4.87.1h-.34l-1.94.15c-1.18.09-2.53.22-4,.38l-.7.08-1.92.23-.45.06c-1,.13-1.94.26-2.82.4-.49.07-.95.15-1.4.23l-.45.07-1.36.24-.42.08-.4.08-.39.07h0l-.56.11a.89.89,0,0,1-.32.08l-1.33.27-.77.17ZM73,36.45v6.7l-.11,0c-.57-.15-1.49-.37-2.69-.61l-4.45-.76c-1-.13-2.1-.25-3.26-.35-2.9-.24-5.05-.38-6.55-.46l-.3,0-.59,0-.36,0H54c-.26,0-.45,0-.59,0h-.16l.06-23.79a.26.26,0,0,1,.14.11C53.65,17.44,69.52,33,73,36.45Zm-60.33,7.9c1.3-1.42,1.81-1.49,1.82-1.49a.71.71,0,0,1,.52.15c-.29-.1-1,.4-1.35.91s-5.76,6.52-5.81,6.61a.14.14,0,0,0,0,.09l-.43-.37Zm-6.28,6v0c.18-.26.63,0,.63,0l.17.11,1.94,1.68L12,54.69v.77l-3.26-3a.11.11,0,0,0-.16,0h0a.11.11,0,0,0,0,.17l3.46,3.1v.06L6.29,50.67A.81.81,0,0,1,6.43,50.34ZM5.28,51.41v0c.15-.47.74-.45.76-.45h.19l5.82,5.15v1.66l-.23-.12c-.21-.12-4.05-3.4-6.63-5.61A2.5,2.5,0,0,1,5.28,51.41ZM1.61,58.14l-.05.11a.49.49,0,0,0-.24,0,.53.53,0,0,1-.55-.08.67.67,0,0,1-.24-.88c.47-1.34,4.59-5,4.59-5l1.25,1a.66.66,0,0,0-.68.31c-.11.14-.73.8-1.41,1.54h0l0,0-.16.17L2.73,56.85s0,0-.07.07A12.73,12.73,0,0,0,1.61,58.14Zm10.47,1.17a13.81,13.81,0,0,1-1.8,2.35L8.43,63.88c-.21.25-.66.09-.91-.1a1.41,1.41,0,0,1-.33-.67,1.14,1.14,0,0,1,.26-.32,27.85,27.85,0,0,0,2.86-3.09c.32-.39.58-.7.67-.79a1.42,1.42,0,0,0,.51-.92h-.24a1.23,1.23,0,0,1-.44.75c-.11.1-.35.4-.7.8A25.69,25.69,0,0,1,7.3,62.63a1.27,1.27,0,0,0-.24.28H6.89a1.07,1.07,0,0,1-.67-.21A.82.82,0,0,1,6,62.06a.26.26,0,0,0-.07-.19,1.27,1.27,0,0,1,.25-.27,37.28,37.28,0,0,0,3.67-4,2.15,2.15,0,0,0,.38-1H10a1.75,1.75,0,0,1-.33.85A35.52,35.52,0,0,1,6,61.38a1.74,1.74,0,0,0-.28.32H5.51a2.33,2.33,0,0,1-.46-.08h.38a.09.09,0,0,0,.1,0c.69-.71,4.12-4.25,4.19-4.82a1.42,1.42,0,0,0-.31-.64.12.12,0,0,0-.16,0,.13.13,0,0,0,0,.18,1.29,1.29,0,0,1,.25.46,38.7,38.7,0,0,1-4.12,4.64h-.2c-.2,0-.27,0-.3,0a.1.1,0,0,0-.16,0,.1.1,0,0,0-.07.07,1.16,1.16,0,0,1-.15-.52l2.36-2.56c.84-.93,1.59-1.74,1.76-1.92A1.8,1.8,0,0,1,9.05,56L9,55.91l-.08-.22a1.9,1.9,0,0,0-.52.5c-.28.38-2.79,3.09-3.95,4.35a.37.37,0,0,0-.22-.08l-.12,0a.77.77,0,0,1-.63-.09,1,1,0,0,1-.23-.77V59.5a1.09,1.09,0,0,0,.08-.15c.1-.16,1.44-1.6,2.41-2.63C6.47,55.9,7.11,55.2,7.24,55a2.21,2.21,0,0,1,.34-.35v-.24s-.13,0-.48.44L5.55,56.52c-1.76,1.91-2.39,2.61-2.43,2.72l-.05.12a.54.54,0,0,0-.31,0H2.6C3.31,58.64,6.91,55,7,54.42a1,1,0,0,0-.23-.53.14.14,0,0,0-.17,0,.18.18,0,0,0,0,.09.21.21,0,0,0,0,.07h0a.68.68,0,0,1,.17.35,39.24,39.24,0,0,1-4.27,4.75H2.41c-.16,0-.2,0-.26-.16A.13.13,0,0,0,2,58.93a.11.11,0,0,0-.08.1.82.82,0,0,0,.12.2.64.64,0,0,0,.45.18h-.1a.48.48,0,0,1-.45-.29l0,0a.06.06,0,0,1,0-.06.85.85,0,0,1-.09-.52v-.1l.07-.18c.08-.14,1.44-1.61,2.44-2.68C5.12,54.7,5.82,54,6,53.78a.9.9,0,0,1,.41-.24l0-.11v-.1c1.94,1.67,5.11,4.37,5.31,4.48a2.92,2.92,0,0,0,.36.17Zm1.82-8.69c-.56-.13-1-.24-1.24-.31l-.25-.09a.32.32,0,0,0-.17,0h-.06a.21.21,0,0,0-.11.19v2.72l-.5.61.18.16.32-.4v.75c-1.1-1-3-2.69-4.12-3.6H8c.23-.25,5.39-6.06,5.83-6.62a2.23,2.23,0,0,1,1.08-.83.12.12,0,0,0,.16,0,.17.17,0,0,0,0-.1,1.64,1.64,0,0,1,.21.25c-1.09.42-3.42,3.35-3.69,3.71L8.22,50.85,8.4,51l3.46-3.85c1.09-1.39,2.88-3.42,3.61-3.64l.07.16,4.61-.16L14.2,50.67Zm2.11.2v0l-1.52-.17,6-7.18h.07a3.25,3.25,0,0,1,1.82-.65,6,6,0,0,1,2.17,1,1.23,1.23,0,0,0-.32.63,1.32,1.32,0,0,0,.51.91v.19a7.48,7.48,0,0,0-2.54-1.52c-.46,0-.89.53-1.25,1l-.08.09c-.3.4-2.25,2.69-2.86,3.39l-.05-.09Zm7.86,0-.05.11-1,.09.19-.2-3.63-3.43c.73-.84,1.51-1.77,1.7-2.06l.07-.09c.3-.42.69-.93,1-.93a8.39,8.39,0,0,1,2.56,1.59v3.41Zm.74-.11h-.12l.08-.16ZM22.54,51l-.42.06-.66.08H21L18.2,48.71l.86-1ZM18,49.19l2.22,2c-1.35,0-2.58-.1-3.66-.2Zm.22,6.27c0-.14,0-.38.06-.4a5.14,5.14,0,0,1,1.44-.4c.57-.08,9.1,0,13.66,0L35,60.84H22.58c-.13-.35-.53-1.42-.71-2.06a2,2,0,0,0-1.28-1.45,2.09,2.09,0,0,0-.65-.13,1.48,1.48,0,0,0-1.19.55v-.07a14.13,14.13,0,0,1-.59-1.77A.87.87,0,0,0,18.22,55.46ZM35.53,119a.61.61,0,0,1-.19-.17l-.14-.21a2.53,2.53,0,0,1-.24-.53,1.65,1.65,0,0,0,.89-1.72h0v-.32a1.4,1.4,0,0,0-.07-.7l.22.08.35.07h0a.38.38,0,0,0,.25-.19,2,2,0,0,1,.17.23v.07l.13.21.06.1.12.22,0,.1a2.07,2.07,0,0,1,.1.33,1.31,1.31,0,0,1,0,.28V117a.81.81,0,0,1,0,.22v.34a.59.59,0,0,1,0,.29v.5a.23.23,0,0,0-.16.24c0,.07-.06.11-.17.15a1,1,0,0,1-.52-.31,1.76,1.76,0,0,0-.59-.38.12.12,0,0,0-.15.07.12.12,0,0,0,.08.16,1.49,1.49,0,0,1,.49.34,2.33,2.33,0,0,0,.35.27l-.14.06A.85.85,0,0,1,36,119Zm2.53,1.63a.48.48,0,0,1-.12.16l-.15.18a1,1,0,0,1-.51.31,3.38,3.38,0,0,1-.45,0c-.17,0-.22,0-.23-.06v-.89l-.06-.18v-.11l-.06-.2v-.08a1,1,0,0,0-.07-.25h-.36l.05,0a1.23,1.23,0,0,0,.62-.17l.17-.07H37a1.17,1.17,0,0,0,.52-.32l.09.11a.46.46,0,0,1,.07.16,5.1,5.1,0,0,0,.27.92c.06.18.1.34.13.43Zm0-11.7-.23.42-.1.18v.06l-.09.16v.06l-.1.17c-.15.23-.25.21-.52.12a.9.9,0,0,0-.27-.07.41.41,0,0,0-.22,0h0a1.52,1.52,0,0,0-.78.24l-.79-2.9a.23.23,0,0,0,.15-.12,2.12,2.12,0,0,0,.24-.65,1,1,0,0,1,.29.28,2.1,2.1,0,0,1,.24.5,1.31,1.31,0,0,0,.63.84h.09a.22.22,0,0,0,.21-.12.21.21,0,0,0-.18-.16.07.07,0,0,1-.08,0h0l.06,0h.07s0,0,0,0a1,1,0,0,0,.08-.22,1,1,0,0,0,.45.51c.32.2.6.35.86.5h.07Zm5.49,10a1.58,1.58,0,0,1-.42.54l-.36.31a3.13,3.13,0,0,1-1,.6,5.59,5.59,0,0,1-1.63.09l-.06-.11.17-.26c.11-.21.21-.42.3-.64a6.83,6.83,0,0,1,.29-.64.19.19,0,0,0,.1-.25.19.19,0,0,0-.26-.1.12.12,0,0,0-.16,0,6.62,6.62,0,0,0-.3.66,4.11,4.11,0,0,1-.41.81h-.13l-.08-.06a.76.76,0,0,1-.09-.09,8.13,8.13,0,0,1,1-1.93l.11-.1h.07l.11-.08.09-.06H41l.14-.07v.06a.22.22,0,0,0,.17.26h0a3.2,3.2,0,0,1,1.09.51,5,5,0,0,0,.85.47h.08a.23.23,0,0,0,.2-.12.56.56,0,0,1,.05.08Zm.92-2c0,.15-.37.23-1,.21h-.09v.11h.06a.9.9,0,0,0-.19.15s0,.07,0,.11,0,.07,0,.11a2.18,2.18,0,0,0,0,.25,1.93,1.93,0,0,0,0,.24,4.07,4.07,0,0,1-.73-.42,3.49,3.49,0,0,0-1.24-.56l.06-.07v-.1l0-.11.05-.14v-.53a2.58,2.58,0,0,1,.08-.34,1.31,1.31,0,0,0,0-.28v-1.14a3.41,3.41,0,0,0,1.95.68h.69v.3a1.12,1.12,0,0,0,.12.35A2.1,2.1,0,0,1,44.51,117.06Zm14.76,2v.61a1.22,1.22,0,0,1,0,.27,1.51,1.51,0,0,1-.11.22,1.37,1.37,0,0,1-.71.47,25.33,25.33,0,0,1-3.26,0l.09-.56a3.45,3.45,0,0,0,.56-.45l.21-.22a4.78,4.78,0,0,1,.72-.63.21.21,0,0,0,.26-.15.21.21,0,0,0-.16-.26.14.14,0,0,0-.17,0A6,6,0,0,0,56,119l-.15.15-.22.21-.28.22h-.08a3.88,3.88,0,0,1-.45-.14l.09-.1.11-.12.06-.07.16-.19.15-.16.12-.14a2.85,2.85,0,0,0,.23-.26l.06-.06L56,118l.66-.71h0a.19.19,0,0,0,.15.19l.46.14a3.3,3.3,0,0,1,1.36.62.42.42,0,0,1,.11.18.68.68,0,0,0,.31.39.11.11,0,0,0,.11,0h.07Zm10.51-16v.11l-.11.46a.28.28,0,0,0,0,.13.47.47,0,0,1-.08.31c-.07.1,0,.16,0,.25a1,1,0,0,1-.07.41,1.57,1.57,0,0,0-.08.45v.26a5.27,5.27,0,0,1-.12.73l-.15.77a6,6,0,0,0,.11,3.46h0c.09.27.18.5.23.71a2.55,2.55,0,0,1-.94,2.31,3.77,3.77,0,0,0-.84,2.81,5.93,5.93,0,0,1-.26,2.4c-.23.47-.65.67-.9.58a.44.44,0,0,0-.39,0,.65.65,0,0,0-.21.16l0,.06a.71.71,0,0,0-.12.18l-.1.19a2.65,2.65,0,0,0-1-.85.38.38,0,0,1-.14-.14.86.86,0,0,0-.31-.26.22.22,0,0,0-.3.1.23.23,0,0,0,.1.3.43.43,0,0,1,.16.14,1,1,0,0,0,.28.26,1.9,1.9,0,0,1,.9.85.21.21,0,0,0,.15.11,1.23,1.23,0,0,0,.07.32.59.59,0,0,1,0,.52.62.62,0,0,1-.28.25,1.07,1.07,0,0,1-.39.14,3.4,3.4,0,0,1-.46.08h-.25a10.45,10.45,0,0,1-1.85-.18l-.46-.06s0,0,0,0,0,0,0,0v-.14a.57.57,0,0,1,.16-.22c.05,0,.12-.11.17-.17l.07-.1.08-.1a6.32,6.32,0,0,1,.79-.85.14.14,0,0,0,0-.17.11.11,0,0,0-.09,0l-.08,0h0a6.64,6.64,0,0,0-.89,1l-.07.1-.06.07-.08.08a.91.91,0,0,0-.18.21l-.27-.11-.08-.05-.07-.07c.05-.08.1-.16.16-.24l.16-.2a13.26,13.26,0,0,1,1.54-1.55,1,1,0,0,1,.37-.13,2,2,0,0,0,.58-.22A9.51,9.51,0,0,0,66,114.8a10.71,10.71,0,0,0-.44-4,12.09,12.09,0,0,1-.65-2.3v-.07c.31-2.39,2.47-4,4.92-5.6A.3.3,0,0,1,69.78,103Zm9.57-18.73-.41.29-.11.07a1.82,1.82,0,0,1-.27.15h-.11l-.23.11h-.1L77.9,85h-.63s-.06-.06-.1,0a2.48,2.48,0,0,1-1.51-.47,7,7,0,0,0-.77-.4.12.12,0,0,0-.15.06h0a.13.13,0,0,0,.06.17,6.59,6.59,0,0,1,.75.38,2.85,2.85,0,0,0,1.34.5l-.23.16h-.07l-.34.21-.37.17h-.11a3.45,3.45,0,0,1-.46.12,2.81,2.81,0,0,1-1.82-.29.25.25,0,0,0-.17,0,5.29,5.29,0,0,1-.47-.59l-.21-.28a.12.12,0,0,0-.17,0h0a.13.13,0,0,0,0,.18l.21.27a4.59,4.59,0,0,0,.49.6l-.06.11A.83.83,0,0,1,73,86v.06l-.13.18-.06.07-.14.16-.09.08a1.09,1.09,0,0,1-.17.13l-.1.07-.22.11H72a1.21,1.21,0,0,1-.38.06,1.65,1.65,0,0,1-1.09-.52l.35-.6a.17.17,0,0,0,0-.1A1.83,1.83,0,0,0,69.28,84a2,2,0,0,0-1.59.21,2.4,2.4,0,0,0-.91,1.73C66.56,87.31,70.5,88.2,71,88.3a8.83,8.83,0,0,1,6.43,4.12,3.5,3.5,0,0,1-1,4.79,3.21,3.21,0,0,1-2.95.26.21.21,0,0,0-.19,0l-1,.88a1.72,1.72,0,0,0-.1-.42,3.27,3.27,0,0,1-.13-.54.13.13,0,0,0-.14-.11.13.13,0,0,0-.1.14h0a3.9,3.9,0,0,0,.13.57,2.79,2.79,0,0,0,.1.42.13.13,0,0,0,.13.1v.41a.43.43,0,0,0,0,.16v.6a.27.27,0,0,1-.09.24,1.34,1.34,0,0,1-.13.27v.07a1.14,1.14,0,0,1-.15.23l-.08.11-.16.21-.12.14-.15.18-.16.17-.11.13-.2.2-.22.21-.16.15a.17.17,0,0,0-.19,0c-2.79,1.76-5.32,3.57-5.53,6.43a.17.17,0,0,0,.1.18,2.81,2.81,0,0,0,0,.41v.51a2.5,2.5,0,0,0,.19.86,3.92,3.92,0,0,1,.28,1.47c0,.87-.67,1.34-1.32,1.78-.18.12-.36.25-.51.37a3.9,3.9,0,0,0-1.2,2.47.86.86,0,0,1-.6.83,1.93,1.93,0,0,1-.48,0,2.29,2.29,0,0,0-.64,0,.51.51,0,0,0-.18.09l-.12.11a1.92,1.92,0,0,0-.17.39s-.07-.08-.11-.18a.9.9,0,0,0-.25-.36,3.75,3.75,0,0,0-1.52-.69l-.21-.06.15-.06h.06l.21-.1.14-.11.11-.07.26-.21.3-.28.09-.1.36-.39a8.36,8.36,0,0,0,1.52-3.87,9,9,0,0,0-.59-4.71l-.09-.23v-.06a2.09,2.09,0,0,1-.08-.23v-.06a.91.91,0,0,0-.11-.3v-.07l-.1-.25v-.09l-.06-.2L60,105v-.09a.2.2,0,0,0,.09-.23,3.53,3.53,0,0,1-.21-1.2v-.37a9.32,9.32,0,0,1-.19-1.5,1.91,1.91,0,0,1,.2-.77,4.37,4.37,0,0,0,.18-.46c.08-.25.16-.48.22-.69a7.89,7.89,0,0,1,.54-1.5,3.32,3.32,0,0,1,.4-.58,3.61,3.61,0,0,0,.46-.69l.15-.32A9.32,9.32,0,0,1,63,94.55a8,8,0,0,1,.74-.8l.33-.33.2-.18a1.31,1.31,0,0,0,.56-1,.6.6,0,0,0-.53-.66h0a1.1,1.1,0,0,0-1,.42.21.21,0,0,0,0,.3h0a.23.23,0,0,0,.31,0c.14-.2.32-.23.63-.23a.32.32,0,0,1,.09.2c0,.28-.15.43-.41.67l-.22.21-.33.32a8.82,8.82,0,0,0-.77.85,9.53,9.53,0,0,0-1.83,2.35l-.15.32a3.45,3.45,0,0,1-.41.59,4.36,4.36,0,0,0-.45.67,8.66,8.66,0,0,0-.57,1.57c-.07.21-.13.43-.21.68a3.11,3.11,0,0,1-.17.42,2.11,2.11,0,0,0-.23,1,10.47,10.47,0,0,0,.18,1.58v.29a3.29,3.29,0,0,0,.15,1,10,10,0,0,0-4.82,1.73,6.41,6.41,0,0,0-1.62,1.58.9.9,0,0,0-.12.24v.07a.09.09,0,0,1-.07,0s-.12,0-.12-.09a2.29,2.29,0,0,0-.31-2,2.65,2.65,0,0,0-2.25-.66,5.41,5.41,0,0,0-4,2.34.18.18,0,0,0,0,.2,8.93,8.93,0,0,1,.49.92,2,2,0,0,1-.27,1,.17.17,0,0,0,0,.19,4.51,4.51,0,0,1,.48.82,2.45,2.45,0,0,1-.24,1.22v.08a8.55,8.55,0,0,1,0,1.24.27.27,0,0,1-.22.27.16.16,0,0,0-.13.06,1.57,1.57,0,0,1-.89-1.28.13.13,0,0,0-.13-.11.14.14,0,0,0-.11.13,1.89,1.89,0,0,0,1.1,1.53h.18a.19.19,0,0,1,.11.07,1.09,1.09,0,0,1-.68.4c-.41.07-.79.11-.8.11a.25.25,0,0,0-.12.08l-.35-.09a.83.83,0,0,1-.81-.62.86.86,0,0,0-.16-.35.1.1,0,0,0-.16,0,.14.14,0,0,0,0,.17.81.81,0,0,1,.12.29,1.18,1.18,0,0,0,.19.39,1,1,0,0,0,.47.32,3.19,3.19,0,0,1-1.85-.67l-.14-.08v-.07a.17.17,0,0,0-.14-.15,1.41,1.41,0,0,0-.41,0,5.57,5.57,0,0,1-1.24-2.06,20.62,20.62,0,0,1-.48-2.16,4.69,4.69,0,0,0-.14-.65.33.33,0,0,0-.07-.13.52.52,0,0,0-.11-.1c-.06-.22-.11-.43-.16-.63a7,7,0,0,0-.52-1.67c0-.08-.08-.16-.1-.23a1.53,1.53,0,0,0-.48-.71,2.92,2.92,0,0,0-1-.51,6,6,0,0,1-.63-.27c-.2-.09-.24-.27-.29-.57a1.86,1.86,0,0,0-.15-.56,1.5,1.5,0,0,0-.27-.34.87.87,0,0,1-.14-.16A1.22,1.22,0,0,0,35,103c-.15-.08-.26-.14-.31-.29a6.64,6.64,0,0,1-.47-1.76.13.13,0,0,0-.13-.1A.15.15,0,0,0,34,101a7.16,7.16,0,0,0,.48,1.8.77.77,0,0,0,.42.41.89.89,0,0,1,.29.22l.15.16a.92.92,0,0,1,.23.29,1.49,1.49,0,0,1,.13.49.89.89,0,0,0,.43.75,4.24,4.24,0,0,0,.65.28,2.61,2.61,0,0,1,.91.46,1.44,1.44,0,0,1,.41.62c0,.08.07.16.11.25a7.54,7.54,0,0,1,.51,1.61,1.78,1.78,0,0,0,.1.43,3,3,0,0,0-.5-.17.24.24,0,0,0-.12,0h-.09c-.27-.14-.54-.29-.86-.48a1.29,1.29,0,0,1-.49-.95.54.54,0,0,0-.07-.32.14.14,0,0,0-.14-.1h0a.13.13,0,0,0-.1.14.33.33,0,0,0,0,.14v.15a1.64,1.64,0,0,1-.12.76,1.1,1.1,0,0,1-.35-.56,1.88,1.88,0,0,0-.28-.59,1.45,1.45,0,0,0-.39-.39,1,1,0,0,1-.26-.25.22.22,0,0,0-.26-.08.23.23,0,0,0-.16.21,1.41,1.41,0,0,1,0,.29.49.49,0,0,0-.14-.18.76.76,0,0,0-.19-.12.21.21,0,0,0-.25-.1H34a.8.8,0,0,1-.32-.13.61.61,0,0,1-.13-.22,1.07,1.07,0,0,0-.23-.4.3.3,0,0,0-.26,0,.25.25,0,0,0-.12.23.74.74,0,0,1,0,.21l-.16-.1a2.57,2.57,0,0,1-.32-.22.87.87,0,0,1-.31-.78,2.51,2.51,0,0,1,.1-.77l.07-.09a.55.55,0,0,0,.18-.37,3.71,3.71,0,0,0-.28-1.31,4.46,4.46,0,0,1-.19-.61.24.24,0,0,0-.27-.16h0a.23.23,0,0,0-.16.27c.06.22.13.43.21.64a2.9,2.9,0,0,1,.24,1.16l0,.06a.71.71,0,0,0-.16.28,2.72,2.72,0,0,0-.14.89,1.33,1.33,0,0,0,.48,1.12,2.45,2.45,0,0,0,.37.26,1,1,0,0,1,.43.37.24.24,0,0,0,.28.08.26.26,0,0,0,.14-.17.93.93,0,0,0,.48.2l2.29,8.4a3.11,3.11,0,0,0-.6-.09h-.34a.56.56,0,0,1,.1-.15.91.91,0,0,0,.2-.52,1,1,0,0,0-.33-.91,1.29,1.29,0,0,0-1-.18H34l-2-7.22a.19.19,0,0,0-.38,0,.09.09,0,0,0,0,.07l2,7.22a.26.26,0,0,0-.09.19.24.24,0,0,0,.24.24.13.13,0,0,0,.12,0h0a.1.1,0,0,0,.08-.07h.14a1.32,1.32,0,0,1,.64.09c.17.1.13.22.13.52a.47.47,0,0,1,.09.22.79.79,0,0,0-.2.52.44.44,0,0,0,.11.29.68.68,0,0,0,.52.11.19.19,0,0,0,0,.18,1.1,1.1,0,0,1,0,.51,2.28,2.28,0,0,0,0,.37,1.2,1.2,0,0,1-.69,1.22s-.11,0-.27-.22a7.74,7.74,0,0,0-1.55-1l-.36-.2a2.3,2.3,0,0,1-.55-1v-.07h.31A2.06,2.06,0,0,0,33,115a.12.12,0,0,0,.1-.14.13.13,0,0,0-.15-.12.14.14,0,0,0-.11.09,2.41,2.41,0,0,1-.6.08h-.43a.32.32,0,0,0-.08-.14.25.25,0,0,0-.12-.08,2.2,2.2,0,0,1-1.33-.9,3.1,3.1,0,0,1-.28-1.34c0-.33,0-.53-.18-.59a5.84,5.84,0,0,1-.18-.83v-.22a3.16,3.16,0,0,1,.17-1.46c.31-.25.34-1.31.34-1.33s0-.12.19-.24.12-.12.18-.19a3.61,3.61,0,0,0,.79-1.3,2.59,2.59,0,0,0,.16-1.14.34.34,0,0,0-.24-.31c-.21-.06-.44.16-.55.3a.76.76,0,0,0-.15.48c-.51-.42-.6-.37-.69-.31a.19.19,0,0,0-.09.21,1.88,1.88,0,0,1-.14.42,3.25,3.25,0,0,0-.25,1.14v.11a2.34,2.34,0,0,1-.25-.39,2.1,2.1,0,0,0,.08-.56v0a2.43,2.43,0,0,0-.35-1.21,2.71,2.71,0,0,1-.34-1,.11.11,0,0,0,0-.08.1.1,0,0,0,.1-.11.78.78,0,0,0,0-.22,1.32,1.32,0,0,0-.27-.81.13.13,0,0,0-.18,0h0a.11.11,0,0,0,0,.17h0a1.08,1.08,0,0,1,.2.83.09.09,0,0,0,0,.08.11.11,0,0,0-.1.12,2.87,2.87,0,0,0,.36,1.14,2.44,2.44,0,0,1,.34,1.11,1.6,1.6,0,0,1-.09.53.15.15,0,0,0-.08.08,6.41,6.41,0,0,0-.39,1,1,1,0,0,0,.09.77l-.05.06c-.7-.26-.81-1.22-.81-1.23a1.11,1.11,0,0,1,.21-.64.15.15,0,0,0,0-.18.12.12,0,0,0-.16,0,1.37,1.37,0,0,0-.25.64l-.44-.12a1.48,1.48,0,0,0,.14-1.53,8.28,8.28,0,0,0-.52-.79.22.22,0,0,0-.19-.06h-.08a.14.14,0,0,0,0-.09,3,3,0,0,1-.11-.32.1.1,0,0,0-.1-.08h0a.15.15,0,0,0-.08.17l.11.35h-.86a.6.6,0,0,1-.16-.08l-.15-.11a1.19,1.19,0,0,0,1-.66.11.11,0,0,0-.06-.15h0a.12.12,0,0,0-.16.06c-.15.34-.44.45-.88.51,0,0-.07,0-.09.1l-.13-.16a.18.18,0,0,0-.19-.07c-.73.2-1-.08-1.09-.16s-.28-.65-.5-1.2a17.59,17.59,0,0,0-1.46-3.18,11.7,11.7,0,0,1-1.11-2.06H21a1.23,1.23,0,0,0,.4-1h.17c.52-.28.53-.84.53-1.38a1,1,0,0,0,.77-.86l.46-.16c.65-.16.78-.62.78-1.22a.88.88,0,0,0,0-.23,1,1,0,0,0,.33-.14l.81.34h.11c.56,0,1.87-.17,1.87-1.21a1.8,1.8,0,0,0-.1-.65.82.82,0,0,1,.77-.43,2.12,2.12,0,0,1,.75.14,4,4,0,0,0,.7.17H30a3.23,3.23,0,0,1,.44,0c0,.06,0,.1-.16.2a.91.91,0,0,0-.38.82.61.61,0,0,1,0,.29,1.32,1.32,0,0,1-.64.5.23.23,0,0,0-.1.3.22.22,0,0,0,.21.12h.1a1.55,1.55,0,0,0,.82-.69,1,1,0,0,0,.11-.49.5.5,0,0,1,0-.3,1,1,0,0,1,.17-.19.68.68,0,0,0,.32-.54.6.6,0,0,0-.08-.29.22.22,0,0,0-.2-.18h-.33a1,1,0,0,1,.11-.38,1,1,0,0,0,.12-.48,1.5,1.5,0,0,0-1-1.58.12.12,0,0,0-.15.06h0a.13.13,0,0,0,.07.16,1.29,1.29,0,0,1,.81,1.35.86.86,0,0,1-.1.38,1.15,1.15,0,0,0-.13.48H30a3.11,3.11,0,0,1-.61,0,2.55,2.55,0,0,1-.62-.15,2.7,2.7,0,0,0-.89-.17,1.23,1.23,0,0,0-.95.4,1.8,1.8,0,0,1-.08-.21,2.59,2.59,0,0,0-2.42-2.06h-.11c-.56,0-1.19,0-1.54.56a.26.26,0,0,0,0,.42H23c.51.13,1.38.48,1.38,1.41v.13A1.51,1.51,0,0,1,24.07,92a.19.19,0,0,0-.06.2.14.14,0,0,0,.07.11,1.09,1.09,0,0,1-.31.08.16.16,0,0,0-.08.06.17.17,0,0,0,0,.1v.08a.67.67,0,0,1,0,.2c0,.56-.1.86-.61,1l-.41.12-.16.08a.11.11,0,0,0-.06.1.71.71,0,0,1-.66.72.12.12,0,0,0-.11.12v.09c0,.49,0,.91-.34,1.15l-.18-.06h-.11a.13.13,0,0,0-.15.07v.08a1,1,0,0,1-.27,1h-.38a.11.11,0,0,0-.11.06.16.16,0,0,0-.11-.1.19.19,0,0,0-.15,0s-.45.24-1.1-.45c-.26-.28-.19-1-.14-1.27a.15.15,0,0,0,0-.13,1.62,1.62,0,0,1-.24-.77,2.53,2.53,0,0,1,.32-1,.15.15,0,0,0,0-.16,3.93,3.93,0,0,1-.22-1.23c0-.4.53-.59.54-.6a.17.17,0,0,0,.11-.2,1.89,1.89,0,0,1,0-.67,2.52,2.52,0,0,1,.6-.66.24.24,0,0,0,.06-.11,3.26,3.26,0,0,1,.29-.9,2.65,2.65,0,0,1,1-.75.14.14,0,0,0,.1-.13,1.89,1.89,0,0,1,.45-.89,1.55,1.55,0,0,1,.82-.35.13.13,0,0,0,.12,0,3.5,3.5,0,0,1,.5-.44,3.67,3.67,0,0,1,.93-.14h.07l1-.51a2.14,2.14,0,0,1,.66.12,1.54,1.54,0,0,0,.52.09h.35a1.89,1.89,0,0,1,.57.13h.52a.34.34,0,0,0,.24.09H28a.31.31,0,0,0,.13-.06h.27a1,1,0,0,1,.81.32.38.38,0,0,1,.08.25.58.58,0,0,0,.13.38.6.6,0,0,0,.49.18,1,1,0,0,1,.35.07.73.73,0,0,1,.22.52,2.2,2.2,0,0,0,.07.37.11.11,0,0,0,.12.08.13.13,0,0,0,.08-.12v0a1.94,1.94,0,0,1-.07-.33.86.86,0,0,0-.33-.68.93.93,0,0,0-.46-.12c-.16,0-.25,0-.33-.1a.32.32,0,0,1-.07-.25.69.69,0,0,0-.12-.39,1.25,1.25,0,0,0-1-.4h0L28.5,86l.28-.52a.17.17,0,0,0,0-.14V85l-.09-.32h.07l.17-.13h.72a.64.64,0,0,1,.59.67.74.74,0,0,1-.16.41v.08a.11.11,0,0,0,0,.13.09.09,0,0,0,.12,0h.3a.83.83,0,0,1,.76.39l.07.08v.08a1,1,0,0,1,0,.25s0,0,0,0a.43.43,0,0,0,0,0,.14.14,0,0,0,.1,0,1,1,0,0,1,1,1v.07a.12.12,0,0,0,.12.13.13.13,0,0,0,.12-.13,1.33,1.33,0,0,0-1.11-1.34.67.67,0,0,0,0-.2.11.11,0,0,0-.07-.11.12.12,0,0,0,0-.14,1,1,0,0,0-1-.54h-.08a.8.8,0,0,0,.11-.4.86.86,0,0,0-.82-.91h-.27v-.3l.06-.31a2.68,2.68,0,0,1,.07-.27l.08-.2a1.17,1.17,0,0,1,.54-.2,1.16,1.16,0,0,0,.5-.21,1.07,1.07,0,0,0,.17-.49.79.79,0,0,1,.18-.51,4.94,4.94,0,0,0,.42-.27,1.61,1.61,0,0,1,.31-.19,4.34,4.34,0,0,0,.58-.48l.42-.38a1.8,1.8,0,0,1,1-.08.17.17,0,0,0,.18-.1,2.41,2.41,0,0,1,1.58-1,4.88,4.88,0,0,1,.85.15.17.17,0,0,0,.17,0,2.94,2.94,0,0,1,.89-.59,1.89,1.89,0,0,1,1,.22.18.18,0,0,0,.24-.06h0a.79.79,0,0,1,.75-.38,1.35,1.35,0,0,1,.85.45.2.2,0,0,0,.15.06.2.2,0,0,0,.14-.06,1.12,1.12,0,0,1,1-.26,2.44,2.44,0,0,1,1.29.62.14.14,0,0,0,.12.06.24.24,0,0,0,.15-.06,1,1,0,0,1,.9-.19,2.39,2.39,0,0,1,1.14.66.18.18,0,0,0,.22,0A2.07,2.07,0,0,1,47,79.9a3.4,3.4,0,0,1,1,1.34.19.19,0,0,0,.13.1,2.45,2.45,0,0,1,.73.3,12.28,12.28,0,0,1,1,.75A55.5,55.5,0,0,0,58,86.91a13.07,13.07,0,0,0,2.93,1c2.37.68,5.32,1.51,10.62,5.83,1.7,1.38,2.74,1.59,3.3,1.52a1,1,0,0,0,.7-.36c.84-1.65-.89-3.17-2.06-3.8a45.61,45.61,0,0,0-5.43-2.06c-3-.82-3.24-3-3.25-3.09A3.63,3.63,0,0,1,68,82.2a12,12,0,0,1,5.45.43l.92.24a18.26,18.26,0,0,0,5.27.11,7.68,7.68,0,0,1,.82-.11C80.46,83.06,80.38,83.42,79.35,84.29Zm-48.46,21a.67.67,0,0,1,.15-.14,2.19,2.19,0,0,1-.15,1,3.08,3.08,0,0,1-.69,1.15l-.16.16-.14.11a.14.14,0,0,0-.12-.15.79.79,0,0,1-.13-.4,3.37,3.37,0,0,1,.25-1,.86.86,0,0,1,.12-.32c.14.1.36.28.54.44a.2.2,0,0,0,.21,0,.2.2,0,0,0,.09-.2A.94.94,0,0,1,30.89,105.32ZM24.81,90.94l0-.21A1.85,1.85,0,0,0,23.37,89l.15-.11a2.46,2.46,0,0,1,.6-.07h.27a2.27,2.27,0,0,1,2,1.75c0,.11.08.22.12.31a2.13,2.13,0,0,1,.22.89c0,.43-.42.66-1.41.76l-.76-.31A2.13,2.13,0,0,0,24.81,90.94ZM81.86,74.4a6.28,6.28,0,0,1-3.19-.16,7.62,7.62,0,0,0-1.78-.3H76a6.31,6.31,0,0,0-3,.48,2.81,2.81,0,0,1,1-1,5.4,5.4,0,0,1,2.7-.69c1.5-.07,2.39-.08,2.52-.08h.06a6.62,6.62,0,0,1,.77,0,8.37,8.37,0,0,1,1.86.22c.2.31.28.46.19.63a1.33,1.33,0,0,1-.88.38.12.12,0,0,0-.12.12.12.12,0,1,0,.21.1,1.53,1.53,0,0,0,1-.49c.15-.31,0-.56-.2-.88s-1.92-.32-2.74-.3a.19.19,0,0,0-.16-.09l-35.52.1L42,66.28c11.77-.1,33.77-.29,34.35-.2a3.09,3.09,0,0,1,.72.07c.85.06,2.31.16,2.66.59a23.93,23.93,0,0,1,1.49,2.73c.45.9.74,1.47.87,1.66a2.54,2.54,0,0,0,.43.37,1.56,1.56,0,0,1,.84,1.35C83.47,74,82.83,74.18,81.86,74.4Zm.26-23.11-.28-.3L80,48.7H80L80,48.62s-2.45-2.94-2.8-3.4-.79-1-1.29-1a2.87,2.87,0,0,0-1.19.51.92.92,0,0,0,0-.33,1.64,1.64,0,0,0-.62-.92,4.41,4.41,0,0,1,1.78-.69,3.31,3.31,0,0,1,1.82.64h.07L84,51C83.45,51.12,82.81,51.2,82.12,51.29Zm5-.16h0L86,50.41h-.14a.2.2,0,0,0-.15.06.2.2,0,0,0-.21.16,1.71,1.71,0,0,1-.74.36l-.43.06-6.27-7.52,4.61.16.07-.16a5.81,5.81,0,0,1,1.67,1.38c.68.71,1.4,1.57,1.95,2.26L89.83,51l.18-.17L86.55,47c-.28-.35-2.61-3.28-3.7-3.71a1.09,1.09,0,0,1,.22-.26.09.09,0,0,0,0,.1.12.12,0,0,0,.16,0,2.48,2.48,0,0,1,1,.84c.43.56,5.61,6.37,5.82,6.62h.18a.11.11,0,0,0,0-.16h0c0-.06-5.39-6.06-5.82-6.6s-1-1-1.34-.91a.71.71,0,0,1,.51-.16s.6.14,1.91,1.58l5.32,6c-.61.6-2.72,2.44-3.59,3.2V51.34A.25.25,0,0,0,87.14,51.13Zm3.53,12.65c-.24.19-.7.35-.89.1l-1.86-2.22-.72-.86v-.3c1,1.23,2.27,2.73,2.49,3a.84.84,0,0,0,.48.16.47.47,0,0,0,.36-.15.12.12,0,0,0,0-.16h0a.15.15,0,0,0-.18,0,.21.21,0,0,1-.16.06.55.55,0,0,1-.33-.12C89.05,62.33,88,61,87.2,60.06V58.82c.1.09.35.4.68.78a27,27,0,0,0,2.85,3.1A.92.92,0,0,1,91,63,1.43,1.43,0,0,1,90.67,63.78Zm5.53-4.55a.54.54,0,0,1-.3.13.41.41,0,0,1-.19,0h.19a.5.5,0,0,0,.38-.28.16.16,0,0,0-.06-.17.16.16,0,0,0-.17.05c-.06.14-.1.15-.25.16h-.07a40,40,0,0,1-4.27-4.75.68.68,0,0,1,.17-.35.1.1,0,0,0,0-.16h0a.14.14,0,0,0-.17,0,.89.89,0,0,0-.22.53c.08.56,3.67,4.22,4.39,4.93h-.15a.81.81,0,0,0-.31,0,.2.2,0,0,1,0-.11,32.51,32.51,0,0,0-2.44-2.72c-.71-.77-1.38-1.5-1.5-1.66-.36-.44-.46-.44-.5-.44v.15l-.06.13s.09,0,.34.35.77.86,1.52,1.68c1,1,2.3,2.5,2.39,2.65a1.19,1.19,0,0,0,.08.16v.1a1,1,0,0,1-.23.78.75.75,0,0,1-.62.09.36.36,0,0,0-.3.05l.11.12a.47.47,0,0,1,.15.39l-.35,0a.22.22,0,0,0,0-.16,1.33,1.33,0,0,1-.15.55.08.08,0,0,0-.06-.09.11.11,0,0,0-.16,0h0c0,.07-.1.07-.29.05h-.22a39.47,39.47,0,0,1-4.13-4.64,1.45,1.45,0,0,1,.26-.47.11.11,0,0,0,0-.17.12.12,0,0,0-.16,0c-.11.13-.33.45-.3.64.07.57,3.5,4.12,4.18,4.82a.11.11,0,0,0,.11,0h.38a2.54,2.54,0,0,1-.47.07h-.17a1.75,1.75,0,0,0-.28-.33,38.85,38.85,0,0,1-3.68-3.8,1.75,1.75,0,0,1-.33-.85H88a2.26,2.26,0,0,0,.38,1,38.35,38.35,0,0,0,3.67,4,1.51,1.51,0,0,1,.21.23.22.22,0,0,0-.08.2.9.9,0,0,1-.23.64,1,1,0,0,1-.68.21h-.12a3.33,3.33,0,0,0-.25-.28,25.93,25.93,0,0,1-2.83-3.09c-.34-.4-.58-.7-.69-.8a1.69,1.69,0,0,1-.2-.25V57.22c1.09-.91,3.16-2.68,4.57-3.89l.11.21s.16-.06.41.24.82.92,1.63,1.77c1,1,2.35,2.54,2.43,2.67l.07.18v.11A.91.91,0,0,1,96.2,59.23Zm1.25-1h0a.54.54,0,0,1-.56.08.49.49,0,0,0-.24,0v-.11s-.69-.82-2.49-2.75l-1.66-1.78c-.33-.41-.59-.35-.69-.32l1.25-1s1,.92,2.13,2a12.58,12.58,0,0,1,2.48,3A.66.66,0,0,1,97.45,58.19Z"/><path class="cls-1" d="M42.63,32.51a3.17,3.17,0,0,0-2.49,0,3.35,3.35,0,0,0-.3-2.54,1.58,1.58,0,0,0-1.41-.54,2,2,0,0,0-1.56.76,2.41,2.41,0,0,0-.29,1.78v0a1.74,1.74,0,0,1,.11.18,2.42,2.42,0,0,0-2.36.12,2.22,2.22,0,0,0-.8,1.86,1.83,1.83,0,0,0,1,1.54h0a3.78,3.78,0,0,0,1.57,0,2.88,2.88,0,0,0,.78-.4,3.41,3.41,0,0,0,0,2.83,1.73,1.73,0,0,0,1.51.65h.23a1.77,1.77,0,0,0,1.6-.76,2.73,2.73,0,0,0-.11-2.22,3.67,3.67,0,0,0,2.68-.32A1.69,1.69,0,0,0,43.4,34,1.81,1.81,0,0,0,42.63,32.51Z"/></g></g></svg>