<svg width="269" height="87" viewBox="0 0 269 87" fill="none" xmlns="http://www.w3.org/2000/svg">
<g clip-path="url(#clip0)">
<path d="M123.264 19.6601H120.326L118.716 51.177L116.724 86.8399H99.3773L97.4783 51.177L95.8688 19.6601H92.9224C92.2667 41.2416 91.6025 69.3118 91.313 86.8399H79.7488C81.0772 64.2472 81.8351 35.4354 81.8351 12.3624C81.8351 8.00562 81.8351 3.85112 81.7415 0H104.402L106.011 40.3315L107.152 67.1882H109.043L110.09 40.3315L112.457 0H134.359C134.266 3.85112 134.172 8.00562 134.172 12.3624C134.172 35.4691 135.024 64.2472 136.446 86.8399H124.779C124.507 69.3118 123.834 41.2416 123.264 19.6601Z" fill="#FF0E08"/>
<path d="M166.506 86.8399C166.31 81.0674 166.029 75.295 165.748 69.5141H153.894L153.043 86.8399H140.338C143.182 57.8596 145.362 28.9803 147.542 0.0421448H171.999C174.085 29.0225 176.367 57.9017 179.211 86.882L166.506 86.8399ZM165.178 58.5674C164.326 43.2725 163.185 27.868 162.044 12.5646H157.59C156.449 27.868 155.41 43.2725 154.559 58.5674H165.178Z" fill="#FF0E08"/>
<path d="M225.843 86.8399H207.364L199.785 47.8315L197.315 19.8624H195.612C195.323 42.2528 195.51 64.5253 195.987 86.8399H183.094C184.037 57.9579 184.037 29.0253 183.094 0.0421448H201.147L210.157 41.7893L212.15 67.0197H213.572C214.049 44.7303 213.853 22.3568 213.001 0.0421448H225.843C225.184 28.9916 225.184 57.9242 225.843 86.8399Z" fill="#FF0E08"/>
<path d="M268.617 66.0674C268.804 82.9888 264.631 86.8399 250.036 86.8399H234.358V72.3539L255.699 72.2528C255.886 65.5618 255.98 58.4663 256.073 51.1854H253.987C253.893 61.1124 251.33 63.4466 246.119 63.4466C243.462 63.4466 242.797 63.3455 242.04 63.3455C234.554 63.2444 231.233 58.2893 231.327 49.7612C231.233 37.7023 231.233 21.3876 231.14 0.0421448H244.22C243.939 23.6376 243.845 37.1208 243.939 48.4803H256.073C256.261 32.0646 256.073 15.0421 255.699 0.0421448H268.966C268.302 23.1489 268.302 42.3961 268.591 62.6629L268.617 66.0674Z" fill="#FF0E08"/>
<path d="M7.40859 -1.10877e-05H73.4047V54.4972H0V7.30617C0.00111654 6.34489 0.193693 5.39326 0.56672 4.50568C0.939746 3.6181 1.4859 2.81199 2.17397 2.13344C2.86203 1.45489 3.6785 0.917206 4.5767 0.551131C5.4749 0.185057 6.4372 -0.00222665 7.40859 -1.10877e-05Z" fill="#007EFC"/>
<path d="M3.75539 65.7303C3.75539 67.9298 3.7043 70.1292 3.7043 72.3371C4.99016 72.3371 6.31008 72.3371 7.85141 72.2191V76.1461C6.34414 76.1461 5.02422 76.1461 3.75539 76.1461H3.7043C3.7043 79.7022 3.75537 83.2837 3.84053 86.8314H0C0.298047 78.4045 0.298047 70.0787 0 61.677H8.61781V65.7893C7.7407 65.7303 5.38188 65.7303 3.75539 65.7303Z" fill="#FF0E08"/>
<path d="M10.619 82.4747C10.7041 77.132 10.7041 71.4691 10.619 66.0337C10.5679 63.5056 12.2114 61.4832 14.5787 61.4832H17.3207C19.6625 61.4832 21.3401 63.4803 21.2805 66.0337C21.1954 71.4691 21.1954 77.132 21.2805 82.4747C21.3401 85.0028 19.6625 87 17.3207 87H14.5787C12.2114 87 10.5679 85.0028 10.619 82.4747ZM17.7125 83.2163C17.8487 77.25 17.8487 71.2669 17.7125 65.2669H14.1955C14.0536 71.2612 14.0536 77.2444 14.1955 83.2163C15.0982 83.2416 16.7757 83.2416 17.7125 83.2163Z" fill="#FF0E08"/>
<path d="M23.4435 61.6685H30.8351C31.2967 61.6824 31.7508 61.7877 32.1706 61.9781C32.5904 62.1685 32.9674 62.4403 33.2793 62.7772C33.5913 63.1142 33.8319 63.5096 33.9868 63.9401C34.1418 64.3706 34.2081 64.8275 34.1817 65.2837C34.1817 67.0702 34.1817 70.0365 34.1817 71.8315C34.1817 74.4944 32.5638 75.2023 30.5285 75.3455V75.7584C33.228 75.9944 34.1817 76.4073 34.1817 78.6405C34.1817 81.1686 34.4031 85.2135 34.5138 86.823H30.5029C30.6733 83.1236 30.6733 80.6882 30.5029 77.0478C29.2426 76.9888 27.8461 76.9635 26.9094 76.9635C26.9094 80.6292 26.9094 83.1573 26.9945 86.823H23.418C23.7501 78.4298 23.7501 70.4494 23.4435 61.6685ZM30.5285 73.9719C30.6392 71.5365 30.6733 67.9214 30.5285 65.427H26.986C26.9349 67.8624 26.9094 71.5955 26.9349 74.0562L30.5285 73.9719Z" fill="#FF0E08"/>
<path d="M47.0148 65.6377C46.9041 72.6826 46.9041 79.8118 47.0659 86.823H43.2509C43.4978 79.8118 43.5575 72.6826 43.3871 65.604C42.3482 65.6629 41.3008 65.7219 40.1768 65.8062V61.6685H50.0889V65.8062C48.9819 65.7303 47.9686 65.6629 47.0148 65.6377Z" fill="#FF0E08"/>
<path d="M62.4706 86.7978H58.7578C58.8685 83.132 58.9536 79.4663 58.9536 75.7921H55.2153C55.2153 79.4663 55.2522 83.1348 55.326 86.7978H51.6217C51.9169 78.4382 51.9169 70.0534 51.6217 61.6433H55.326C55.2522 65.4017 55.2153 69.1601 55.2153 72.9185C56.4841 72.9185 57.7189 72.9185 58.9536 72.9185C58.9536 69.1348 58.8685 65.3343 58.7578 61.618H62.4706C62.2776 70.0562 62.2776 78.4494 62.4706 86.7978Z" fill="#FF0E08"/>
<path d="M68.5337 65.8989C68.5337 68.0983 68.4826 70.3315 68.4826 72.5309H69.1554C70.2198 72.5309 71.3183 72.5309 72.6127 72.4719V75.8427H68.4656C68.4656 78.0759 68.4656 80.3343 68.5167 82.5843C69.0958 82.5843 69.7259 82.5843 70.3901 82.5843C71.5653 82.5843 72.7745 82.5253 73.3791 82.5V86.7978H64.7783C64.9146 82.6012 64.9855 78.4045 64.9912 74.2079C64.9912 70.045 64.9146 65.8399 64.7783 61.6433H73.4132V65.9326C72.8086 65.8736 71.5993 65.8399 70.4242 65.8399C69.7429 65.8652 69.1554 65.8652 68.5337 65.8989Z" fill="#FF0E08"/>
</g>
<defs>
<clipPath id="clip0">
<rect width="269" height="87" fill="white"/>
</clipPath>
</defs>
</svg>
